<svg xmlns="http://www.w3.org/2000/svg" viewBox="0 0 500 500"><g id="freepik--Windmill--inject-102"><g id="freepik--windmill--inject-102"><path d="M106.5,330.88a.63.63,0,0,1-.62-.57L87.22,93.73H77.66L58.92,330.31a.6.6,0,0,1-.67.57.63.63,0,0,1-.57-.67L76.47,93.06a.62.62,0,0,1,.62-.57h10.7a.61.61,0,0,1,.61.57l18.72,237.15a.63.63,0,0,1-.57.67Z" style="fill:#455a64"></path><path d="M91.46,140.17h-18a.62.62,0,0,1-.52-.95l8.8-13.87-6.81-10.72a.61.61,0,0,1,0-.64l6.84-11.72-5.17-8.85a.62.62,0,0,1,1.07-.62l4.82,8.25,4.81-8.25a.62.62,0,0,1,1.07.62l-5.17,8.85L90,114a.59.59,0,0,1,0,.64l-6.81,10.72L92,139.22a.62.62,0,0,1,0,.63A.64.64,0,0,1,91.46,140.17Zm-16.92-1.24H90.33l-7.89-12.42Zm1.6-24.64,6.3,9.91,6.3-9.91-6.3-10.79Z" style="fill:#455a64"></path><path d="M70.72,174.32a.54.54,0,0,1-.32-.09.61.61,0,0,1-.21-.84l20.74-34.16a.62.62,0,0,1,.85-.21.63.63,0,0,1,.21.85L71.25,174A.62.62,0,0,1,70.72,174.32Z" style="fill:#455a64"></path><path d="M97.34,214.61H67.54a.62.62,0,0,1-.55-.32.66.66,0,0,1,0-.64L81.7,191.44,70.2,174.05a.66.66,0,0,1,0-.64.62.62,0,0,1,.55-.32H93.06L72.89,139.87a.62.62,0,1,1,1.06-.64l20.73,34.14a1.47,1.47,0,0,1,.06.14h0l0,.11h0a.64.64,0,0,1-.1.42L83.18,191.44l14.67,22.21a.62.62,0,0,1-.51,1Zm-28.65-1.23h27.5L82.44,192.56Zm3.18-39.06,10.57,16,10.57-16Z" style="fill:#455a64"></path><path d="M99.82,246.05a.6.6,0,0,1-.43-.18L67.1,214.44a.64.64,0,0,1,0-.88.63.63,0,0,1,.88,0L100.25,245a.61.61,0,0,1,0,.87A.59.59,0,0,1,99.82,246.05Z" style="fill:#455a64"></path><path d="M65.05,246.05a.59.59,0,0,1-.44-.19.62.62,0,0,1,0-.87l32.29-31.44a.62.62,0,0,1,.87,0,.63.63,0,0,1,0,.88L65.48,245.87A.6.6,0,0,1,65.05,246.05Z" style="fill:#455a64"></path><rect x="70.03" y="112.56" width="24.82" height="2.75" rx="1.26" style="fill:#455a64"></rect><path d="M82.44,330.83a.62.62,0,0,1-.62-.62V93.11a.62.62,0,0,1,.62-.62.61.61,0,0,1,.61.62v237.1A.61.61,0,0,1,82.44,330.83Z" style="fill:#455a64"></path><path d="M80.08,69.25a2.36,2.36,0,1,1,2.36,2.36A2.36,2.36,0,0,1,80.08,69.25Z" style="fill:#455a64"></path><path d="M82.44,63.43s-3.82-7.34-2.36-10.81,4.22-6.1,4.71-4.3S82.44,63.43,82.44,63.43Z" style="fill:#455a64"></path><path d="M79,64.54s-7.41-3.7-8.26-7.36-.17-7.41,1.28-6.24S79,64.54,79,64.54Z" style="fill:#455a64"></path><path d="M76.9,67.45s-8.16,1.36-11-1.1-4.49-5.9-2.63-5.81S76.9,67.45,76.9,67.45Z" style="fill:#455a64"></path><path d="M76.9,71.05s-5.8,5.9-9.55,5.58-7.1-2.13-5.54-3.15S76.9,71.05,76.9,71.05Z" style="fill:#455a64"></path><path d="M79,74s-1.23,8.19-4.45,10.13-7,2.45-6.34.7S79,74,79,74Z" style="fill:#455a64"></path><path d="M82.44,75.07s3.81,7.35,2.35,10.81-4.22,6.1-4.71,4.3S82.44,75.07,82.44,75.07Z" style="fill:#455a64"></path><path d="M85.86,74s7.4,3.7,8.26,7.36.17,7.41-1.29,6.24S85.86,74,85.86,74Z" style="fill:#455a64"></path><path d="M88,71.05s8.17-1.36,11,1.1,4.5,5.9,2.63,5.81S88,71.05,88,71.05Z" style="fill:#455a64"></path><path d="M88,67.45s5.81-5.9,9.55-5.58S104.63,64,103.07,65,88,67.45,88,67.45Z" style="fill:#455a64"></path><path d="M85.86,64.54s1.23-8.18,4.45-10.13,7-2.45,6.33-.7S85.86,64.54,85.86,64.54Z" style="fill:#455a64"></path></g></g><g id="freepik--Bushes--inject-102"><g id="freepik--bushes--inject-102"><g id="freepik--Shrubbery--inject-102"><path d="M483.33,309c6.6-4.7,6.55-16.88-1.83-19.49,5.78-5.79,4-18.27-4.35-19,2.05-5.12,1.05-12.12-5.53-13.41,2.09-6.28-3.72-10.63-9.54-8.38-.26-6.61-9.63-7-11.74-2.33.12-2.57-3.72-7.31-6.17-7.32,4.24-3.32,3.07-10-.57-10.87,4.95-3.76,2.3-12.34-3.62-12.26,4-6.25-4.5-12.79-9.76-10.86,3-7-10.94-12.63-14-5.18-5.33-8.77-23.59-3.61-21.15,7.8a4.35,4.35,0,0,0-3.24,7.75,6.28,6.28,0,0,0-8.57,1.87,3.37,3.37,0,0,0-2.81-4.4c5.79-2.36,1.73-11-3.62-10.63,5.05-6.49-5.2-14-10.64-8.88-2.54-6-11.59-4.7-11,2.28-2-3.64-6-3.38-9.19-1.43-4.47,2.68-3.87,7.46-1.42,11.34-1.85-2.22-7.51-3.44-8.37.23a4.42,4.42,0,0,0-6.38-.73c-1.68-6-12.43-6.8-14.47.61.31-1.11-4.93.18-5.32.44a4.79,4.79,0,0,0-2,5.28,4.43,4.43,0,0,0-6,5.47,6.77,6.77,0,0,0-4.66-1,3.87,3.87,0,0,0-3.14,3.27c-1.63-2.11-5.08-2.15-7.19-.51a8.71,8.71,0,0,0-2.94,7.13c-1.63-1.89-5.47-3.32-6.95-.4a5.4,5.4,0,0,0-7.62.39,4,4,0,0,0-6.84-.76,4.07,4.07,0,0,0-3.87-2.71,5.68,5.68,0,0,0-4.34,2.27c-1.92-4.29-7.83-1.87-8.07,1.09-.91-1.3-2.2-2.84-3.88-2.91a4.46,4.46,0,0,0-4,2.34,5,5,0,0,0-9.22,2.06,5.36,5.36,0,0,0-4.19-3.9,5.27,5.27,0,0,0-5.23,2.3,4.64,4.64,0,0,0-3.78-3.59,7,7,0,0,0-5.23,1.37,6.58,6.58,0,0,0-2-5.35c-1.5-1.27-4.08-1.31-5.25.27-.51-2.19-2-3.47-3.79-4.6a5.68,5.68,0,0,0-2.79-1.12c-.35,0-2.79.06-2.82.56.26-4.1-2.48-10.43-7.67-7.44-2-7.41-12.79-6.62-14.46-.61a4.43,4.43,0,0,0-6.39.73c-.86-3.67-6.52-2.45-8.37-.23,2.46-3.88,3.06-8.66-1.41-11.34-3.24-1.95-7.19-2.21-9.2,1.43.6-7-8.45-8.24-11-2.28-5.44-5.15-15.69,2.39-10.64,8.88-5.35-.33-9.41,8.27-3.61,10.63a3.36,3.36,0,0,0-2.81,4.4,6.29,6.29,0,0,0-8.58-1.87,4.35,4.35,0,0,0-3.24-7.75c2.45-11.41-15.82-16.57-21.15-7.8-3-7.45-16.94-1.86-14,5.18-5.26-1.93-13.73,4.61-9.76,10.86-5.91-.08-8.57,8.5-3.61,12.26-3.65.89-4.82,7.55-.57,10.87-2.46,0-6.3,4.75-6.18,7.32-2.11-4.66-11.48-4.28-11.73,2.33-5.83-2.25-11.63,2.1-9.55,8.38-6.57,1.29-7.58,8.29-5.53,13.41-8.38.77-10.13,13.25-4.35,19-8.38,2.61-8.42,14.79-1.83,19.49-4.37,2.08-4.8,12.2,2.31,15-.18.16-.35.34-.52.51-4.19,4.47-.69,11.84,5.44,11.84H476.11c6.12,0,9.62-7.37,5.43-11.84-.16-.17-.34-.35-.52-.51C488.13,321.24,487.7,311.12,483.33,309Z" style="fill:#455a64"></path><path d="M80.25,219.82a6.71,6.71,0,0,1,9.47-.56A6.47,6.47,0,0,1,91,220.75a6.69,6.69,0,0,1,10.86,3.85,8,8,0,0,0-13.27,1.58,5.61,5.61,0,0,1,0-1.15,6.61,6.61,0,0,1,.9-2.58,5.92,5.92,0,0,0-.69-.73,8,8,0,0,0-9.23-1A6,6,0,0,1,80.25,219.82Z" style="fill:#37474f"></path><path d="M150,208.26a5.16,5.16,0,0,0-7.3-.43,5,5,0,0,0-1,1.15,5.17,5.17,0,0,0-8.38,3,6.24,6.24,0,0,1,3.93-2.15,6.14,6.14,0,0,1,6.31,3.38,4.44,4.44,0,0,0,0-.89,5.14,5.14,0,0,0-.7-2,4.81,4.81,0,0,1,.54-.57,6.15,6.15,0,0,1,7.11-.75A4.3,4.3,0,0,0,150,208.26Z" style="fill:#37474f"></path><path d="M18.67,309c-4.37,2.08-4.8,12.2,2.31,15-.18.16-.36.34-.52.51-4.19,4.47-.69,11.84,5.43,11.84h6a8.28,8.28,0,0,1,6.88-4.86c-2-1.7-5-3.43-6.13-5.81-.42-.85-1.29-6.55.69-6.52a5.76,5.76,0,0,1-5.48-5.26c-.13-2.32,1.18-4.45,2.44-6.41a8.56,8.56,0,0,1-3.1-14,2.5,2.5,0,0,0,.63-.82c.29-.82-.47-1.6-1.05-2.25a7.26,7.26,0,0,1,4.37-12,7.18,7.18,0,0,1,7.49-10.23C37,265.64,38.4,262,41,260.41s5.85-1.48,8.74-.65a5.61,5.61,0,0,1,2.44-6.14,7.55,7.55,0,0,1,6.82-.44c-.52-4.21,2.91-7,6.67-7.75,1.09-.21,4.49-.63,5.26.42-2.74-3.75,1.63-10.11,5.94-6.78-2.19-2.44-3.49-3.66-5.92-4.13-1.8-.34-4.27-.11-5.46.92-1.94-2.6-1.31-9,3.52-9.64-3.53-4.18-1.35-8.94,3.4-10.55-2-1-5-1.39-6.12-3.73-1.25-2.62.31-5.15,2-7.05-4.7.94-9.39,6.08-6.24,11.05-5.92-.08-8.57,8.5-3.61,12.26-3.65.89-4.82,7.55-.57,10.87-2.46,0-6.3,4.75-6.18,7.32-2.11-4.66-11.48-4.28-11.73,2.33-5.83-2.25-11.63,2.1-9.55,8.38-6.57,1.29-7.58,8.29-5.53,13.41-8.38.77-10.13,13.25-4.35,19C12.12,292.16,12.08,304.34,18.67,309Z" style="fill:#37474f"></path><g id="freepik--shrubbery--inject-102"><path d="M421.75,219.82a6.71,6.71,0,0,0-9.47-.56,6.47,6.47,0,0,0-1.24,1.49,6.69,6.69,0,0,0-10.86,3.85,8,8,0,0,1,13.27,1.58,5.61,5.61,0,0,0,0-1.15,6.61,6.61,0,0,0-.9-2.58,6.78,6.78,0,0,1,.69-.73,8,8,0,0,1,9.23-1A5.39,5.39,0,0,0,421.75,219.82Z" style="fill:#37474f"></path><path d="M352,208.26a5.18,5.18,0,0,1,7.31-.43,4.93,4.93,0,0,1,1,1.15,5.17,5.17,0,0,1,8.38,3,6.21,6.21,0,0,0-3.93-2.15,6.14,6.14,0,0,0-6.31,3.38,4.44,4.44,0,0,1,0-.89,5.14,5.14,0,0,1,.7-2,5.68,5.68,0,0,0-.53-.57,6.17,6.17,0,0,0-7.12-.75A4.3,4.3,0,0,1,352,208.26Z" style="fill:#37474f"></path><path d="M431.12,245.85c.76-1,4.16-.63,5.25-.42A7.35,7.35,0,0,1,442,255a5.94,5.94,0,0,1,6.58,8.56c4.32-1,11-.21,14.34,3.06,1.85,1.79,2.56,4.88,1.16,7,.26-.4,3.66-.44,6.46,1.3a6.44,6.44,0,0,1,2.89,5.11,10.62,10.62,0,0,1-2,6.44c.23-.43,2.85,1.4,3.08,1.61a6.58,6.58,0,0,1,1.84,2.88,3.59,3.59,0,0,1-3.13,4.48,9.74,9.74,0,0,1,4.32,3.4,5.41,5.41,0,0,1,.48,5.31c-1.12,2.17-3.78,3-6.16,3.57a6.75,6.75,0,0,1,1.69,6,4.67,4.67,0,0,1-4.79,3.53,6.46,6.46,0,0,1-3.05,11.91c1.2-.07,2.11,2.43,2.41,3.22.55,1.44,1.3,2.47,2,3.92h6c6.12,0,9.62-7.37,5.43-11.84-.16-.17-.34-.35-.52-.51,7.11-2.8,6.68-12.92,2.31-15,6.6-4.7,6.55-16.88-1.83-19.49,5.78-5.79,4-18.27-4.35-19,2.05-5.12,1.05-12.12-5.53-13.41,2.09-6.28-3.72-10.63-9.54-8.38-.26-6.61-9.63-7-11.73-2.33.11-2.57-3.73-7.31-6.18-7.32,4.24-3.32,3.07-10-.57-10.87,4.95-3.76,2.3-12.34-3.62-12.26,3.15-5-1.54-10.11-6.24-11.05,1.71,1.9,3.26,4.43,2,7.05-1.11,2.34-4.13,2.75-6.12,3.73,4.74,1.61,6.92,6.37,3.39,10.55,4.83.61,5.46,7,3.52,9.64-1.19-1-3.66-1.26-5.46-.92-2.43.47-3.73,1.69-5.91,4.13C429.48,235.74,433.85,242.1,431.12,245.85Z" style="fill:#37474f"></path></g></g></g></g><g id="freepik--Floor--inject-102"><g id="freepik--floor--inject-102"><ellipse id="freepik--floor--inject-102" cx="249.55" cy="351.15" rx="238.51" ry="131.69" style="fill:#436917"></ellipse><ellipse id="freepik--floor--inject-102" cx="249.55" cy="351.15" rx="238.51" ry="131.69" style="fill:#fff;opacity:0.7000000000000001"></ellipse></g></g><g id="freepik--Clouds--inject-102"><path id="freepik--Cloud--inject-102" d="M279.47,70.26c0-4.34-4.77-7.36-10.16-7.87-6.35-.6-10.86,2.23-11,7.24-4.16-1.71-8.54-.61-8.21,4-1.08-1.24-5.12-1.21-6.57-.86a5.69,5.69,0,0,0-3.62,3.08,4.26,4.26,0,0,0-.38,2.34c-2.42-.79-7.93-1.28-9.31,1-2.45,4,7.35,4.07,9.32,2.88.42,3.08,10.95,3.58,13.5.74,2,2,4.85,2.45,7.94,2.63,5.21.31,8.4-1.45,12.47-3.53,4.41,3.75,12.06,3.82,16-.47,1,1,3.81,1.26,6,.72,1.47-.35,1.81-1,1.81-1a13.48,13.48,0,0,0,2.71.81c2.88.6,8.26,0,6-2.64-.76-.88-3.58-1.44-4.77-1.17-1.26-2.48-6.31-4.83-9.22-2.73-.11-3-2.85-5.35-6.72-6C284.05,69.21,280.94,69,279.47,70.26Z" style="fill:#f5f5f5"></path><path id="freepik--cloud--inject-102" d="M191.61,106.17c0-5.28-5.79-9-12.35-9.57-7.73-.73-13.21,2.71-13.4,8.8-5.05-2.07-10.38-.74-10,4.81-1.32-1.51-6.23-1.47-8-1a6.9,6.9,0,0,0-4.4,3.76,5.13,5.13,0,0,0-.46,2.84c-3-1-9.65-1.56-11.32,1.15-3,4.81,8.93,5,11.33,3.5.51,3.75,13.32,4.36,16.42.91,2.43,2.44,5.9,3,9.66,3.2,6.34.38,10.22-1.77,15.17-4.29,5.37,4.55,14.67,4.64,19.51-.58,1.24,1.17,4.64,1.53,7.37.88,1.79-.43,2.2-1.19,2.2-1.19a15.88,15.88,0,0,0,3.29,1c3.51.73,10,0,7.31-3.21-.94-1.08-4.36-1.76-5.81-1.43-1.53-3-7.68-5.87-11.21-3.32-.14-3.65-3.48-6.51-8.18-7.23C197.19,104.9,193.41,104.68,191.61,106.17Z" style="fill:#f5f5f5"></path></g><g id="freepik--Shadows--inject-102"><ellipse id="freepik--Shadow--inject-102" cx="378.19" cy="315.72" rx="50.43" ry="29.12" style="fill:#436917;opacity:0.2"></ellipse><path id="freepik--shadow--inject-102" d="M443.25,399.23c8.43,4.86,8.43,12.75,0,17.61s-22.08,4.87-30.51,0-8.42-12.75,0-17.61S434.83,394.36,443.25,399.23Z" style="fill:#436917;opacity:0.2"></path><polygon id="freepik--shadow--inject-102" points="78.36 292.8 290.01 414.98 300.29 408.93 88.65 286.74 78.36 292.8" style="fill:#436917;opacity:0.2"></polygon><path id="freepik--shadow--inject-102" d="M43.1,382.82l90.48,52.24c21.58,12.46,56.58,12.46,78.16,0l10-5.78c21.59-12.46,21.58-32.65,0-45.09L131.11,332c-21.6-12.44-56.6-12.42-78.18,0l-9.83,5.67C21.52,350.15,21.52,370.36,43.1,382.82Z" style="fill:#436917;opacity:0.2"></path><path id="freepik--shadow--inject-102" d="M265.2,364.67l43.26,25c10.32,6,27.05,6,37.37,0l4.78-2.77c10.32-5.95,10.32-15.61,0-21.55l-43.32-25c-10.33-5.94-27.06-5.94-37.38,0l-4.7,2.71C254.88,349.05,254.88,358.71,265.2,364.67Z" style="fill:#436917;opacity:0.2"></path><path id="freepik--shadow--inject-102" d="M190.69,269.22l50.72,29.29c12.1,7,31.72,7,43.82,0l5.61-3.24c12.1-7,12.1-18.3,0-25.28L240,240.72c-12.11-7-31.73-7-43.83,0l-5.51,3.18C178.58,250.91,178.58,262.24,190.69,269.22Z" style="fill:#436917;opacity:0.2"></path><path id="freepik--shadow--inject-102" d="M398.21,432.72c2.94,1.69,2.94,4.44,0,6.14a11.78,11.78,0,0,1-10.63,0c-2.93-1.7-2.93-4.45,0-6.14A11.72,11.72,0,0,1,398.21,432.72Z" style="fill:#436917;opacity:0.2"></path><path id="freepik--shadow--inject-102" d="M368.46,416.42c2.94,1.7,2.94,4.45,0,6.14a11.72,11.72,0,0,1-10.63,0c-2.94-1.69-2.94-4.44,0-6.14A11.78,11.78,0,0,1,368.46,416.42Z" style="fill:#436917;opacity:0.2"></path><path id="freepik--shadow--inject-102" d="M239,454.4c-2.94,1.69-2.94,4.44,0,6.13a11.72,11.72,0,0,0,10.63,0c2.93-1.69,2.93-4.44,0-6.13A11.72,11.72,0,0,0,239,454.4Z" style="fill:#436917;opacity:0.2"></path><path id="freepik--shadow--inject-102" d="M284.83,440.19c-2.94,1.7-2.94,4.45,0,6.14a11.72,11.72,0,0,0,10.63,0c2.93-1.69,2.93-4.44,0-6.14A11.78,11.78,0,0,0,284.83,440.19Z" style="fill:#436917;opacity:0.2"></path></g><g id="freepik--Character--inject-102"><g id="freepik--character--inject-102"><g id="freepik--Bottom--inject-102"><path d="M374,286.39l1.17-12.58-16.69-2.14s.69,6.44,1,11.56c.31,4.76-.51,6.77-2.14,9.47s-5.74,6.13-10.28,7.94-8.87,4.23-7.64,6.83,8,3.8,11,3.18,9.53-4.1,12.88-6.57,8.87-3.64,10.15-4.18,1.59-2.35,1.54-5.35A64.91,64.91,0,0,0,374,286.39Z" style="fill:#f28f8f"></path><path d="M352.47,166.8c-.6,8.53-.11,32.77.49,50.66.29,8.43,1.81,20.41,2.11,24.17.86,10.57,3.21,34.79,3.21,34.79s8.88,3.53,16.84.39c1.34-13.28,6-32.14,2.5-43.43l6.56-66.58Z" style="fill:#455a64"></path><path d="M371.2,233c-.38-3.37.37-34.92.38-35.24l-.72,0c0,1.3-.75,31.92-.37,35.34a29.86,29.86,0,0,0,.6,3.19,58.94,58.94,0,0,1,1.55,16.52c-.23,7.08-.68,17.88-1,25,.24,0,.49-.09.73-.15.3-7.16.74-17.84,1-24.87a59.62,59.62,0,0,0-1.57-16.7C371.53,234.88,371.3,233.85,371.2,233Z" style="fill:#37474f"></path><path d="M377.62,233.38l3.25-35.72c-11.53-1.58-19.58-7.34-21.69-12.1a16.89,16.89,0,0,0,10.19,12.64s2.67,22,3.95,29.65,3,11.54,5.14,24.07C379.13,245,379.2,238.43,377.62,233.38Z" style="fill:#37474f"></path><path d="M338.49,307.69a3.52,3.52,0,0,0,.72,3.55c1.45,1.2,5.67,3.15,11.19,2.35s8.49-2.55,10.67-4.42,5.25-4.53,7.75-5.12c2.31-.55,6.08-1.91,6.81-2.64s.58-3.9.58-3.9Z" style="fill:#263238"></path><path d="M374,286.39a1.69,1.69,0,0,1,.91,1.06c.18.88.21,2,.59,3.43a25.6,25.6,0,0,1,.67,7.72c-.28,1.64-5.31,3.1-7.71,4.06a30.94,30.94,0,0,0-7.77,5A22.85,22.85,0,0,1,349,312.22c-5.5.17-9.09-1.27-10.23-3.22-1-1.69-.14-4.18,1.25-5.41a30.62,30.62,0,0,1,6.64-4c3.58-1.83,7.58-4.08,9.82-7.52a8.71,8.71,0,0,0,1.43-4.93,1.85,1.85,0,0,1,.1-.81,1.56,1.56,0,0,1,1.25-.69c2.7-.44,5.08.72,7.61,1.64a2.9,2.9,0,0,1,1.55,1c.69,1.07-.16,2.5.08,3.75a.85.85,0,0,0,.08.24c.18.26.58.19.85,0,1-.58,1.24-1.82,1.8-2.79a4.73,4.73,0,0,1,1.89-1.82,5.84,5.84,0,0,1,.76-.31S374,286.4,374,286.39Z" style="fill:#37474f"></path><path d="M343.93,301c8,.42,10.35,6.89,10.74,9.92a18.76,18.76,0,0,1-5.64,1.27c-5.5.17-9.32-1.26-10.45-3.21C337.26,306.73,338.32,303.25,343.93,301Z" style="fill:#fafafa"></path><path d="M354.92,302a.38.38,0,0,0,.25-.09.4.4,0,0,0,.05-.55c-1.14-1.33-4.22-3.63-7.11-3.27a.39.39,0,0,0-.34.43.4.4,0,0,0,.44.34c2.7-.33,5.51,1.94,6.41,3A.41.41,0,0,0,354.92,302Z" style="fill:#f0f0f0"></path><path d="M358.33,300a.46.46,0,0,0,.24-.1.37.37,0,0,0,.05-.54c-1.14-1.34-4.22-3.64-7.11-3.27a.39.39,0,0,0-.34.43.4.4,0,0,0,.44.34c2.7-.34,5.52,1.94,6.41,3A.41.41,0,0,0,358.33,300Z" style="fill:#f0f0f0"></path><path d="M361.47,297.63a.4.4,0,0,0,.25-.09.39.39,0,0,0,0-.55c-1.13-1.33-4.22-3.63-7.1-3.27a.38.38,0,0,0-.34.43.37.37,0,0,0,.43.34c2.7-.33,5.52,1.95,6.42,3A.36.36,0,0,0,361.47,297.63Z" style="fill:#f0f0f0"></path><path d="M364.37,294.85a.36.36,0,0,0,.24-.09.38.38,0,0,0,.06-.54,9.62,9.62,0,0,0-7.77-3.3.38.38,0,0,0-.34.43.39.39,0,0,0,.43.34,8.93,8.93,0,0,1,7.08,3A.39.39,0,0,0,364.37,294.85Z" style="fill:#f0f0f0"></path><path d="M357.9,272.92c3.23,2.27,12.42,4.38,17.71.71l-.92,6.67c-3.18,2.1-12.58,3-16.29-1.25Z" style="fill:#37474f"></path><path d="M403.63,298l.33-14.74-16.53.61,2.44,14.92s1,6.05,1.16,7.51a118.53,118.53,0,0,1,.88,12.62c.06,5.57.35,10.72,1.87,13.28s3.19,3,5.68,2.12a10.85,10.85,0,0,0,6.49-8.05c.95-4.42-.37-10.95-.92-12.44S403.72,303.42,403.63,298Z" style="fill:#f28f8f"></path><path d="M401.41,171l-32.69-.17c1.07,8.21,8.65,64,10.34,73.45s9.1,46.41,9.1,46.41,1.75,2.76,7.32,2.42c6.25-.38,8.67-2.91,8.67-2.91s1.21-19.86,1.34-31.54a75.79,75.79,0,0,0-2.79-21.79s.82-21.26.8-35.47S403.42,182.62,401.41,171Z" style="fill:#455a64"></path><path d="M390.58,325.82c.17,3.9.74,6.5,2.09,8.8s4,3.07,6.63,2.45,6.09-2.36,6.9-5.71,1.28-5.65.74-9.27Z" style="fill:#263238"></path><path d="M403.63,298c1.09.11.73,5.27,1.28,10.52.59,5.62,1.37,7.86,1.91,12.48.61,5.27-.3,7.61-2.2,10.76s-8.5,6.16-11.66,1.55c-2.58-3.76-2.62-7.88-2.31-13.13a75,75,0,0,0-.53-13.19c-.39-4.25-1.21-7.78-.25-8.2,0,0,.63,3.24.88,3.91.11.29.52,1,.7-.06.06-.33,0-1.08,0-1.41.09-.9.65-1,1-1.24a10.57,10.57,0,0,1,4.67-.94c2.14,0,4,0,5.17.61.71.38.68,1.06.75,1.72s.09,1.29.28,1.13C403.73,302.17,403.51,298.53,403.63,298Z" style="fill:#37474f"></path><path d="M407.07,324a13,13,0,0,1-2.16,8c-1.9,3.15-9,6.17-12.19,1.56-1.57-2.3-2-5-2.14-7.72C392.57,322.34,404.07,321,407.07,324Z" style="fill:#fafafa"></path><path d="M393.05,320.14l.13,0a18.65,18.65,0,0,1,10-.8.42.42,0,0,0,.5-.3.4.4,0,0,0-.3-.48,19.08,19.08,0,0,0-10.58.85.39.39,0,0,0-.19.53A.4.4,0,0,0,393.05,320.14Z" style="fill:#f0f0f0"></path><path d="M403,315.38a.44.44,0,0,0,.35-.27.42.42,0,0,0-.25-.52c-4.88-1.73-10.35.66-10.56.76a.41.41,0,0,0-.18.55.42.42,0,0,0,.55.17s5.38-2.34,9.92-.72A.47.47,0,0,0,403,315.38Z" style="fill:#f0f0f0"></path><path d="M402.92,311.67a.38.38,0,0,0,.34-.25.4.4,0,0,0-.23-.52c-5.36-2-10.57.61-10.76.72a.41.41,0,0,0,.41.7s5.07-2.54,10.06-.67A.37.37,0,0,0,402.92,311.67Z" style="fill:#f0f0f0"></path><path d="M402.71,308a.42.42,0,0,0,.34-.25.41.41,0,0,0-.23-.53c-5-2-10.62.72-10.83.84a.41.41,0,1,0,.39.71c.05,0,5.48-2.62,10.14-.8A.32.32,0,0,0,402.71,308Z" style="fill:#ebebeb"></path><path d="M387.17,286.26c3.38,1.93,12.58,3.08,17.37-1.11l-.22,6.73c-2.9,2.42-12,4.23-16.05.43Z" style="fill:#37474f"></path><path d="M402.22,246.21c-.22-1.82-.44-3.27-.64-4.66-.69-4.66-1.35-9.06-2.23-26.66-.33-6.62-.36-11.73-.38-16.24-.05-9.13-.09-15.76-2.47-27.66h-.73a118.44,118.44,0,0,1,2.47,26c-4.36-.18-6.85-4.37-7.82-13.16-1-9.3-2.05-15.66-2.06-15.72l-.71.11c0,.07,1,6.41,2.06,15.69,1,9.11,3.8,13.62,8.54,13.8v.92c0,4.51.05,9.63.39,16.27.88,17.63,1.53,22,2.23,26.72.2,1.39.41,2.83.64,4.65a263.89,263.89,0,0,1,1.42,41.79l.72,0A265.37,265.37,0,0,0,402.22,246.21Z" style="fill:#37474f"></path></g><g id="freepik--Top--inject-102"><g id="freepik--Hat--inject-102"><path d="M376.69,90.86c7.12,3.11,14.88.68,17.33-5.42s-1.34-13.58-8.45-16.69-14.88-.68-17.33,5.42S369.57,87.74,376.69,90.86Z" style="fill:#436917"></path><path d="M385.84,70.55c-14.71-7.26-30.11-5.49-34.4,4s4.15,23,18.86,30.26,30.11,5.5,34.4-4S400.54,77.82,385.84,70.55Z" style="fill:#436917"></path><path d="M385.84,70.55c-14.71-7.26-30.11-5.49-34.4,4s4.15,23,18.86,30.26,30.11,5.5,34.4-4S400.54,77.82,385.84,70.55Z" style="opacity:0.30000000000000004"></path><path d="M391.67,97.13a8.21,8.21,0,0,1-5.62,4.35,13.18,13.18,0,0,1-1.34.29,21.69,21.69,0,0,1-12.79-2.37C363.48,95.24,358.64,87.46,361.1,82a7.42,7.42,0,0,1,3.52-3.54c4-2,10.19-1.7,16.22,1.28A22.51,22.51,0,0,1,391,89.08C392.42,91.88,392.75,94.73,391.67,97.13Z" style="opacity:0.30000000000000004"></path></g><g id="freepik--Arm--inject-102"><path d="M317.07,123.19c-2.61-1.67-3.34-3.64-4.66-5.31-1.69-2.13-3.77-3.45-6.81-6L304,110.62a7.67,7.67,0,0,1-.75-.64c-.21-.22-.4-.4-.76-.22a1.13,1.13,0,0,0-.51.64,3.26,3.26,0,0,0,.31,2.65,14.4,14.4,0,0,0,1.62,2.21c.43.55-.38.58-.77.53-1.89-.22-5.16-4.24-6.62-5.37-.66-.52-1.08-1.41-2.05-1.12a4.93,4.93,0,0,1-1,.3,3.8,3.8,0,0,1-1.06-.13,2.4,2.4,0,0,0-1.56.23,1.36,1.36,0,0,0-.7,1.32c.07.41.37.77.37,1.18a2.83,2.83,0,0,1-.11.58c-.14.86.5,1.61.9,2.38s.41,1.41.72,2.08a14.58,14.58,0,0,0,1.07,2.08,26.79,26.79,0,0,0,3.55,4.18,18.62,18.62,0,0,0,6.42,3.6,12.19,12.19,0,0,1,5.34,3c2.66,2.32,12.69,11.05,17.2,14.13,5.46,3.72,7,4.9,13.73,1.82,4.45-2,20.17-12.33,20.17-12.33l5.26-17.5s-6.58-2.3-16,4.81c-6.74,5.09-14.68,11.06-14.68,11.06S319.29,124.61,317.07,123.19Z" style="fill:#f28f8f"></path></g><path d="M346.06,142.74l13.66-8V113.87c-3,.43-5.61,2.36-8.55,4.54-3.72,2.78-16.81,13.39-16.81,13.39l-3.61-1.46a20,20,0,0,1-1.69,7.11,12.1,12.1,0,0,1-5,5.91s5.24,4.44,7.83,4.79S335.85,148.69,346.06,142.74Z" style="fill:#37474f"></path><path d="M334.35,131.8c1.86.76,4.56,4.16,4.68,7.53a8.15,8.15,0,0,0-3.5-8.48Z" style="fill:#263238"></path><path d="M332.81,132.4a3.41,3.41,0,0,0-2.11-3.09c-2.15-1.08-4.75-2.79-5.37-1.72l1.64.78a13.85,13.85,0,0,1-1.87,6c-2.93,5.09-5.51,5.16-5.51,5.16l-1.14-.94s-.66.45.53,1.69a19.52,19.52,0,0,0,5.38,3.63c2.07.56,4.69-2,6.15-4.45C333,135.4,332.86,133.56,332.81,132.4Z" style="fill:#455a64"></path><path d="M304.43,117.36c-.57,2.93,1.93,6,3.47,7,0,0-2.7-1-3.56-2.89C303.39,119.48,303.76,118.39,304.43,117.36Z" style="fill:#b16668"></path><path d="M386.31,111.77c2.59.65,7.13,2.13,11.58,3.45,2.61.78,3.9,2.24,6.18,3.5a98.3,98.3,0,0,1-1.72,22.2,91.18,91.18,0,0,0-1.45,17.53c.23,8.27.88,11.23,1.39,18.05,0,0-8.17,8.22-30.78,6.88-15.1-.89-19.5-7.58-19.5-7.58s0-25,.34-36.09c.5-14.61,3.64-23.39,7.36-25.84l10.87-1.94Z" style="fill:#436917"></path><g id="freepik--Head--inject-102"><path d="M391.89,91.36c-.19,1.12-.46,2.39-.81,3.83a30.5,30.5,0,0,1-1.43,4.52c-.86,2.11-1.67,3.35-2.11,4.27a3.91,3.91,0,0,1-2.21,1.86v-6l.11-4.22s-3.48-3-3.86-6a12,12,0,0,1,.05-3.38l-20.26,1.88a14.36,14.36,0,0,1-.57-5.22,8.11,8.11,0,0,1,.31-.82,7.48,7.48,0,0,1,3.52-3.55c4-2,10.19-1.7,16.22,1.28A22.62,22.62,0,0,1,391,89.07,12.52,12.52,0,0,1,391.89,91.36Z" style="fill:#37474f"></path><path d="M390.89,101.41c-3.09,1.61-4.54-.82-4.54-.82l0,11.94c-5.84,8.2-22.06,6.27-15.65.06l-.07-2.84a18.76,18.76,0,0,1-2.71-.19c-2.79-.36-4.59-2.52-5.5-5.5A41.92,41.92,0,0,1,361.85,85c.28-1.47.87-3.08,2.19-3.78,3.28-1.74,6.43.55,11.11,2.23,1.94.7,6.61.9,7.82.29-1.57,1.83-1.4,7.47,1,9.69a5.27,5.27,0,0,0,1.23,1.52c1,.86,1.81-1.44,2.64-2.36a3.49,3.49,0,0,1,5.46,1.1A5.69,5.69,0,0,1,390.89,101.41Z" style="fill:#f28f8f"></path><path d="M373.3,99.45l-4.29.71a2.14,2.14,0,0,0,2.45,1.86A2.28,2.28,0,0,0,373.3,99.45Z" style="fill:#b16668"></path><path d="M372.75,100.12a2.29,2.29,0,0,1,.53,0,2.26,2.26,0,0,1-1.82,1.87,2.05,2.05,0,0,1-.7,0A2,2,0,0,1,372.75,100.12Z" style="fill:#ffa8a7"></path><path d="M374.5,87.88l3.1,1.25a1.77,1.77,0,0,0-1-2.23A1.64,1.64,0,0,0,374.5,87.88Z" style="fill:#37474f"></path><path d="M363,87.79l3.21-1a1.62,1.62,0,0,0-2.06-1.12A1.77,1.77,0,0,0,363,87.79Z" style="fill:#37474f"></path><path d="M376.25,91.23a1.36,1.36,0,1,1-1.35-1.37A1.36,1.36,0,0,1,376.25,91.23Z" style="fill:#263238"></path><path d="M366.05,90.5a1.36,1.36,0,1,1-1.35-1.37A1.37,1.37,0,0,1,366.05,90.5Z" style="fill:#263238"></path><path d="M370.81,88.41l-.88,8.68-4.62-1.56A20.34,20.34,0,0,1,370.81,88.41Z" style="fill:#b16668"></path><path d="M384.08,92.66c-.43,5.92-2.45,6.56-4.59,6.58-3,0-4.14-1.59-9.13-1.71-3-.08-4.06.88-5.8,1.54-1.28.5-2.26.67-2.71-.48a19.79,19.79,0,0,1-.8-6.43,47.71,47.71,0,0,0,0,9.73c.35,2.8,1.31,5.21,2.82,6.55,2.09,1.85,6.53,2.7,12.13,1.61s7.78-3.36,8.5-5.32c2.33-6.34,1.55-9.39,2.31-10.58S384.08,92.66,384.08,92.66Zm-10.33,13.46c-1.26.14-2.19.19-2.21-.6a3.26,3.26,0,0,1,.22-1.78c.46-.53.31-.61-.94-.61s-1.24.22-.88.61.22,1.25.2,1.8-.16.84-1.95.61c-1.57-.18-1.93-1.61-1.84-4,.06-1.62,1.42-3,4.65-3,2.84,0,4.43,1.09,4.52,3C375.65,105,374.82,106,373.75,106.12Z" style="fill:#37474f"></path></g><path d="M438.57,160.05a42.45,42.45,0,0,1,4.59-1.2c1.17-.26,1.88.19,4.76,1.67s3.54,2.27,3.83,3.16a2,2,0,0,1-.71,2.18,1.72,1.72,0,0,1-.39,2.91,1.55,1.55,0,0,1-.55,2.53,2.11,2.11,0,0,1-1.42,2.94,31.2,31.2,0,0,1-4.58.74Z" style="fill:#f28f8f"></path><path d="M428.76,314.4l21.92-197.82-2.87-.32L425.88,314.1C425.8,315.24,428.66,315.5,428.76,314.4Z" style="fill:#263238"></path><path d="M448,145l3.38-31-3.74-.42-3.39,31C444.14,146.13,447.86,146.48,448,145Z" style="fill:#436917"></path><path d="M449.27,116.56C435,114.9,431.1,112.43,432,103.87c1.25-11.8,5.48-36.46,6.58-36.09s-1.49,30.24-2.22,39a2.49,2.49,0,0,0,2.19,2.67h.13a2.48,2.48,0,0,0,2.75-2.12c1.24-8.83,5.58-39,7.28-38.67s-1,30.47-1.84,39.32a2.47,2.47,0,0,0,2.18,2.69h0a2.48,2.48,0,0,0,2.75-2.08c1.36-8.74,6.17-38.8,7.55-38.49s-1.54,30.21-2.44,39a2.48,2.48,0,0,0,2.18,2.71h.1a2.48,2.48,0,0,0,2.75-2.09c1.32-8.64,5.92-38,7.16-37.66,1.44.36-1.49,29.33-2.29,35.83C465.93,115.11,465.84,118.49,449.27,116.56Z" style="fill:#455a64"></path><path d="M444.25,175c-.57,0-1.46-.85-2-1.44s-1.24-1.28-1.21-1.8c.05-.73,1.07-.77,1.07-.77a4,4,0,0,1-.52-.43c-.65-.6.48-1.48,1.52-1.13,0,0-.44-.25-.46-.54a1.32,1.32,0,0,1,1.38-1.33c-.74-.34-.52-1.38,0-2.19a5.88,5.88,0,0,1,1.33.09C446.1,168.34,445.2,171.5,444.25,175Z" style="fill:#f28f8f"></path><path d="M450.1,171.3a15.63,15.63,0,0,1-2,.65c-.69.17-1.38.36-2.08.46a3.16,3.16,0,0,1-2-.42q-1-.47-1.89-1a12,12,0,0,0,1.8,1.2,3.26,3.26,0,0,0,2.12.5,17,17,0,0,0,2.1-.53A9.35,9.35,0,0,0,450.1,171.3Z" style="fill:#b16668"></path><path d="M443.1,169.41a15.37,15.37,0,0,0,1.84.74,2.58,2.58,0,0,0,1,.15,9.18,9.18,0,0,0,1-.23,38.29,38.29,0,0,0,3.73-1.3c-1.29.3-2.54.7-3.8,1a8.49,8.49,0,0,1-.93.24,2.71,2.71,0,0,1-.93-.1C444.36,169.8,443.74,169.59,443.1,169.41Z" style="fill:#b16668"></path><path d="M444,167.54a3.83,3.83,0,0,0,1.84.34,13.13,13.13,0,0,0,1.78-.55c1.15-.45,2.29-.91,3.4-1.47-1.19.36-2.34.8-3.49,1.22a14.8,14.8,0,0,1-1.73.6A4.64,4.64,0,0,1,444,167.54Z" style="fill:#b16668"></path><path d="M418.74,165.31s7.52,2.8,12.33,4.65c3.68,1.41,3.74,1.95,5,3.17s5.32,1.55,5.32,1.55h0l.21-1.85a1.8,1.8,0,0,1-.55-1.08.86.86,0,0,1,.75-.72l0-.28-.23-.19c-.4-.38-.13-.85.37-1.08l.18-1.56a11.68,11.68,0,0,0,1.52-1.81v0a4.26,4.26,0,0,0,.32-.73,3,3,0,0,1,.46,0,5.29,5.29,0,0,1,2.56.72c.65,1.12,1.64,2.47,3.27,2.44,1.33,0,1.32-.66.63-2a20.26,20.26,0,0,0-2-3.66c-.49-.63-2.41-1.49-4-2.12l-1.76-.69L443,160c-1.11-.38-2.07-.31-4.15,0a7.15,7.15,0,0,1-3.94-.23c-1.08-.3-8.93-5.44-8.93-5.44C419.79,156.3,417.45,160,418.74,165.31Z" style="fill:#ffa8a7"></path><path d="M436.54,170.16a9.74,9.74,0,0,0,4.9-.22,1,1,0,0,1,.51-.47l.18-1.56C441,169.49,438.61,170.21,436.54,170.16Z" style="fill:#f28f8f"></path><path d="M400.4,115.84c7.23,1.71,9,5.12,12.6,17.54,3.07,10.67,4.78,15.59,4.78,15.59l8.2,5.2s-10,1.64-9.14,11.17a63.43,63.43,0,0,1-7-2.73c-5.34-2.31-6.2-3.52-7.84-8.47-2.09-6.31-4.34-12.55-4.34-12.55s-3.12-8.62-3.32-13.38a20.92,20.92,0,0,1,3.6-13Z" style="fill:#37474f"></path><path d="M423,151.54c1.69.37,4.44,2.47,5.18,3.08a.86.86,0,0,1,.16,1.34l-1.16-.68a10.55,10.55,0,0,0-5.75,3.74,10.91,10.91,0,0,0-2.19,6.26l1.23.58a1.41,1.41,0,0,1-1.74.82c-2.5-.9-3.95-1.54-4.65-1.86s-3.76-1.29-.12-8.31A8.71,8.71,0,0,1,423,151.54Z" style="fill:#455a64"></path></g></g></g><g id="freepik--Sheep--inject-102"><g id="freepik--sheep--inject-102"><g id="freepik--Leg--inject-102"><path d="M276.88,279.77a1.46,1.46,0,0,1-1.47.27,2.12,2.12,0,0,1-.71-.5c-1.44-1.69,0-4.33-1.19-6.23-.5-.84-1.44-1.38-1.78-2.29-.52-1.39.65-2.49,1.06-3.7a15.27,15.27,0,0,0,.45-1.89,28,28,0,0,0,.44-4.92,78.26,78.26,0,0,0-2.16-17l7.26,1.35s0,10.08.43,16.6a13.89,13.89,0,0,0,1.77,6.44,20.57,20.57,0,0,0,4.15,5.26,1.13,1.13,0,0,1,.35.46.77.77,0,0,1-.48.86,3.63,3.63,0,0,1-1,.21,7,7,0,0,0-3.76,2c-1.06,1-2,2.09-3.16,3Z" style="fill:#455a64"></path><path d="M278.69,272c-2.2-1.12-4.26-2.13-3.9-4.88a49.92,49.92,0,0,0,.41-11.84c-.53-4,.39-6,.4-6a20.23,20.23,0,0,0,2.39.39q.42,0,.84,0c-.05-2.8-.05-4.8-.05-4.8l-7.26-1.35a78.26,78.26,0,0,1,2.16,17,28,28,0,0,1-.44,4.92,15.27,15.27,0,0,1-.45,1.89c-.4,1.21-1.58,2.31-1.06,3.7.34.91,1.28,1.45,1.78,2.29,1.15,1.9-.25,4.54,1.19,6.23a2.12,2.12,0,0,0,.71.5,1.46,1.46,0,0,0,1.47-.27l.16-.11.2-.17a3.18,3.18,0,0,1,1.15-3.65C280.85,274,280.89,273.08,278.69,272Z" style="opacity:0.05"></path><path d="M280.91,275.47s1.86-2.63,4.22-2.34c6.15,3.93,2.75,8.37,2.75,8.37a11,11,0,0,1-4.76-2.39C280.74,277.11,280.91,275.47,280.91,275.47Z" style="fill:#263238"></path><path d="M276.16,280.71c-1.14-.64-2.09-1.47-2-2.4A3.74,3.74,0,0,1,275.6,276a9.54,9.54,0,0,1,2.45-1.33,4.48,4.48,0,0,1,4.56.53,6,6,0,0,1,1.76,2.93,10,10,0,0,1,.16,5.36,26.28,26.28,0,0,1-5.4-1.45A18.62,18.62,0,0,1,276.16,280.71Z" style="fill:#37474f"></path><path d="M292.3,212.64q-.1.75-.27,1.47a5.39,5.39,0,0,1,1.82,7.08,3.43,3.43,0,0,1-.49,6.43,3.87,3.87,0,0,1-1.49,6.86,4.14,4.14,0,0,1-2.36,6.22,4.76,4.76,0,0,1-4,6.77,3.93,3.93,0,0,1-6.11,4,3,3,0,0,1-1.88,2.84,3.82,3.82,0,0,1-2.57.25c-.41-.17-.61-.72-1-.86-1.27-.47-2.62.48-4-.29a3.06,3.06,0,0,1-1.58-3.23,3.33,3.33,0,0,1-2.1-6.12,7.77,7.77,0,0,1-3.41-3.37c-.6-1.52.1-3.64,1.7-3.91a4,4,0,0,1-1.45-6.86,3.88,3.88,0,0,1-2-7c-1.08-.49-2.27-1.11-2.61-2.24a3.13,3.13,0,0,1-.07-1.18,5.23,5.23,0,0,1,2.17-3.67,3.69,3.69,0,0,1-2.65-2.68,3.74,3.74,0,0,1,.39-2.62,9.82,9.82,0,0,1,1.51-1.61c-1.56-1-1.45-3.32-.68-5,1.8-3.9,5.94-6.23,10.12-7.21,7.82-1.82,17.4.32,21.47,7.9A13.48,13.48,0,0,1,292.3,212.64Z" style="fill:#e0e0e0"></path></g><g id="freepik--leg--inject-102"><path d="M224.7,252.59a1.77,1.77,0,0,1-1.61.39,1.48,1.48,0,0,1-.56-.43c-1.45-1.69-.05-4.52-1.2-6.43-.5-.83-1.45-1.37-1.78-2.29-.52-1.38.65-2.48,1-3.69a13.7,13.7,0,0,0,.46-1.89,28.94,28.94,0,0,0,.44-4.92,77.66,77.66,0,0,0-2.17-17l7.27,1.35s0,10.08.43,16.6a13.89,13.89,0,0,0,1.77,6.44,20.7,20.7,0,0,0,4.14,5.26,1.07,1.07,0,0,1,.36.46.77.77,0,0,1-.48.86,3.32,3.32,0,0,1-1,.2,7.14,7.14,0,0,0-3.75,2c-1.07,1-2,2.09-3.16,3Z" style="fill:#455a64"></path><path d="M226.51,244.78c-2.2-1.12-4.27-2.13-3.9-4.88a50,50,0,0,0,.4-11.84c-.52-4,.4-5.95.41-6a19.9,19.9,0,0,0,2.39.39c.27,0,.56,0,.83,0,0-2.8,0-4.8,0-4.8l-7.27-1.35a77.66,77.66,0,0,1,2.17,17,28.94,28.94,0,0,1-.44,4.92,13.7,13.7,0,0,1-.46,1.89c-.4,1.21-1.57,2.31-1,3.69.33.92,1.28,1.46,1.78,2.29,1.15,1.91-.25,4.74,1.2,6.43a1.48,1.48,0,0,0,.56.43,1.77,1.77,0,0,0,1.61-.39l.16-.11.2-.17a3.18,3.18,0,0,1,1.15-3.65C228.66,246.83,228.71,245.9,226.51,244.78Z" style="opacity:0.05"></path><path d="M228.73,248.28s1.85-2.63,4.21-2.33c6.16,3.93,2.76,8.37,2.76,8.37a10.9,10.9,0,0,1-4.76-2.39C228.56,249.93,228.73,248.28,228.73,248.28Z" style="fill:#263238"></path><path d="M224,253.53c-1.13-.64-2.08-1.47-2-2.4a3.67,3.67,0,0,1,1.41-2.33,9.38,9.38,0,0,1,2.45-1.33,4.48,4.48,0,0,1,4.56.53,5.85,5.85,0,0,1,1.6,3,8.4,8.4,0,0,1-.21,4.91,27.13,27.13,0,0,1-4.87-1A19,19,0,0,1,224,253.53Z" style="fill:#37474f"></path><path d="M240.49,189a3.19,3.19,0,0,1-.26,6.1,3.43,3.43,0,0,1-1.14,6.36,17.84,17.84,0,0,0,.86,2.24,4.66,4.66,0,0,1-2.67,5.81,3.52,3.52,0,0,1-1.64,5.56,9.62,9.62,0,0,1,.27,4.16c-.33,1.55-1.69,3.07-3.38,2.72.86,3.64.36,8.95-4.95,6.12a4.35,4.35,0,0,1-2.75,3.51,4.3,4.3,0,0,1-3.15-.27c-.22-.09-2.41-1.72-2.18-1.83a4.26,4.26,0,0,1-3.72,0,3.07,3.07,0,0,1-1.58-3.23,3.33,3.33,0,0,1-2.1-6.12,7.74,7.74,0,0,1-3.41-3.38c-.6-1.51.1-3.63,1.7-3.9a4,4,0,0,1-1.45-6.86,3.88,3.88,0,0,1-2-7c-1.08-.5-2.27-1.11-2.61-2.25a2.88,2.88,0,0,1-.07-1.17,5.2,5.2,0,0,1,2.17-3.67,3.71,3.71,0,0,1-2.65-2.69,3.66,3.66,0,0,1,.39-2.61c.08-.14,1.39-1.69,1.51-1.61-1.56-1-1.45-3.32-.68-5,1.79-3.9,5.94-6.24,10.12-7.21a24.65,24.65,0,0,1,15.37,1.41,23.56,23.56,0,0,1,8.79,6,11.15,11.15,0,0,1,2.55,4.56A5.33,5.33,0,0,1,240.49,189Z" style="fill:#e0e0e0"></path></g><g id="freepik--Tail--inject-102"><path d="M207.4,162c-1.5-2.45-4.59-3.5-7.47-3.53a3.57,3.57,0,0,0-1.65.27,1.49,1.49,0,0,0-.89,1.33,9.81,9.81,0,0,0-5.84-.52A5,5,0,0,0,188.8,161a2.63,2.63,0,0,0-.5,2.91c-2.82-.55-6.06.49-7.55,2.95a3.79,3.79,0,0,0-.61,2.16c.11,1.63,1.6,2.78,3,3.59a10.65,10.65,0,0,0-3.92,3.08,6.15,6.15,0,0,0-1.22,4.74,4.39,4.39,0,0,0,3.22,3.49,5.13,5.13,0,0,0,6.55,7.88,4,4,0,1,0,7-3.87c1.46,1.17,3.84.47,4.88-1.1a6.21,6.21,0,0,0,.33-5.41,3.78,3.78,0,0,0,4.33,1.19,4.29,4.29,0,0,0,2.27-4.81,1.68,1.68,0,0,0,1.56.14,1.43,1.43,0,0,0,.46-.54c1.42-2.48.93-5.26.68-8C209.09,167,208.69,164.08,207.4,162Z" style="fill:#e0e0e0"></path></g><path id="freepik--Body--inject-102" d="M292.17,210a4.76,4.76,0,0,1,.62,2.2,8,8,0,0,1-2.67,5.64c.47-.46,2.09,1.92,2.22,2.23a4.77,4.77,0,0,1,.24,3.82,4,4,0,0,1-3.11,2.33,5.94,5.94,0,0,1,.71,5.41c-.74,1.86-3.14,3-5.06,3a4.46,4.46,0,0,1-.23,3.95,4.61,4.61,0,0,1-4,2.15,5,5,0,0,1-.07,5.31,6,6,0,0,1-4.75,2.6,5.66,5.66,0,0,1-.92,4.92,5.82,5.82,0,0,1-3.35,2.07c-.81.2-.75,0-1,.76-.16.5-.11,1-.31,1.55a4.56,4.56,0,0,1-4.91,2.59,12.21,12.21,0,0,1-5.24-2c-3.29,2.38-7.31.21-9.44-2.76a24.59,24.59,0,0,1-3.05-6.93,7.59,7.59,0,0,1-9.06-8.23,7,7,0,0,1-9.7-5.23,5.43,5.43,0,0,1-8.94-1.95,5.51,5.51,0,0,1-8.8-3.88,4.74,4.74,0,0,1-6.77-5.68c-2.53.32-4.75-1.56-6.44-3.23-.49-.48-3.42-5.86-1.82-6.16a5.55,5.55,0,0,1-5.84-3.59,8.8,8.8,0,0,1,.69-7.18,4.78,4.78,0,0,1-4.43-7.34c-2.39-1.19-4.53-3.34-4.74-6s2.32-5.45,4.89-4.77a10.65,10.65,0,0,1-.47-6.4,5.73,5.73,0,0,1,4.49-4.22,6.37,6.37,0,0,1,9.07-7.51c-.4-2.27,1.3-4.55,3.45-5.36a9.16,9.16,0,0,1,6.73.51c2-5.69,8.47-1.89,12.2-3.93a6.73,6.73,0,0,1,6.72.24,17,17,0,0,0,2.92,2c2.6,1,6.15-.88,8,1.19.42.46.69,1.08,1.24,1.36a3.12,3.12,0,0,0,1.55.15,7.7,7.7,0,0,1,7.34,5,5.89,5.89,0,0,1,7,5.11,4.27,4.27,0,0,1,4.85.18,12.54,12.54,0,0,1,3.34,3.92c1.75-2.2,5.16-2.58,7.69-1.34,3.22,1.58,4.48,5.07,6.23,7.94,2.9,4.76,12.29,9.14,7.37,16a4.31,4.31,0,0,1,2.28,7.53A3.86,3.86,0,0,1,292.17,210Z" style="fill:#f5f5f5"></path><path id="freepik--body--inject-102" d="M225.54,158.88a5.66,5.66,0,0,1,3,.86c.31.21.62.45,1,.71a8.09,8.09,0,0,0,2.15,1.35,6.55,6.55,0,0,0,2.39.38c.56,0,1.12,0,1.65-.08s1-.07,1.44-.07a2.59,2.59,0,0,1,2.15.7c.1.11.2.25.31.4a3.51,3.51,0,0,0,1.21,1.18,3,3,0,0,0,1.35.28h.92a6.69,6.69,0,0,1,6.13,4.3l.31.85.88-.22a3.83,3.83,0,0,1,1-.12,5,5,0,0,1,4.81,4.33l.13,1.87,1.48-1.15a2.52,2.52,0,0,1,1.51-.47,4,4,0,0,1,2.18.69,11.74,11.74,0,0,1,3,3.63l.75,1.19.88-1.1a4.81,4.81,0,0,1,3.84-1.67,6,6,0,0,1,2.63.6c2.23,1.09,3.43,3.27,4.69,5.59.36.65.73,1.33,1.13,2a23.76,23.76,0,0,0,3.79,4.3c4.12,4,6.41,6.71,3.61,10.62l-1,1.37,1.66.21a3.3,3.3,0,0,1,1.75,5.77l-2,1.73,2.63,0a2.87,2.87,0,0,1,2.38,1.61,3.69,3.69,0,0,1,.49,1.74c0,2.14-1.47,4-2.38,4.9l1.42,1.42a.83.83,0,0,1-.56.23.55.55,0,0,1-.25-.05,7.64,7.64,0,0,1,1.4,1.73,3.72,3.72,0,0,1,.24,3,3,3,0,0,1-2.32,1.74l-1.61.21.91,1.34a4.92,4.92,0,0,1,.61,4.48c-.57,1.45-2.59,2.35-4.13,2.35h-1.38l.43,1.31A3.43,3.43,0,0,1,284,238a3.6,3.6,0,0,1-3,1.67h-.1l-1.95-.06,1.08,1.62a3.9,3.9,0,0,1-.08,4.2,5,5,0,0,1-4,2.15l-1.26.06.35,1.21a4.66,4.66,0,0,1-.76,4,4.81,4.81,0,0,1-2.78,1.71l-.32.07c-.91.18-1.13.56-1.38,1.36a4.45,4.45,0,0,0-.16.88,2.75,2.75,0,0,1-.12.6,3.56,3.56,0,0,1-3.41,2l-.48,0a11,11,0,0,1-4.8-1.87l-.57-.35-.54.39a4.16,4.16,0,0,1-2.48.83,7.44,7.44,0,0,1-5.57-3.36,23.88,23.88,0,0,1-2.91-6.65l-.27-.85-.88.17a6.39,6.39,0,0,1-1.25.12,6.58,6.58,0,0,1-6.61-7.26L240,239l-1.57.7a5.94,5.94,0,0,1-2.41.5,5.91,5.91,0,0,1-5.9-5l-.32-1.92-1.38,1.38a4.59,4.59,0,0,1-3.18,1.3,3.82,3.82,0,0,1-.9-.1,4.51,4.51,0,0,1-3.21-2.78l-.47-1.26-1.07.8a4.56,4.56,0,0,1-2.74.89,4.44,4.44,0,0,1-1.79-.36,4.64,4.64,0,0,1-2.67-3.7l-.15-1.52-1.33.74a3.7,3.7,0,0,1-1.78.44,3.7,3.7,0,0,1-3.56-4.92l.52-1.52-1.59.2a3.4,3.4,0,0,1-.45,0c-1.89,0-3.67-1.51-5.15-3-.58-.69-2.18-4-2-4.79a.5.5,0,0,1-.35.31l-.36-2a3.08,3.08,0,0,1-.61.05,4.7,4.7,0,0,1-4.12-3,7.77,7.77,0,0,1,.64-6.34l.84-1.62-1.81.16h-.29a3.78,3.78,0,0,1-3.21-5.82l.6-.94-1-.5c-1.9-.94-4-2.8-4.18-5.18a3.72,3.72,0,0,1,1-2.77,2.9,2.9,0,0,1,2.06-1,2,2,0,0,1,.54.07l1.81.48-.62-1.78a9.59,9.59,0,0,1-.45-5.79,4.72,4.72,0,0,1,3.65-3.5l1.18-.15-.35-1.14a5.52,5.52,0,0,1,1.71-5.73,5.41,5.41,0,0,1,3.46-1.2,5.31,5.31,0,0,1,2.48.59l1.8,1-.35-2c-.32-1.85,1.22-3.65,2.83-4.25a6,6,0,0,1,2.15-.37,10,10,0,0,1,3.83.86l1,.42.36-1c.8-2.24,2.31-2.67,4.66-2.67.5,0,1,0,1.51,0s1.07,0,1.6,0a8.26,8.26,0,0,0,4-.8,5.62,5.62,0,0,1,2.67-.66m0-1a6.62,6.62,0,0,0-3.15.78,7.14,7.14,0,0,1-3.49.68c-1,0-2.09-.08-3.11-.08-2.38,0-4.56.43-5.6,3.33a10.85,10.85,0,0,0-4.22-.94,7.2,7.2,0,0,0-2.51.43c-2.15.81-3.85,3.09-3.45,5.36a6.3,6.3,0,0,0-2.95-.71,6.32,6.32,0,0,0-6.12,8.22,5.73,5.73,0,0,0-4.49,4.22,10.65,10.65,0,0,0,.47,6.4,3.11,3.11,0,0,0-.79-.1c-2.28,0-4.28,2.49-4.1,4.87.21,2.66,2.35,4.81,4.74,6a4.78,4.78,0,0,0,4,7.36l.38,0a8.8,8.8,0,0,0-.69,7.18,5.72,5.72,0,0,0,5.05,3.66,4.22,4.22,0,0,0,.79-.07c-1.6.3,1.33,5.68,1.82,6.16,1.56,1.54,3.57,3.27,5.87,3.27a3.64,3.64,0,0,0,.57,0,4.87,4.87,0,0,0,1.44,5.16,4.76,4.76,0,0,0,3.07,1.09,4.68,4.68,0,0,0,2.26-.57,5.61,5.61,0,0,0,3.26,4.52,5.35,5.35,0,0,0,2.2.45,5.59,5.59,0,0,0,3.34-1.09,5.53,5.53,0,0,0,3.94,3.42,5.17,5.17,0,0,0,1.11.12,5.54,5.54,0,0,0,3.89-1.59,6.93,6.93,0,0,0,6.89,5.82,6.81,6.81,0,0,0,2.81-.59,7.58,7.58,0,0,0,7.61,8.37,7.06,7.06,0,0,0,1.45-.14,24.59,24.59,0,0,0,3.05,6.93c1.49,2.09,3.92,3.78,6.38,3.78a5.13,5.13,0,0,0,3.06-1,12.21,12.21,0,0,0,5.24,2l.57,0a4.43,4.43,0,0,0,4.34-2.62c.2-.51.15-1.05.31-1.55.22-.72.16-.56,1-.76a5.82,5.82,0,0,0,3.35-2.07,5.66,5.66,0,0,0,.92-4.92,6,6,0,0,0,4.75-2.6,5,5,0,0,0,.07-5.31H281a4.62,4.62,0,0,0,3.86-2.15,4.46,4.46,0,0,0,.23-3.95h0c1.92,0,4.32-1.12,5.06-3a5.94,5.94,0,0,0-.71-5.41,4,4,0,0,0,3.11-2.33,4.77,4.77,0,0,0-.24-3.82c-.12-.29-1.48-2.29-2.07-2.29a.2.2,0,0,0-.15.06,8,8,0,0,0,2.67-5.64,4.76,4.76,0,0,0-.62-2.2,3.86,3.86,0,0,0-3.23-2.12,4.31,4.31,0,0,0-2.28-7.53c4.92-6.88-4.47-11.26-7.37-16-1.75-2.87-3-6.36-6.23-7.94a7.08,7.08,0,0,0-3.07-.7,5.81,5.81,0,0,0-4.62,2,12.54,12.54,0,0,0-3.34-3.92,5,5,0,0,0-2.73-.86,3.42,3.42,0,0,0-2.12.68,6,6,0,0,0-5.81-5.26,4.81,4.81,0,0,0-1.2.15,7.72,7.72,0,0,0-7.08-5h-.26l-.66,0a1.91,1.91,0,0,1-.89-.17c-.55-.28-.82-.9-1.24-1.36a3.61,3.61,0,0,0-2.89-1c-1,0-2.06.15-3.09.15a5.68,5.68,0,0,1-2-.31,17,17,0,0,1-2.92-2,6.64,6.64,0,0,0-3.57-1Z" style="fill:#e0e0e0"></path><g id="freepik--head--inject-102"><path d="M303.92,174.08c-1.68-1.79-3.87-1.91-6-4.89-1.29-1.78-2-3.52-5.75-6.28,0,0,5.55.18,8.27,1.42s5.61,5.4,5.27,7.72S303.92,174.08,303.92,174.08Z" style="fill:#ffc4c3"></path><path d="M293.11,163.37c5.24.74,8.9,4.81,8.5,6.71s-1.61-.33-3.2-2.72A10.35,10.35,0,0,0,293.11,163.37Z" style="fill:#f28f8f"></path><path d="M293.52,158.43a2.59,2.59,0,0,0-.73,4.84,36.6,36.6,0,0,0,5.22,2c4.23,1.4,6.76,3.8,7.12,6.27s-1.21,2.55-1.21,2.55c.45.64,3.42.59,3.34-3.36-.09-4.3-3.22-6.7-6.47-8.41-2.51-1.32-5.35-1.91-7.22-3.89Z" style="fill:#455a64"></path><path d="M248.47,178.34a3.79,3.79,0,0,1-.57-2.54,4.05,4.05,0,0,1,4.59-3.26,5.61,5.61,0,0,1-2.64-5c.2-1.95,2.13-3.71,4.06-3.32a3.58,3.58,0,0,1,.56-4.84,5.45,5.45,0,0,1,5.11-.86,3.62,3.62,0,0,1,1.83-4.64,5,5,0,0,1,5.19.87c-.29-1.52,1.34-2.85,2.89-2.86s2.77,1.56,4.22,1.18c.75-.2,1.36-.95,2-1.35a8.73,8.73,0,0,1,2.39-1,3,3,0,0,1,2.33.15,3.55,3.55,0,0,1,1.27,2.29,8.13,8.13,0,0,1,3.73-.72,2.67,2.67,0,0,1,1.39.36c.85.54,1,1.69,1.08,2.69,1.62-.4,3.55-.69,4.78.43s1.12,3.19.85,4.9a4.5,4.5,0,0,1,3.08,1.42,2.55,2.55,0,0,1,.14,3.19,4.09,4.09,0,0,1-.39,6.4c-1.47,1-2.84,1.52-3.5,3.32-.79,2.16-.7,4.45-.91,6.66-.28,2.93,1.18,5.14,1.53,7.93.16,1.28.74,2.46.87,3.72.06.55-.37,3.33-1.47,3a3.64,3.64,0,0,1-.22,7,3.21,3.21,0,1,1-3.34,5.48,3.25,3.25,0,0,1-6.17,1.94,5.58,5.58,0,0,1-6.43.89,9.7,9.7,0,0,1-4.4-5.2,7,7,0,0,1-9.54-5.82,6.45,6.45,0,0,1-6.18-3.37,11.17,11.17,0,0,1-1.06-7.25,6.71,6.71,0,0,1-4.43-1.54,5,5,0,0,1-1.24-4.14,12.21,12.21,0,0,1,1.49-4.2A4,4,0,0,1,248.47,178.34Z" style="fill:#f0f0f0"></path><path d="M272.48,190.26a15.64,15.64,0,0,1-1.55-.86,11.36,11.36,0,0,1-5.21-9.66,13.19,13.19,0,0,1,4.06-9.46c2.34-2.34,5.81-4.33,5.53-8.09a11.22,11.22,0,0,0,4.95,1.51,5.27,5.27,0,0,0,2.78-.45,2.56,2.56,0,0,0,1.43-2.29,9.24,9.24,0,0,0,4.08,3c1.52.58,3.27.33,4.66,1.18a5.39,5.39,0,0,1,2.2,2.54c.75,1.81.48,4,1.35,5.74A95,95,0,0,0,301.6,182a6.22,6.22,0,0,1,1.19,2.76,4.52,4.52,0,0,1-.65,3,24.12,24.12,0,0,1-.22,2.84,2.93,2.93,0,0,1-1.56,2.17,5.69,5.69,0,0,1-.92,1.49,5.13,5.13,0,0,1-1,.93,10,10,0,0,1-10,.71c-.94-.43-1.85-.95-2.79-1.38C281.45,192.59,276.58,192.25,272.48,190.26Z" style="fill:#455a64"></path><path d="M301.21,184.23a10.66,10.66,0,0,0-7.07.85l5.26,4.26S301.45,186.45,301.21,184.23Z" style="opacity:0.1"></path><path d="M291.69,191.63a4.93,4.93,0,0,0,6.48,1c1-.74.91-2.16.63-3.17l.88-.07c-.15,1-.26,2.46.54,2.79a1.28,1.28,0,0,0,1.23-.35,3.36,3.36,0,0,1-2.67,1.38C297.27,194.39,293,194.93,291.69,191.63Z" style="fill:#263238"></path><path d="M249.2,178.21c1.78-1.69,4-1.69,6.29-4.53,1.39-1.7,2.17-3.41,6.1-5.94,0,0-5.55-.14-8.34.94s-5.9,5.07-5.7,7.41S249.2,178.21,249.2,178.21Z" style="fill:#ffc4c3"></path><path d="M260.61,168.14c-5.28.44-9.17,4.29-8.88,6.22s1.63-.24,3.36-2.54A10.27,10.27,0,0,1,260.61,168.14Z" style="fill:#f28f8f"></path><path d="M260.47,163.18a2.59,2.59,0,0,1,.46,4.88,35.86,35.86,0,0,1-5.33,1.68c-4.3,1.16-7,3.42-7.46,5.86s1.06,2.61,1.06,2.61c-.41.71-3.39-.26-3-3.7.46-4.27,3.48-6.35,6.82-7.87,2.58-1.18,5.44-1.6,7.43-3.47Z" style="fill:#455a64"></path><path d="M299.33,188.66a6.72,6.72,0,0,0,.8-3.32c.13-1.49,1.63-1.45,1.87-.09a3.57,3.57,0,0,1-1,3.18,10.42,10.42,0,0,1-1.21,1.09.86.86,0,0,1-1.1,0,16.37,16.37,0,0,0-3.45-2.06c-1.5-.77-1.95-1.82-1.17-2.32.52-.34,1.62-.31,3,.86A14.75,14.75,0,0,1,299.33,188.66Z" style="fill:#37474f"></path><path d="M280.57,174.15a4.17,4.17,0,0,0-1.89-.14,3.2,3.2,0,0,0-1,.34,2.21,2.21,0,0,0-.74.63s0,.2,0,.18a6.65,6.65,0,0,1,1-.23,7,7,0,0,1,1.07-.12,3.62,3.62,0,0,1,1.45.16,4.9,4.9,0,0,1,1.39.8c.62.44.72.53,1.17.84,0,0,.06-.07.06-.1A3.87,3.87,0,0,0,280.57,174.15Z" style="fill:#263238"></path><path d="M281.57,176a1.74,1.74,0,1,1-1.74-1.73A1.73,1.73,0,0,1,281.57,176Z" style="fill:#263238"></path></g><g id="freepik--leg--inject-102"><path d="M199,265.14a1.44,1.44,0,0,1-1.44.31,2.77,2.77,0,0,1-.81-.53c-1.45-1.69,0-4.34-1.12-6.25-.51-.83-1.45-1.38-1.79-2.29-.51-1.38.66-2.48,1.06-3.69a15.27,15.27,0,0,0,.45-1.89,28.05,28.05,0,0,0,.45-4.92,78.27,78.27,0,0,0-2.17-17l7.26,1.34s0,10.09.44,16.61a13.68,13.68,0,0,0,1.77,6.44,20.48,20.48,0,0,0,4.14,5.26,1.2,1.2,0,0,1,.36.45.8.8,0,0,1-.48.87,3.37,3.37,0,0,1-1,.2,7.26,7.26,0,0,0-3.76,2c-1.06,1-2,2.1-3.15,3Z" style="fill:#455a64"></path><path d="M200.79,257.33c-2.2-1.12-4.27-2.13-3.91-4.89a49.29,49.29,0,0,0,.41-11.83c-.52-4,.4-6,.41-6a20,20,0,0,0,2.38.39q.42,0,.84,0c0-2.8,0-4.81,0-4.81l-7.26-1.34a78.27,78.27,0,0,1,2.17,17,28.05,28.05,0,0,1-.45,4.92,15.71,15.71,0,0,1-.45,1.89c-.4,1.21-1.57,2.31-1.06,3.69.34.91,1.28,1.46,1.78,2.29,1.16,1.91-.32,4.56,1.13,6.25a2.77,2.77,0,0,0,.81.53,1.44,1.44,0,0,0,1.44-.31l.16-.12.2-.16a3.19,3.19,0,0,1,1.14-3.65C202.94,259.38,203,258.44,200.79,257.33Z" style="opacity:0.05"></path><path d="M203,260.83s1.86-2.63,4.22-2.33c6.15,3.93,2.75,8.37,2.75,8.37a11,11,0,0,1-4.76-2.39C202.83,262.48,203,260.83,203,260.83Z" style="fill:#263238"></path><path d="M198.25,266.08c-1.13-.64-2.09-1.47-2-2.4a3.7,3.7,0,0,1,1.42-2.33,9.22,9.22,0,0,1,2.45-1.33,4.48,4.48,0,0,1,4.55.52,5.9,5.9,0,0,1,1.61,3,8.35,8.35,0,0,1-.22,4.92,28.61,28.61,0,0,1-4.87-1A20.5,20.5,0,0,1,198.25,266.08Z" style="fill:#37474f"></path><path d="M217.86,222.3a8.51,8.51,0,0,0-1.42-5.24,4.92,4.92,0,0,0,.52-7.44c-.08-.07-.18-.15-.16-.26a.32.32,0,0,1,.11-.17,2.21,2.21,0,0,0,.4-2.33,2.92,2.92,0,0,0-2.71-1.53,9.09,9.09,0,0,0-3,.76c-.8.28-1.8-.17-2.64-.29a10.37,10.37,0,0,0-5.55.51c-3,1.32-5.26,3.88-7.25,6.49a10,10,0,0,0-1.85,3.27,9.68,9.68,0,0,0-.11,3.48,35.84,35.84,0,0,0,.71,4.37,5.08,5.08,0,0,0,2.05.18,4.74,4.74,0,0,0,6.77,5.68,5.51,5.51,0,0,0,8.8,3.88,5.41,5.41,0,0,0,1.39,2.05,3.17,3.17,0,0,0,.51-1.76,5.06,5.06,0,0,0-.47-1.77,1.37,1.37,0,0,1-.15-.86,1.94,1.94,0,0,1,.53-.69c1.09-1.18.77-3.23.09-4.52A4.26,4.26,0,0,0,217.86,222.3Z" style="opacity:0.1"></path><path d="M215.71,203.3a3.19,3.19,0,0,1-.26,6.1,3.43,3.43,0,0,1-1.14,6.36,17.84,17.84,0,0,0,.86,2.24,4.66,4.66,0,0,1-2.67,5.81,3.52,3.52,0,0,1-1.64,5.56,9.62,9.62,0,0,1,.27,4.16c-.33,1.55-1.69,3.07-3.38,2.72.86,3.64.36,8.95-4.95,6.12a4.35,4.35,0,0,1-2.75,3.51,4.3,4.3,0,0,1-3.15-.27c-.22-.09-2.41-1.72-2.18-1.83a4.26,4.26,0,0,1-3.72,0,3.06,3.06,0,0,1-1.58-3.23,3.33,3.33,0,0,1-2.1-6.12,7.77,7.77,0,0,1-3.41-3.37c-.6-1.52.1-3.64,1.7-3.91a4,4,0,0,1-1.45-6.86,3.88,3.88,0,0,1-2-7c-1.08-.49-2.27-1.11-2.61-2.24a2.94,2.94,0,0,1-.07-1.18,5.2,5.2,0,0,1,2.17-3.67,3.6,3.6,0,0,1-2.26-5.3,9.41,9.41,0,0,1,1.51-1.61c-1.56-1-1.45-3.32-.68-5,1.79-3.9,5.94-6.24,10.12-7.21a24.65,24.65,0,0,1,15.37,1.41,23.56,23.56,0,0,1,8.79,5.95,11.15,11.15,0,0,1,2.55,4.56A5.33,5.33,0,0,1,215.71,203.3Z" style="fill:#f5f5f5"></path></g><g id="freepik--leg--inject-102"><path d="M250.53,295a1.47,1.47,0,0,1-1.48.27,2,2,0,0,1-.7-.5c-1.45-1.69,0-4.33-1.19-6.23-.5-.84-1.44-1.38-1.78-2.29-.52-1.39.65-2.49,1.05-3.7a13.7,13.7,0,0,0,.46-1.89,28,28,0,0,0,.44-4.92,78.34,78.34,0,0,0-2.16-17l7.26,1.35s0,10.08.43,16.61a14,14,0,0,0,1.77,6.44,20.65,20.65,0,0,0,4.14,5.25,1.07,1.07,0,0,1,.36.46.77.77,0,0,1-.48.86,3.63,3.63,0,0,1-1,.21,7.05,7.05,0,0,0-3.75,2c-1.07,1-2,2.1-3.16,3A.91.91,0,0,1,250.53,295Z" style="fill:#455a64"></path><path d="M252.34,287.2c-2.2-1.12-4.27-2.12-3.9-4.88a50.43,50.43,0,0,0,.41-11.84c-.53-4,.39-6,.4-6a18.36,18.36,0,0,0,2.39.39,7.68,7.68,0,0,0,.83,0c0-2.79,0-4.8,0-4.8l-7.27-1.35a77.74,77.74,0,0,1,2.17,17,28,28,0,0,1-.44,4.92,13.7,13.7,0,0,1-.46,1.89c-.4,1.21-1.57,2.31-1.05,3.7.34.91,1.28,1.45,1.78,2.29,1.15,1.9-.26,4.54,1.19,6.23a2,2,0,0,0,.7.5,1.47,1.47,0,0,0,1.48-.27.91.91,0,0,0,.16-.11l.2-.17a3.18,3.18,0,0,1,1.15-3.65C254.49,289.26,254.54,288.32,252.34,287.2Z" style="opacity:0.05"></path><path d="M254.56,290.71s1.85-2.63,4.21-2.34c6.16,3.93,2.76,8.38,2.76,8.38a11,11,0,0,1-4.76-2.4C254.39,292.35,254.56,290.71,254.56,290.71Z" style="fill:#263238"></path><path d="M249.8,296c-1.13-.65-2.08-1.47-2-2.41a3.7,3.7,0,0,1,1.41-2.33,9.35,9.35,0,0,1,2.45-1.32,4.46,4.46,0,0,1,4.56.52,5.81,5.81,0,0,1,1.6,3,9.43,9.43,0,0,1,.28,5.2,27.49,27.49,0,0,1-5.36-1.33A19.82,19.82,0,0,1,249.8,296Z" style="fill:#37474f"></path><path d="M270.13,236.55a.33.33,0,0,1,0-.14.45.45,0,0,1,.12-.21,3.7,3.7,0,0,0,.74-2.94,4.64,4.64,0,0,1-2.37.86c-2,.19-4-.44-6-.35-5.06.24-10.58,1.62-14,5.61a17.26,17.26,0,0,0-3.83,9,7.81,7.81,0,0,0,.75,5.23c.91,1.42,1.81,1.38,3.3,1.31s1.52,1,2.27,2.18a6,6,0,0,0,3.57,2.56,7,7,0,0,0,5.67-1.18,12.21,12.21,0,0,0,5.24,2,6.71,6.71,0,0,0,1.55-.05,9,9,0,0,0-.6-3.51,4.73,4.73,0,0,0,3.19-2.4,2.92,2.92,0,0,0-.91-3.65c.57.35,1.39-2.59,1.46-2.88a5.31,5.31,0,0,0-.57-4.26,4.69,4.69,0,0,0,1.69-4.9,4.24,4.24,0,0,0-1.1-2A.7.7,0,0,1,270.13,236.55Z" style="opacity:0.1"></path><path d="M269.27,230a3.19,3.19,0,0,1-.26,6.1,3.5,3.5,0,0,1,1.68,3.58,4.1,4.1,0,0,1-3,3.1,4.55,4.55,0,0,1,1,1.92,4.66,4.66,0,0,1-2.67,5.81,3.52,3.52,0,0,1-1.64,5.56,9.62,9.62,0,0,1,.27,4.16c-.33,1.55-1.69,3.07-3.38,2.72.86,3.64.36,8.95-4.95,6.12a4.35,4.35,0,0,1-2.75,3.51,4.3,4.3,0,0,1-3.15-.27c-.22-.09-2.41-1.72-2.18-1.83a4.26,4.26,0,0,1-3.72,0,3.07,3.07,0,0,1-1.58-3.23,3.33,3.33,0,0,1-2.1-6.12,7.77,7.77,0,0,1-3.41-3.37c-.6-1.52.1-3.64,1.7-3.91a4,4,0,0,1-1.45-6.86,3.88,3.88,0,0,1-2-7c-1.08-.5-2.27-1.11-2.61-2.25a2.88,2.88,0,0,1-.07-1.17,5.2,5.2,0,0,1,2.17-3.67,3.6,3.6,0,0,1-2.26-5.3A9.41,9.41,0,0,1,234.5,226c-1.56-1-1.45-3.32-.68-5,1.79-3.9,5.94-6.24,10.12-7.21a24.65,24.65,0,0,1,15.37,1.41,23.56,23.56,0,0,1,8.79,5.95,11.15,11.15,0,0,1,2.55,4.56A5.33,5.33,0,0,1,269.27,230Z" style="fill:#f5f5f5"></path></g></g></g><g id="freepik--Pig--inject-102"><g id="freepik--pig--inject-102"><path d="M345.84,351.36c.88-1.71,1.74-3.42,2.59-5.15a1.36,1.36,0,0,0,.18-1.16,1.34,1.34,0,0,0-.69-.54,19.12,19.12,0,0,0-5.15-1.8,17.88,17.88,0,0,0-3.19-.08c-4.15.12-8.38.26-12.29,1.64-1.57.56-3.22,1.48-3.7,3.08a5.92,5.92,0,0,0-.16,1.83,81.15,81.15,0,0,0,.82,9.73c.37,2.56.63,5.52,2,7.81,2.14,3.66,6.94,5,10.91,4.19a2.19,2.19,0,0,0,1.36-.65c.46-.57,0-1.58.47-2s1.78.12,2.22.2a1.23,1.23,0,0,0,.54,0c.45-.15.51-.75.51-1.22a35,35,0,0,1,2.85-14.38C345.23,352.51,345.53,352,345.84,351.36Z" style="fill:#f28f8f"></path><path d="M336.44,366.5a16.11,16.11,0,0,1-7.1-.7,11.39,11.39,0,0,1-4.37-2.75l-.11-.13a12.72,12.72,0,0,0,1.34,3.8c2.14,3.66,6.94,5,10.91,4.19a2.21,2.21,0,0,0,1.37-.65c.46-.57,0-1.58.47-2s1.77.12,2.22.2a1.19,1.19,0,0,0,.53,0c.45-.15.52-.75.51-1.22a36,36,0,0,1,.18-4A8.83,8.83,0,0,1,336.44,366.5Z" style="fill:#37474f"></path><path d="M288.09,296.58a1.24,1.24,0,0,0-1.58-.89,9.31,9.31,0,0,1-3.73.86,8,8,0,0,1-3.65-.84,7.75,7.75,0,0,1-3.92-6.24,11.42,11.42,0,0,1,.47-4,9.44,9.44,0,0,0,11.15-1.95c2-2.25,1.54-5.06-1.34-6.25a11.62,11.62,0,0,0-9.68.9,7.29,7.29,0,0,0-.8.57,8.35,8.35,0,0,1,5.1-7.2c.43-.19.81-.68.29-.75-3.18-.42-5.81,1.59-7.19,4.29a8.47,8.47,0,0,0-.78,6.82,15.13,15.13,0,0,0-1.57,4.35,14,14,0,0,0,1.11,8.51,11.48,11.48,0,0,0,8.94,6C283.51,301.22,289.44,300.5,288.09,296.58Zm-5.55-16.43c1.33,0,2.53.56,1.69,1.67a4.65,4.65,0,0,1-2.2,1.39,6.49,6.49,0,0,1-5-.54A6.62,6.62,0,0,1,282.54,280.15Z" style="fill:#f28f8f"></path><path d="M272.43,281.93a14.88,14.88,0,0,0-1.31,3.28,7.07,7.07,0,0,0,4.13,2.51,11.17,11.17,0,0,1,.43-2.22A6.79,6.79,0,0,1,272.43,281.93Z" style="opacity:0.2"></path><path d="M277.07,282.67a6.27,6.27,0,0,1,.53-.61,5.6,5.6,0,0,1-1.59-1.34,3.92,3.92,0,0,1-1-2A4.71,4.71,0,0,0,277.07,282.67Z" style="opacity:0.2"></path><path d="M325,359.53c.88-1.71,1.74-3.42,2.6-5.15a1.36,1.36,0,0,0,.18-1.16,1.4,1.4,0,0,0-.7-.54,14.1,14.1,0,0,0-8.34-1.89c-4.15.13-8.38.26-12.29,1.65-1.57.56-3.22,1.48-3.7,3.07a6,6,0,0,0-.15,1.84,81.31,81.31,0,0,0,.81,9.73c.37,2.56.63,5.52,2,7.8,2.14,3.67,6.94,5,10.91,4.2a2.29,2.29,0,0,0,1.37-.65c.46-.57,0-1.58.47-2s1.77.12,2.21.2a1.1,1.1,0,0,0,.54,0c.45-.15.52-.74.51-1.22a35,35,0,0,1,2.85-14.37C324.35,360.68,324.65,360.14,325,359.53Z" style="fill:#ffa8a7"></path><path d="M315.57,374.67a16.25,16.25,0,0,1-7.1-.7,11.51,11.51,0,0,1-4.37-2.75l-.11-.13a12.66,12.66,0,0,0,1.34,3.79c2.14,3.67,6.94,5,10.91,4.2a2.29,2.29,0,0,0,1.37-.65c.46-.57,0-1.58.47-2s1.77.12,2.21.2a1.1,1.1,0,0,0,.54,0c.45-.15.52-.74.51-1.22a33.54,33.54,0,0,1,.18-4A8.83,8.83,0,0,1,315.57,374.67Z" style="fill:#455a64"></path><path d="M285.57,361.16c0,.47-.06,1.07-.51,1.22a1.06,1.06,0,0,1-.53,0c-.45-.08-1.83-.57-2.22-.21s0,1.43-.47,2a2.27,2.27,0,0,1-1.37.65c-4,.76-8.77-.53-10.91-4.2-1.54-2.64-1.56-5.54-2.32-8.38-.91-3.41-1.7-6.85-2.3-10.33a112.84,112.84,0,0,1-1.66-21.08A38.43,38.43,0,0,1,267.57,303a10.83,10.83,0,0,1,4.41-.87,8.8,8.8,0,0,1,4.39,1.44,42.05,42.05,0,0,1,13.26,11.85c3.77,5.15,5.32,10.63,7.44,16.47a7.12,7.12,0,0,1,.54,2.95c-.17,2.44-2.27,4.24-4.21,5.74C287.27,345.33,285.46,353.66,285.57,361.16Z" style="fill:#ffa8a7"></path><path d="M285.05,358a9,9,0,0,1-5.22,2.43,16.25,16.25,0,0,1-7.1-.7,12.37,12.37,0,0,1-4.52-2.81,12.65,12.65,0,0,0,1.35,3.69c2.14,3.67,6.94,5,10.91,4.2a2.27,2.27,0,0,0,1.37-.65c.46-.57,0-1.58.47-2s1.77.13,2.22.21a1.06,1.06,0,0,0,.53,0c.45-.15.52-.75.51-1.22,0-1.28,0-2.58.13-3.88C285.46,357.49,285.26,357.81,285.05,358Z" style="fill:#455a64"></path><path d="M337.93,293.87a66.37,66.37,0,0,0-30.46-9.29,52.44,52.44,0,0,0-27.08,5.49c-22,11.46-20.05,42.19-2.3,56.8.18.15.36.3.55.44,8.11,6.41,19.26,11.23,29.6,12,7.42.56,14.61-.76,21.92-1.29a17.61,17.61,0,0,1,7.9,1.59,42.28,42.28,0,0,0,19.23,3.79c7.28-.29,15-4.37,17.84-11.61,2.5-6.28-1.21-10.16-3.87-15.38-1.31-2.57-1.48-5.54-2-8.37-1.91-9.58-8.93-16.63-16.08-22.8A118.74,118.74,0,0,0,337.93,293.87Z" style="fill:#ffa8a7"></path><path d="M338.06,359.61c-6.53-2.38-11.46-11.25-11.69-17-1.1,3.73.23,11.3,4.28,15.41A18,18,0,0,1,338.06,359.61Z" style="fill:#f28f8f"></path><path d="M286.42,352.45c-4.42-2.69-11.57-5.46-15.78-18,.77,12.49,8.23,18.15,15.25,20.95C286,354.77,286.27,353.12,286.42,352.45Z" style="fill:#f28f8f"></path><path d="M372.38,343.05c-1.2-.71-2.91-.61-4.82.47-3.68,2.07-6.69,7-6.74,10.94a4.22,4.22,0,0,0,1.74,3.9l3.14,1.86c1.2.69,2.9.59,4.8-.48,3.68-2.08,6.7-7,6.74-10.95a4.21,4.21,0,0,0-1.74-3.89Z" style="fill:#f28f8f"></path><path d="M375.5,344.9l-3.12-1.85c-1.2-.71-2.91-.61-4.82.47a13.18,13.18,0,0,0-4.08,3.79l12.06,7.14a12.15,12.15,0,0,0,1.7-5.66A4.21,4.21,0,0,0,375.5,344.9Z" style="fill:#ffc4c3"></path><ellipse cx="370.58" cy="352.54" rx="9.1" ry="5.23" transform="translate(-128.17 465.98) rotate(-56.38)" style="fill:#436917"></ellipse><ellipse cx="370.58" cy="352.54" rx="9.1" ry="5.23" transform="translate(-128.17 465.98) rotate(-56.38)" style="fill:#ffa8a7"></ellipse><path d="M368.2,356.46h0c-.44.25-.8,0-.8-.62l0-3a1.92,1.92,0,0,1,.82-1.54h0c.45-.25.81,0,.8.62l0,3A2,2,0,0,1,368.2,356.46Z" style="fill:#f28f8f"></path><path d="M367.44,352.81l0,3a1.23,1.23,0,0,0,.05.35l.18-.07a1.92,1.92,0,0,0,.82-1.54l0-3a1.23,1.23,0,0,0-.05-.35l-.18.07A1.92,1.92,0,0,0,367.44,352.81Z" style="opacity:0.15"></path><path d="M372.9,353.81h0c-.45.26-.81,0-.8-.62l0-3a2,2,0,0,1,.82-1.53h0c.45-.25.81,0,.8.62l0,3A1.9,1.9,0,0,1,372.9,353.81Z" style="fill:#f28f8f"></path><path d="M372.13,350.16l0,3a1,1,0,0,0,0,.36.85.85,0,0,0,.17-.08,1.94,1.94,0,0,0,.83-1.53l0-3a1.18,1.18,0,0,0-.05-.35.67.67,0,0,0-.18.07A2,2,0,0,0,372.13,350.16Z" style="opacity:0.15"></path><path d="M365.22,359.16c-1.65-2.32-.52-7.13,1.36-10a13.17,13.17,0,0,0-2.66,7.17c0,4,2.9,5.52,6.58,3.45a12.53,12.53,0,0,0,3.32-2.82C371.48,359.66,367,361.63,365.22,359.16Z" style="fill:#fff;opacity:0.30000000000000004"></path><path d="M350.17,337.27c.89,1.32-1.38.25-2.69,1.14s-1.17,3.4-2.06,2.09a2.87,2.87,0,0,1,4.75-3.23Z" style="fill:#37474f"></path><path d="M365.94,333c-1.58.13-2.67,2.49-2.81.91a2.88,2.88,0,1,1,5.73-.48C369,335.05,367.52,332.91,365.94,333Z" style="fill:#37474f"></path><path d="M355.57,315.07a4.23,4.23,0,0,1-.75-4.9,8.34,8.34,0,0,1,2.05-2.46c1.88-1.67,4.24-2.08,6.59-2.76a16.28,16.28,0,0,0,2.64-.95c.38-.19,2.31-1.14,2.31-1.57C368.41,305.7,355.57,315.07,355.57,315.07Z" style="fill:#f28f8f"></path><path d="M366,319.59c-2.45-3.71-10.42-4.52-10.42-4.52s.63-3.32,5.45-6.24c6-3.63,7.39-6.4,7.39-6.4S371.73,312.36,366,319.59Z" style="fill:#ffc4c3"></path><path d="M320.14,311.38c1.39,1.15,2.91,1.73,5.67,2s5.74,0,8.22.68,5,3.06,4.45,5.13c0,0-7.12,1.22-11.1-.45S320.14,313.46,320.14,311.38Z" style="fill:#f28f8f"></path><path d="M338.48,319.17c-8,2-10.92,13.49-10.92,13.49a16.94,16.94,0,0,1-8.1-10.28,15,15,0,0,1,.68-11,11,11,0,0,0,6.21,3.5C329.9,315.62,336.25,315.86,338.48,319.17Z" style="fill:#ffc4c3"></path></g></g><g id="freepik--Fence--inject-102"><g id="freepik--fence--inject-102"><g id="freepik--fence--inject-102"><polygon points="284.13 404.25 284.13 326.58 278.37 314.72 272.5 319.9 272.5 397.56 284.13 404.25" style="fill:#37474f"></polygon><polygon points="284.13 326.58 287.04 324.91 287.04 402.58 284.13 404.25 284.13 326.58" style="fill:#263238"></polygon><polygon points="278.37 314.72 281.28 312.98 287.04 324.91 284.13 326.58 278.37 314.72" style="fill:#455a64"></polygon><polygon points="241.13 379.54 241.13 301.87 235.38 290.01 229.5 295.18 229.5 372.85 241.13 379.54" style="fill:#37474f"></polygon><polygon points="241.13 301.87 244.04 300.2 244.04 377.87 241.13 379.54 241.13 301.87" style="fill:#263238"></polygon><polygon points="235.38 290.01 238.28 288.27 244.04 300.2 241.13 301.87 235.38 290.01" style="fill:#455a64"></polygon><polygon points="198.14 354.82 198.14 277.16 192.38 265.29 186.5 270.47 186.5 348.14 198.14 354.82" style="fill:#37474f"></polygon><polygon points="198.14 277.16 201.05 275.49 201.05 353.15 198.14 354.82 198.14 277.16" style="fill:#263238"></polygon><polygon points="192.38 265.29 195.29 263.56 201.05 275.49 198.14 277.16 192.38 265.29" style="fill:#455a64"></polygon><polygon points="155.14 330.11 155.14 252.44 149.38 240.58 143.51 245.76 143.51 323.43 155.14 330.11" style="fill:#37474f"></polygon><polygon points="155.14 252.44 158.05 250.78 158.05 328.44 155.14 330.11 155.14 252.44" style="fill:#263238"></polygon><polygon points="149.38 240.58 152.29 238.85 158.05 250.78 155.14 252.44 149.38 240.58" style="fill:#455a64"></polygon><polygon points="112.14 305.4 112.14 227.73 106.39 215.87 100.51 221.05 100.51 298.71 112.14 305.4" style="fill:#37474f"></polygon><polygon points="112.14 227.73 115.05 226.06 115.05 303.73 112.14 305.4 112.14 227.73" style="fill:#263238"></polygon><polygon points="106.39 215.87 109.3 214.13 115.05 226.06 112.14 227.73 106.39 215.87" style="fill:#455a64"></polygon><polygon points="100.51 252.24 112.14 258.93 112.14 254.35 100.51 247.67 100.51 252.24" style="fill:#263238"></polygon><polygon points="155.14 279.06 143.51 272.37 143.51 276.94 155.14 283.63 155.14 279.06" style="fill:#263238"></polygon><polygon points="241.13 328.46 229.5 321.78 229.5 326.35 241.13 333.03 241.13 328.46" style="fill:#263238"></polygon><polygon points="198.14 303.76 186.5 297.07 186.5 301.65 198.14 308.33 198.14 303.76" style="fill:#263238"></polygon><polygon points="284.13 353.16 272.5 346.48 272.5 351.05 284.13 357.74 284.13 353.16" style="fill:#263238"></polygon><polygon points="100.51 281.73 112.14 288.42 112.14 283.84 100.51 277.16 100.51 281.73" style="fill:#263238"></polygon><polygon points="155.14 308.55 143.51 301.86 143.51 306.44 155.14 313.12 155.14 308.55" style="fill:#263238"></polygon><polygon points="241.13 357.95 229.5 351.27 229.5 355.84 241.13 362.52 241.13 357.95" style="fill:#263238"></polygon><polygon points="198.14 333.25 186.5 326.56 186.5 331.14 198.14 337.82 198.14 333.25" style="fill:#263238"></polygon><polygon points="284.13 382.65 272.5 375.97 272.5 380.54 284.13 387.23 284.13 382.65" style="fill:#263238"></polygon><polygon points="297.3 387.03 88.18 266.88 88.18 271.46 297.3 391.61 297.3 387.03" style="fill:#37474f"></polygon><polygon points="297.3 387.03 300.29 385.32 300.29 389.89 297.3 391.61 297.3 387.03" style="fill:#263238"></polygon><polygon points="88.18 266.88 297.3 387.03 300.29 385.32 91.19 265.15 88.18 266.88" style="fill:#455a64"></polygon><polygon points="297.3 357.75 88.18 237.6 88.18 242.18 297.3 362.32 297.3 357.75" style="fill:#37474f"></polygon><polygon points="297.3 357.75 300.29 356.04 300.29 360.6 297.3 362.32 297.3 357.75" style="fill:#263238"></polygon><polygon points="88.18 237.6 297.3 357.75 300.29 356.04 91.19 235.87 88.18 237.6" style="fill:#455a64"></polygon></g></g></g><g id="freepik--Cow--inject-102"><g id="freepik--cow--inject-102"><path d="M56.42,206.94a18.8,18.8,0,0,0-13.6,4.1c-4.09,3.31-5.92,9.41-6.79,14.45-2.42,14.13,3.86,31.28,4.4,42.39s-3.23,18.84-13.08,21.2c6.31,1,14.37-3.62,15.49-16.49,1.09-12.53-4.26-31-3.84-40.68.19-4.6,1-9.95,4-13.64s9.73-2.45,11.33,2.19a1,1,0,0,0,.35.59c.42.26.91-.21,1.2-.62a33.49,33.49,0,0,1,8.22-8.36c3.86-2.75-4.41-4.58-6.37-4.94C57.27,207.05,56.85,207,56.42,206.94Z" style="fill:#ebebeb"></path><path d="M38.56,280.31c-1.83-1.13-5.71-.63-8.77,2.38s-5.14,6.68-11,6.51c-5.11-.14-5.92-4-5.92-4a10.58,10.58,0,0,0,1.26,6.58c2.33,4,9.15,6.86,17.09,4.63s12.21-11,9.18-14.75C39.75,282.09,38.19,281.07,38.56,280.31Z" style="fill:#263238"></path><path d="M191.26,388.33c-.46,2.31-.95,4,1.05,6.92a17.84,17.84,0,0,0,9.58,6.86c3.8.89,3.74-.14,3.67-1.46s-.32-5.55-.32-5.55,1.76,3.78,2.42,5.06,1.7.2,2.25-3,.4-5.14-1.18-9.79c-1.7-5-8.84-6.45-11.87-5.47S193.08,384.63,191.26,388.33Z" style="fill:#263238"></path><path d="M182.29,317.06l1.31,24.88c6.33-.27,9.35,3.46,8.83,8.19s-.39,6,.7,9.62,1.66,7.14.56,15.51c-.93,7.1-2.18,10-2.43,13.07,2,2.5,9.42,5.34,14,2.47s2.12-6.54.26-14.16c-2.72-11.19-2.43-14.63-1.93-19.62s-1.76-8-2-12.42,3.17-13.1,2.78-26C204.32,318.63,199.37,314.26,182.29,317.06Z" style="fill:#ebebeb"></path><path d="M205.22,390.8a5.28,5.28,0,0,0,2.28-2.56c-2.14,2.33-8.14,1.11-10.59-3.59s-1.55-7.83-.51-13.37,1.31-6.91.06-9.53c-1.52-3.22-3.93-3.29-4.32-7.72h0a17.13,17.13,0,0,0,1,5.72c1.1,3.6,1.66,7.14.56,15.51-.93,7.1-2.18,10-2.43,13.07C193.26,390.83,200.68,393.67,205.22,390.8Z" style="fill:#e0e0e0"></path><path d="M182.29,317.06l1.31,24.88a9.72,9.72,0,0,1,6.1,1.49,62.8,62.8,0,0,0,6.3-4c7.77-5.58,8.32-16.82,8.32-20.84C204.32,318.63,199.37,314.26,182.29,317.06Z" style="fill:#e0e0e0"></path><path d="M91.12,340.87c-.27,2.34-.61,4.08,1.64,6.8a17.8,17.8,0,0,0,10.15,6c3.86.55,3.71-.47,3.52-1.77l-.8-5.5s2.08,3.61,2.85,4.83,1.72,0,2-3.18,0-5.15-2-9.65c-2.12-4.81-9.36-5.66-12.29-4.42S92.61,337.6,91.12,340.87Z" style="fill:#263238"></path><path d="M95.37,226.66c-2.1,15.14,0,22.86,2.35,41.72,1.5,12.05-10.45,28.11-11.48,30-1.36,2.51.14,6,1.54,9.53s5,11.31,4.62,19.73c-.31,7.16-1.31,10.12-1.28,13.24,2.2,2.31,9.84,4.49,14.11,1.24s2.36-7-1-14.13c-8.41-18-8.45-20.31-6.83-25.06,1-2.89,1.25-3.36,4-5.62,3.93-3.26,34-9.6,32.45-22.39C133.85,274.91,112.14,222.38,95.37,226.66Z" style="fill:#ebebeb"></path><path d="M107.25,339.73c-1.33,2.32-7.31,3-9.71,0s-2-7.18-1.22-15.43S95,313.17,93.15,310.18,87.87,305.77,86,303a39.84,39.84,0,0,0,1.76,4.94c1.4,3.48,5,11.31,4.62,19.73-.31,7.16-1.31,10.12-1.28,13.24,2.2,2.31,9.84,4.49,14.11,1.24A6.36,6.36,0,0,0,107.25,339.73Z" style="fill:#e0e0e0"></path><path d="M109.2,304.16C97.58,321.35,73.32,314,67,297.93c.3-9.4,18.21-17.9,28.66-11.62S109.2,304.16,109.2,304.16Z" style="fill:#436917"></path><path d="M109.2,304.16C97.58,321.35,73.32,314,67,297.93c.3-9.4,18.21-17.9,28.66-11.62S109.2,304.16,109.2,304.16Z" style="fill:#fff;opacity:0.4"></path><path d="M55.75,360.25c-.26,2.34-.6,4.08,1.65,6.79a17.7,17.7,0,0,0,10.14,6c3.86.55,3.71-.47,3.53-1.77l-.8-5.51s2.08,3.62,2.85,4.84,1.71.05,2-3.18,0-5.16-2-9.65c-2.13-4.81-9.37-5.66-12.3-4.42S57.24,357,55.75,360.25Z" style="fill:#263238"></path><path d="M146.48,413.69c-.46,2.31-.95,4,1.05,6.92a17.74,17.74,0,0,0,9.58,6.86c3.8.89,3.74-.14,3.67-1.46s-.32-5.55-.32-5.55,1.76,3.78,2.42,5.07,1.7.19,2.25-3,.4-5.14-1.18-9.79c-1.7-5-8.84-6.45-11.87-5.47S147.66,411.08,146.48,413.69Z" style="fill:#263238"></path><path d="M203.44,260.55a11.31,11.31,0,0,0-4.06-3.9c-2.6-1.32-5.68-1-8.59-1.28a37.47,37.47,0,0,1-12-3.66c-16.75-7.61-35-19.05-48.09-32-11.22-11.07-22.19-18.19-38.5-18.4-21.14-.28-36.88,13.5-41.11,23.26-1.67,3.85-3.79,8.21-4.43,13.71-2.11,15.15.9,23.57,3.25,42.43.75,6,1.07,12,1.29,18.07.11,3.07.21,6.13.2,9.2,0,3.32.27,6.57-.9,9.78a11.12,11.12,0,0,0-1,3.74c0,2.45,2,3.93,3,5.93a47.58,47.58,0,0,1,1.9,4.81A38.76,38.76,0,0,1,57,347c-.31,7.16-1.3,10.12-1.28,13.24,2.21,2.31,9.85,4.49,14.12,1.24s2.35-7-1-14.13a96.19,96.19,0,0,1-7.31-21,10.57,10.57,0,0,1,1.62-9.46,69.5,69.5,0,0,1,7.28-10c1.17-1.34,2.3-2.78,3.55-4,1-.94,3.38-3.34,4.77-3.47,21.57-2,22.86,21.65,43.9,40.56,6.22,5.59,11.26,8.95,15.66,10.88,7,12.32,9.74,20.51,9.28,24.68-.51,4.73-.39,6,.7,9.62s1.66,7.15.56,15.51c-.93,7.1-2.18,10-2.43,13.07,2,2.5,9.42,5.34,14,2.47s2.12-6.54.27-14.16c-2.73-11.19-2.44-14.62-1.94-19.62s-1.76-8-2-12.42c-.2-3.54,3.75-8.87,5.14-18.75l.13,0c12.2-2.16,15.81-7.28,28.11-12.33,8.19-3.36,12.73-10.57,14.12-19.07.67-4.13,1.05-8.35,2-12.43,1.2-5.43,4.49-10.12,5.89-15.48,2.62-10-2.07-20.4-7.37-29.29C204.32,261.91,203.9,261.22,203.44,260.55Z" style="fill:#fafafa"></path><path d="M91.6,202.11h.61c17.4.22,28.51,8.86,37.93,18.17,12.16,12,29.78,23.73,48.33,32.16a38.07,38.07,0,0,0,12.25,3.74c.76.06,1.53.09,2.28.12,2.18.09,4.23.16,6,1.07a10.41,10.41,0,0,1,3.76,3.64c.46.67.89,1.38,1.26,2,4.78,8,9.93,18.52,7.28,28.66a45.28,45.28,0,0,1-2.8,7.2,42.64,42.64,0,0,0-3.1,8.31c-.58,2.65-1,5.39-1.32,8-.2,1.46-.4,3-.64,4.45-1.45,8.88-6.28,15.43-13.62,18.44a94.26,94.26,0,0,0-11.54,5.81c-4.88,2.78-9.1,5.18-16.41,6.47h-.12l-.59.11-.08.58a53.9,53.9,0,0,1-3.48,12.51c-1,2.6-1.77,4.65-1.67,6.41a23.11,23.11,0,0,0,1.06,5.26,17.42,17.42,0,0,1,.95,7c-.48,4.88-.84,8.41,2,19.89.38,1.56.78,3,1.14,4.19,1.52,5.29,1.9,7.22-1.05,9.09a7.75,7.75,0,0,1-4.18,1.07c-3.37,0-7-1.6-8.49-3.12a32.22,32.22,0,0,1,.77-4,83.57,83.57,0,0,0,1.62-8.72c1.08-8.18.63-11.88-.58-15.85-1.08-3.54-1.17-4.76-.67-9.3.51-4.73-2.73-13.43-9.39-25.17l-.13-.24-.25-.11c-4.59-2-9.64-5.53-15.44-10.74-8-7.15-13.06-15-17.55-21.87-6.93-10.62-12.4-19-24.44-19-.81,0-1.67,0-2.53.12-1.48.13-3.49,1.94-5.27,3.7-.9.89-1.74,1.88-2.55,2.84-.35.41-.69.82-1,1.22a70.42,70.42,0,0,0-7.37,10.15,11.38,11.38,0,0,0-1.71,10,97,97,0,0,0,7.37,21.19l.25.54c3.42,7.29,4.42,9.95,1,12.59a8.36,8.36,0,0,1-5.08,1.48,13.08,13.08,0,0,1-7.72-2.42,32.58,32.58,0,0,1,.42-4,81,81,0,0,0,.86-8.83A39.33,39.33,0,0,0,55.14,332l-.17-.49a44.82,44.82,0,0,0-1.76-4.4A13.93,13.93,0,0,0,51.89,325a6.19,6.19,0,0,1-1.59-3.51,7.43,7.43,0,0,1,.71-2.71l.28-.75a23,23,0,0,0,1-8.37c0-.56,0-1.12,0-1.69,0-3.17-.09-6.29-.2-9.23-.2-5.45-.51-11.86-1.3-18.14-.64-5.15-1.33-9.56-2-13.45-1.64-10.37-2.82-17.86-1.3-28.78a41.72,41.72,0,0,1,3.83-12.25q.27-.63.54-1.23C56,215.43,71,202.11,91.6,202.11m0-.82c-20.83,0-36.3,13.6-40.49,23.27-1.67,3.85-3.79,8.21-4.43,13.71-2.11,15.15.9,23.57,3.25,42.43.75,6,1.07,12,1.29,18.07.11,3.07.21,6.13.2,9.2,0,3.32.27,6.57-.9,9.78a11.12,11.12,0,0,0-1,3.74c0,2.45,2,3.93,3,5.93a47.58,47.58,0,0,1,1.9,4.81A38.76,38.76,0,0,1,57,347c-.31,7.16-1.3,10.12-1.28,13.24,1.4,1.47,5,2.89,8.54,2.89a9.18,9.18,0,0,0,5.58-1.65c4.27-3.26,2.35-7-1-14.13a96.19,96.19,0,0,1-7.31-21,10.57,10.57,0,0,1,1.62-9.46,69.5,69.5,0,0,1,7.28-10c1.17-1.34,2.3-2.78,3.55-4,1-.94,3.38-3.34,4.77-3.47.85-.07,1.67-.11,2.46-.11,19.24,0,21.22,22.5,41.44,40.67,6.22,5.59,11.26,8.95,15.66,10.88,7,12.32,9.74,20.51,9.28,24.68-.51,4.73-.39,6,.7,9.62s1.66,7.15.56,15.51c-.93,7.1-2.18,10-2.43,13.07,1.4,1.75,5.47,3.67,9.34,3.67a8.65,8.65,0,0,0,4.62-1.2c4.53-2.87,2.12-6.54.27-14.16-2.73-11.19-2.44-14.62-1.94-19.62s-1.76-8-2-12.42c-.2-3.54,3.75-8.87,5.14-18.75l.13,0c12.2-2.16,15.81-7.28,28.11-12.33,8.19-3.36,12.73-10.57,14.12-19.07.67-4.13,1.05-8.35,2-12.43,1.2-5.43,4.49-10.12,5.89-15.48,2.62-10-2.07-20.4-7.37-29.29-.41-.68-.83-1.37-1.29-2a11.31,11.31,0,0,0-4.06-3.9c-2.6-1.32-5.68-1-8.59-1.28a37.47,37.47,0,0,1-12-3.66c-16.75-7.61-35-19.05-48.09-32-11.22-11.07-22.19-18.19-38.5-18.4Z" style="fill:#e6e6e6"></path><path d="M62.17,359.07c-2.42-3.05-2-7.19-1.22-15.43s-1.34-11.1-3.16-14.08c-1.44-2.36-4.28-3-6.44-4.64-.38-.28-.74-.6-1.11-.9.67,1.16,1.64,2.19,2.23,3.4a47.58,47.58,0,0,1,1.9,4.81A38.76,38.76,0,0,1,57,347c-.31,7.16-1.3,10.12-1.28,13.24,2.21,2.31,9.85,4.49,14.12,1.24a7,7,0,0,0,1.55-1.59C68.27,361.42,64.34,361.81,62.17,359.07Z" style="fill:#f0f0f0"></path><path d="M155.47,285.84a4.79,4.79,0,0,1,1.38,2.28c.16.77,0,1.57.08,2.36.23,2.12,2.24,3.56,4.15,4.52s4,1.86,5.07,3.74c1.22,2.22.36,5.1-1.27,7s-3.89,3.22-6,4.68a19.66,19.66,0,0,0-7.19,8.11c-.62,1.49-1,3.09-1.69,4.53a9.32,9.32,0,0,1-6,4.86,8.49,8.49,0,0,1-7.47-1.82c-2-1.75-2.94-4.33-4-6.74-1.33-3-3-6.06-5.75-7.92-1.91-1.28-4.36-2-5.51-4s-.41-4.94,1.15-6.85,3.73-3.2,5.67-4.72,3.78-3.46,4.16-5.89c.22-1.41-.07-2.87.25-4.26C134.59,276.42,151.32,281.47,155.47,285.84Z" style="fill:#37474f"></path><path d="M143,257.86c1.17,1.08,2.28,2.65,1.75,4.15a3.8,3.8,0,0,1-2.63,2.07,17.72,17.72,0,0,0-3.32,1c-3.25,1.74-3.48,6.72-6.62,8.64-2.17,1.32-5.09.68-7.13-.82a8.15,8.15,0,0,1-3.3-5,5.92,5.92,0,0,1,1.92-5.56c1-.8,2.24-1.21,3.22-2,1.18-1,1.84-2.44,2.83-3.62C133.66,252,139.22,254.41,143,257.86Z" style="fill:#37474f"></path><path d="M102.53,202.49a6.58,6.58,0,0,0-1,.83,5.37,5.37,0,0,0-1.49,5.1c.37,1.25,1.3,2.36,1.28,3.67,0,1.84-1.86,3-2.84,4.61a5.5,5.5,0,0,0,1,6.82,9.45,9.45,0,0,0,5.26,1.87,36.5,36.5,0,0,0,7.75.05c3.82-.38,8.1-1.26,11.19,1a20.54,20.54,0,0,1,2.74,2.85c4.54,5,13.75,5.65,20.17,3.69h0a136,136,0,0,1-15.87-13.3C122,211.13,113.5,205,102.53,202.49Z" style="fill:#37474f"></path><path d="M75.15,237.05a23.15,23.15,0,0,1,13.56.63,12.83,12.83,0,0,1,5.6,3.59c3.37,4,2.06,10.9-2.32,13.82-2.6,1.74-6,2.26-8.25,4.39-1,.93-1.73,2.11-2.72,3-4.49,4.23-11.83,2-16.48,6a3.33,3.33,0,0,1-2,1.14c-2.23,0-4.73-5.12-5.74-6.75A17.16,17.16,0,0,1,55,259.26c-1.37-4.33.92-9,.24-13.52-.28-1.79-1-3.49-1.32-5.28-.81-4.84,1.23-10.6,5.56-13.12,6.9-4,15.36,2.3,15.24,9.83Z" style="fill:#37474f"></path><path d="M71.89,275.86c-.28.56-.92.87-1.27,1.4-.74,1.11,0,2.68-.55,3.89a3.13,3.13,0,0,1-2.61,1.55,27.65,27.65,0,0,0-3.16.23,2.92,2.92,0,0,1-1.77.13,2,2,0,0,1-.92-1.31,3.23,3.23,0,0,1,.35-3.21c.6-.61,1.53-.75,2.19-1.28,1.53-1.23,2.52-3.53,4.63-4C70.16,272.89,72.8,274.07,71.89,275.86Z" style="fill:#37474f"></path><path d="M212.1,291.88a23.72,23.72,0,0,0,.6-3.31c-.25-.26-.51-.5-.77-.74a28.76,28.76,0,0,0-6.41-3.88,6.46,6.46,0,0,0-3.88-1,5.36,5.36,0,0,0-2.66,1.64c-2.68,2.71-4.18,6.34-6.18,9.59-5.11,8.26-12.92,15.66-19.37,22.87-7.61,8.51-14.89,22.92-11.63,34.74,0-.2.07-.4.1-.61l.13,0c12.2-2.16,15.81-7.28,28.11-12.33,8.19-3.36,12.73-10.57,14.12-19.07.67-4.13,1.05-8.35,2-12.43C207.41,301.93,210.7,297.24,212.1,291.88Z" style="fill:#f0f0f0"></path><path d="M204.73,262.59c-.41-.68-.83-1.37-1.29-2a11.31,11.31,0,0,0-4.06-3.9c-2.6-1.32-5.68-1-8.59-1.28a37.47,37.47,0,0,1-12-3.66c-3-1.36-6-2.85-9.07-4.44a19.69,19.69,0,0,0-2.4,2.07c-3.28,3.37-5.16,8.71-2.94,12.85s7.85,5.64,11,9.32c2.3,2.68,3.08,6.3,4.49,9.53a16.2,16.2,0,0,0,.78,1.56c2.66,4.6,6.76,5.46,12.22,4.52,5.19-.9,10.15-2.92,15.36-3.65a3,3,0,0,0,1.29-.37,2.93,2.93,0,0,0,.89-1.24c.5-1.06,1-2.13,1.48-3.2A61.52,61.52,0,0,0,204.73,262.59Z" style="fill:#37474f"></path><path d="M88.46,296.29c-1-4,1.57-7.91-.65-13.25.19,5.77-4.49,14-9,16.33a19.61,19.61,0,0,1,13.4,3.13h0A12.53,12.53,0,0,1,88.46,296.29Z" style="fill:#f0f0f0"></path><path d="M160.44,416.16a5.24,5.24,0,0,0,2.28-2.56c-2.14,2.33-8.14,1.11-10.59-3.59s-1.55-7.83-.51-13.37,1.31-6.91.07-9.52c-1.53-3.23-3.93-3.3-4.33-7.73h0a17.09,17.09,0,0,0,1,5.72c1.1,3.6,1.66,7.15.56,15.51-.93,7.1-2.18,10-2.43,13.07C148.48,416.19,155.9,419,160.44,416.16Z" style="fill:#f0f0f0"></path><path d="M132.86,347.82a39.12,39.12,0,0,0,5.51,3c-5.87-10.08-7.34-14.11-8.92-19.12C129.44,336.52,131.12,343.12,132.86,347.82Z" style="fill:#f0f0f0"></path><path d="M237.71,228c3.13-.69,3.24,3.74,3.13,5.75a23,23,0,0,1-1.66,7.94,17.29,17.29,0,0,1-5.09,6.11,35.36,35.36,0,0,0-3.4,2.67,3.91,3.91,0,0,0-1.33,2.93c0-.12-2.4-2.28-2.76-2.7a8.8,8.8,0,0,1-.86-1,7.73,7.73,0,0,1-1.32-5.46C225,240.21,226.72,234.14,237.71,228Z" style="fill:#436917"></path><path d="M237.71,228c3.13-.69,3.24,3.74,3.13,5.75a23,23,0,0,1-1.66,7.94,17.29,17.29,0,0,1-5.09,6.11,35.36,35.36,0,0,0-3.4,2.67,3.91,3.91,0,0,0-1.33,2.93c0-.12-2.4-2.28-2.76-2.7a8.8,8.8,0,0,1-.86-1,7.73,7.73,0,0,1-1.32-5.46C225,240.21,226.72,234.14,237.71,228Z" style="fill:#fff;opacity:0.6000000000000001"></path><path d="M235.81,229.09c-3.5,5.14-6.26,10.3-5,15.71a11.76,11.76,0,0,0,3.41-4.28c.06,2.4-1.47,4.51-3,6.38-1.29,1.61-2.66,3.34-3.08,5.32-.67-.63-1.41-1.33-1.6-1.55a8.8,8.8,0,0,1-.86-1,7.73,7.73,0,0,1-1.32-5.46C225,240.45,226.52,234.86,235.81,229.09Z" style="fill:#436917;opacity:0.2"></path><path d="M229.08,239.06c.14-.34.29-.67.46-1A28.39,28.39,0,0,1,237.71,228a28.62,28.62,0,0,0-10.19,5.72c-2.38,2.08-6.2,5.47-5.62,9,.52,3.16,2.64,5.68,4.7,8A34.51,34.51,0,0,1,229.08,239.06Z" style="fill:#e0e0e0"></path><path d="M214.76,235.54c5.54-4.68,3.84-12.58,5.88-11.76s6.5,7.12,4.38,15.21C222.77,244.64,213,240.3,214.76,235.54Z" style="fill:#f5f5f5"></path><path d="M206.84,238.78c-4.77.59-11.43-.39-14.67,4-1.89,2.58-2.16,5.41-1.94,8.42.45,6-1.13,11.26-2.7,17a21,21,0,0,0,.2,12.57c4.13,11.64,18.16,9.92,26.45,16.91,3.42,2.88,9.2,8.62,15,10s11.76-1.38,14.76-4c3.87-3.32,4.17-9.15,4.45-11.68.36-3.31-1-6.46-4.38-7.54-3.06-3.05-8.65-11.57-9.91-16.42s-.62-16.35-5.11-23.83c-4-6.68-8.27-7.71-11.51-7.71S211,238.26,206.84,238.78Z" style="fill:#fafafa"></path><path d="M217.44,237.47c2.75,0,6.85.76,10.76,7.29,3,5,3.62,11.76,4.14,17.23a46.85,46.85,0,0,0,.87,6.36c1.34,5.16,7.07,13.76,10.14,16.83l.15.15.21.07c2.71.86,4.12,3.33,3.77,6.61,0,.18,0,.39-.07.61-.26,2.67-.76,7.65-4.08,10.49a18.28,18.28,0,0,1-11,4.13,12.64,12.64,0,0,1-3-.35c-4.66-1.16-9.39-5.31-12.84-8.34-.64-.56-1.23-1.08-1.77-1.53-3.35-2.82-7.56-4.26-11.64-5.66-6.26-2.14-12.17-4.16-14.55-10.87a20,20,0,0,1-.18-12.05l.29-1c1.48-5.37,2.88-10.44,2.44-16.23-.25-3.45.28-5.8,1.78-7.85,2.24-3.07,6.42-3.25,10.46-3.43,1.27-.06,2.47-.11,3.61-.25a36.34,36.34,0,0,0,5.32-1.19,19.91,19.91,0,0,1,5.17-1m0-.87c-3.23,0-6.45,1.66-10.6,2.18-4.77.59-11.43-.39-14.67,4-1.89,2.58-2.16,5.41-1.94,8.42.45,6-1.13,11.26-2.7,17a21.13,21.13,0,0,0,.19,12.57c4.14,11.64,18.17,9.92,26.46,16.91,3.42,2.88,9.2,8.62,15,10a13.35,13.35,0,0,0,3.18.38,19,19,0,0,0,11.58-4.33c3.87-3.32,4.17-9.15,4.45-11.68.36-3.31-1-6.46-4.38-7.54-3.06-3.05-8.65-11.57-9.91-16.42s-.62-16.35-5.11-23.83c-4-6.68-8.27-7.71-11.51-7.71Z" style="fill:#e6e6e6"></path><path d="M232.6,291.25c-3.33.12-8.31,3.06-6.56,8.3-1.67-.79-1.72-3.7-1.26-5.42.81-3,2.1-2.76,0-7s-7-14.72-7-14.72,6.17,10,8.22,13.22C229.05,290.41,232.05,289.34,232.6,291.25Z" style="fill:#e0e0e0"></path><path d="M229.14,307.73c5.69,1.41,11.76-1.38,14.76-4,3.87-3.32,4.17-9.15,4.45-11.68.36-3.31-1-6.46-4.38-7.54a37.13,37.13,0,0,1-3.95-5,19,19,0,0,0-2,.06c-5,.46-12.18,3.63-15.29,7.53-2.76,3.48-3.12,6.37-3.85,10.75-.13.77-.34,2.72-.37,3.5C221.62,304,225.38,306.81,229.14,307.73Z" style="fill:#436917"></path><path d="M229.14,307.73c5.69,1.41,11.76-1.38,14.76-4,3.87-3.32,4.17-9.15,4.45-11.68.36-3.31-1-6.46-4.38-7.54a37.13,37.13,0,0,1-3.95-5,19,19,0,0,0-2,.06c-5,.46-12.18,3.63-15.29,7.53-2.76,3.48-3.12,6.37-3.85,10.75-.13.77-.34,2.72-.37,3.5C221.62,304,225.38,306.81,229.14,307.73Z" style="fill:#fff;opacity:0.5"></path><path d="M245.56,300.5a8.5,8.5,0,0,1-3.13.95,13.37,13.37,0,0,0-3.21.73,14,14,0,0,0-2.39,1.48,7.77,7.77,0,0,1-2.4.95c-2.88.5-5.62.18-7.87-2a5.69,5.69,0,0,0,3.72,2.73,10.89,10.89,0,0,0,6.42-.22c1.07-.46,2-1.08,3-1.54a7.75,7.75,0,0,1,2.15-.47,6,6,0,0,0,4.41-2.41,11.59,11.59,0,0,0,.69-1.53A5.12,5.12,0,0,1,245.56,300.5Z" style="fill:#436917;opacity:0.30000000000000004"></path><path d="M234.07,296.69a2.17,2.17,0,0,1-.11,2.16c-1.09,1.32-3,.61-3.68-.75-.45-1-.29-2.12-.67-3.12a6.35,6.35,0,0,0-2.17-2.47c-.1-.08-.21-.23-.12-.33a.21.21,0,0,1,.19,0,6.57,6.57,0,0,1,3.06.79,8.17,8.17,0,0,1,3.27,3.27C233.92,296.35,234,296.52,234.07,296.69Z" style="fill:#455a64"></path><path d="M243.62,292.23c0,.79.67,3.25,2,2.21.93-.74.29-2.47,0-3.35a5.52,5.52,0,0,1-.26-2.76c.06-.4.09-1.48-.49-.65a7.64,7.64,0,0,0-1.17,3.88C243.63,291.78,243.62,292,243.62,292.23Z" style="fill:#455a64"></path><path d="M209.73,266.22a8.78,8.78,0,0,0-3.31-.79,6.36,6.36,0,0,0-1.9.18,3.84,3.84,0,0,0-1.48.71c-.07.06-.13.29,0,.28a13.4,13.4,0,0,1,1.88,0,16.74,16.74,0,0,1,1.92.16,7.1,7.1,0,0,1,2.51.7,9,9,0,0,1,2.24,1.63c1,.85,1.12,1,1.84,1.62.05.05.12-.09.12-.13C213.26,268.69,211.37,267,209.73,266.22Z" style="fill:#263238"></path><path d="M210.32,269a2.65,2.65,0,1,1-2.65-2.65A2.65,2.65,0,0,1,210.32,269Z" style="fill:#263238"></path><path d="M199.53,238.62c-6.64-2.92-7.25-11-9-9.61s-4.22,8.66.1,15.82C194.42,249.62,202.54,242.7,199.53,238.62Z" style="fill:#f5f5f5"></path><path d="M169.6,237.12c-3.56.84-1.49,5.45-.39,7.47a26,26,0,0,0,5.62,7.36,19.76,19.76,0,0,0,8.25,3.79,42.92,42.92,0,0,1,4.81,1.07,4.51,4.51,0,0,1,2.82,2.37c-.06-.12,1.35-3.53,1.51-4.14a9.27,9.27,0,0,0,.37-1.49,8.81,8.81,0,0,0-1.32-6.28C188.74,243.46,184,238.07,169.6,237.12Z" style="fill:#436917"></path><path d="M169.6,237.12c-3.56.84-1.49,5.45-.39,7.47a26,26,0,0,0,5.62,7.36,19.76,19.76,0,0,0,8.25,3.79,42.92,42.92,0,0,1,4.81,1.07,4.51,4.51,0,0,1,2.82,2.37c-.06-.12,1.35-3.53,1.51-4.14a9.27,9.27,0,0,0,.37-1.49,8.81,8.81,0,0,0-1.32-6.28C188.74,243.46,184,238.07,169.6,237.12Z" style="fill:#fff;opacity:0.6000000000000001"></path><path d="M172.11,237.34c6.13,3.58,11.52,7.54,12.87,13.74a13.29,13.29,0,0,1-5.62-2.73c1.11,2.5,3.73,3.92,6.19,5.11,2.12,1,4.37,2.13,5.79,4,.37-1,.8-2.06.88-2.38a9.27,9.27,0,0,0,.37-1.49,8.81,8.81,0,0,0-1.32-6.28C188.89,243.7,184.52,238.72,172.11,237.34Z" style="fill:#436917;opacity:0.2"></path><path d="M184,244.3c-.31-.27-.63-.54-1-.8a32.51,32.51,0,0,0-13.39-6.38,32.68,32.68,0,0,1,13.31.89c3.47,1,9.08,2.58,10.22,6.51,1,3.51.09,7.14-.91,10.52A39.38,39.38,0,0,0,184,244.3Z" style="fill:#e0e0e0"></path><path d="M202.43,249a1.43,1.43,0,0,0,1.61.18c.48-.3.68-.93,1.17-1.21a6.53,6.53,0,0,0,4.6,3.53,4.22,4.22,0,0,0,4.67-2.87,7.14,7.14,0,0,0,3.86,1.2,4.21,4.21,0,0,0,3.48-1.83c.94-1.51.59-3.45.21-5.19,1,.51,2.25-.58,2.28-1.72a4.3,4.3,0,0,0-1.49-2.94c-3.32-3.45-8.16-4.42-12.75-4.69-4.11-.23-9.88.68-13,3.7a9,9,0,0,0,1.82,1.17,10,10,0,0,1,1.4,3.4,54.8,54.8,0,0,0,1.15,5.73,3.36,3.36,0,0,0,.92,1.51Z" style="fill:#436917"></path><path d="M202.47,249a1.47,1.47,0,0,0,1.61.18c.48-.3.68-.93,1.17-1.21a6.51,6.51,0,0,0,4.6,3.53,4.22,4.22,0,0,0,4.67-2.87,7.14,7.14,0,0,0,3.86,1.2,4.21,4.21,0,0,0,3.48-1.83c.94-1.51.59-3.45.21-5.19,1,.51,2.25-.59,2.28-1.72a4.34,4.34,0,0,0-1.49-3c-3.32-3.44-8.16-4.42-12.75-4.68-4.11-.23-9.88.68-13,3.7a9.46,9.46,0,0,0,1.82,1.17,10.05,10.05,0,0,1,1.4,3.39,52,52,0,0,0,1.15,5.74,3.24,3.24,0,0,0,.92,1.5Z" style="fill:#fff;opacity:0.6000000000000001"></path><path d="M209.81,250.63c-1.61-1-2.35-2.86-3-4.62a4.29,4.29,0,0,1-2.8.59,1.29,1.29,0,0,1-.91-.45,1.45,1.45,0,0,1-.1-1.07,24.13,24.13,0,0,0,.58-4,5,5,0,0,0-1.31-3.65c-.78-.74-2-1.31-2.15-2.29a10.48,10.48,0,0,0-3,2,9.46,9.46,0,0,0,1.82,1.17,10.05,10.05,0,0,1,1.4,3.39,52,52,0,0,0,1.15,5.74,3.24,3.24,0,0,0,.92,1.5l0,0a1.47,1.47,0,0,0,1.61.18c.48-.3.68-.93,1.17-1.21a6.51,6.51,0,0,0,4.6,3.53,4.49,4.49,0,0,0,2.45-.38A4.08,4.08,0,0,1,209.81,250.63Z" style="fill:#436917;opacity:0.2"></path></g></g><g id="freepik--Hen--inject-102"><g id="freepik--hen--inject-102"><path d="M436.08,399.71l-1.3,8.75s2.51-.09,2.31.46-2.64.89-2.64.89-1.93,6.34-2.69,6.34,1.34-5.86,1.34-5.86-7,4.37-7.59,3.89,6.2-4.81,6.2-4.81-6.68,1-6.78.39,8.41-1.73,8.41-1.83.05-9.08.05-9.08Z" style="fill:#455a64"></path><path d="M433.37,402.72a7.41,7.41,0,0,0,1.88-.24,2.11,2.11,0,0,0,.45-.18l.38-2.59-2.69-.86S433.38,400.7,433.37,402.72Z" style="opacity:0.15"></path><path d="M431.71,409.37l.67-.43-5.31.7c-1.37.18-1.94.18-2.05,0-.06,0-.1.08-.09.12C425,410.34,431.71,409.37,431.71,409.37Z" style="opacity:0.15"></path><path d="M433.36,409.54s-1.92,1.25-4.06,2.58-3.29,2.05-3.83,2a.09.09,0,0,0,0,.08c.62.48,7.59-3.89,7.59-3.89Z" style="opacity:0.15"></path><path d="M437.09,408.92c0-.11,0-.2-.17-.26.13.15,0,.34-.78.49a15.25,15.25,0,0,1-1.54.2l-.15.46S436.89,409.47,437.09,408.92Z" style="opacity:0.15"></path><path d="M424.45,393.53l-1.3,8.75s2.51-.1,2.31.46-2.64.88-2.64.88-1.93,6.35-2.7,6.35,1.35-5.87,1.35-5.87-7,4.38-7.6,3.9,6.21-4.81,6.21-4.81-6.69,1-6.78.39,8.41-1.74,8.41-1.83.05-9.09.05-9.09Z" style="fill:#455a64"></path><path d="M421.72,400.3c.56.09,1.13.16,1.69.21l1-7-2.69-.87S421.73,397.74,421.72,400.3Z" style="opacity:0.15"></path><path d="M420.08,403.19l.67-.44-5.31.71c-1.37.17-1.94.17-2.05,0q-.11.06-.09.12C413.39,404.15,420.08,403.19,420.08,403.19Z" style="opacity:0.15"></path><path d="M421.73,403.35s-1.92,1.26-4.06,2.58-3.29,2.05-3.83,2a.12.12,0,0,0,0,.09c.63.48,7.6-3.9,7.6-3.9Z" style="opacity:0.15"></path><path d="M425.46,402.74c0-.12,0-.2-.18-.27.14.16,0,.35-.78.5a14.89,14.89,0,0,1-1.54.2l-.14.45S425.26,403.29,425.46,402.74Z" style="opacity:0.15"></path><path d="M424.2,399.34c2.19,1.26,8.1,2.52,10.82,1.73s5.55-6.41,5.55-6.41Z" style="fill:#af6152"></path><path d="M404.26,382.87c.4,3.66,2.38,9.79,7.94,12.91a27.89,27.89,0,0,0,23.46,1.83A18.7,18.7,0,0,0,447,382.81c.19-1.37.3-2.76.38-4.14.05-1,0-2.06,0-3.06.13-1.85,1.93-3.64,1.19-5.53a3.35,3.35,0,0,1-.43-1.23c0-.75,1-1.05,1.51-1.4s1.17-.83,1.13-1.47a2.41,2.41,0,0,0-.52-1.05,1,1,0,0,1-.13-1.11,1,1,0,0,1,.83-.32,7.4,7.4,0,0,1,1.38.3,1.92,1.92,0,0,0,1.38-.09,1.77,1.77,0,0,0,.73-1.62,5.15,5.15,0,0,0-2.25-3.67,11.66,11.66,0,0,0-9.65-2.23c-2.93.65-5.18,2-7,5.66-1.3,2.61-3.44,5.34-6.07,6.44-3.93,1.64-6.39,1.33-12.27,3S404.26,382.87,404.26,382.87Z" style="fill:#c8856a"></path><path d="M410.77,360.89c1.88.68,3,2.71,3.54,5.82s1.11,4.34,2.44,4.45,1.77,2.33,0,3a2.48,2.48,0,0,1,.17,3.55c-1.61,2.05-3.11,1.27-3.11,1.27a2.73,2.73,0,0,1-1,3.66c-2.22,1.61-4.38-1.05-4.38-1.05s-.93,2.12-4.18,1.29a19.39,19.39,0,0,1,0-6.33c.61-3.11,2.22-6.16,1.28-7.32a8.18,8.18,0,0,1-1.72-4.93C404,362.85,405.74,358.66,410.77,360.89Z" style="fill:#ffbda7"></path><path d="M405.8,366.59c.39.05,1,.64,1,1.71,0,.91-.85,1.9-1.79,1.66s-.92-1-.67-1.61a1.77,1.77,0,0,0-.15-1.3Z" style="fill:#436917"></path><path d="M405.8,366.59c.39.05,1,.64,1,1.71,0,.91-.85,1.9-1.79,1.66s-.92-1-.67-1.61a1.77,1.77,0,0,0-.15-1.3Z" style="opacity:0.30000000000000004"></path><path d="M404.08,364.61a4.16,4.16,0,0,1,2-3.52,5.41,5.41,0,0,1,4.66-.2,3.31,3.31,0,0,0,1.91-2.29c.36-1.69,0-2.43-.71-2.05s-1.2,1.15-1.37.74-.11-1.22-.76-1-.69,1.07-1.17,1.12-.6-1.1-1.29-.67-.32,1.84-.78,1.91-1.09-.77-1.45-.21c-.57.87.39,1.89-.24,2.17a2.51,2.51,0,0,0-1.88,2,3.68,3.68,0,0,0,.31,2.29Z" style="fill:#436917"></path><path d="M404.08,364.61a4.16,4.16,0,0,1,2-3.52,5.41,5.41,0,0,1,4.66-.2,3.31,3.31,0,0,0,1.91-2.29c.36-1.69,0-2.43-.71-2.05s-1.2,1.15-1.37.74-.11-1.22-.76-1-.69,1.07-1.17,1.12-.6-1.1-1.29-.67-.32,1.84-.78,1.91-1.09-.77-1.45-.21c-.57.87.39,1.89-.24,2.17a2.51,2.51,0,0,0-1.88,2,3.68,3.68,0,0,0,.31,2.29Z" style="opacity:0.30000000000000004"></path><path d="M403.34,364.93c.64-.67,2.77-.44,2.77,1.78a2,2,0,0,0-1.45.54c-1,.84-.9,1.53-1.32,1.53S402.19,366.79,403.34,364.93Z" style="fill:#455a64"></path><path d="M407.51,364.49a.44.44,0,1,1-.43-.44A.44.44,0,0,1,407.51,364.49Z" style="fill:#455a64"></path><path d="M420.6,379.52c-3.56,3.47,0,9.28,6.6,10.66s10.17-.89,8.14-2.52c0,0,6,.49,7.73-1.46s-2.93-4.16-2.93-4.16,6.43-1,4.64-3.34S428.5,371.83,420.6,379.52Z" style="fill:#af6152"></path></g></g><g id="freepik--Chickens--inject-102"><g id="freepik--Chicken--inject-102"><path d="M394.37,433.61l-.26,2.53s.72-.06.67.1-.74.29-.74.29-.47,1.86-.69,1.87.31-1.71.31-1.71-2,1.36-2.14,1.23,1.72-1.47,1.72-1.47-1.91.37-1.94.2a15,15,0,0,1,2.39-.64s-.11-2.61-.11-2.61Z" style="fill:#455a64"></path><path d="M393.63,434.51a1.73,1.73,0,0,0,.54-.1l.12-.05.08-.75-.79-.21Z" style="opacity:0.15"></path><path d="M393.24,436.45l.19-.14-1.52.28c-.39.07-.55.08-.59,0s0,0,0,0C391.33,436.82,393.24,436.45,393.24,436.45Z" style="opacity:0.15"></path><path d="M393.72,436.47l-1.13.8c-.6.41-.92.64-1.08.62v0c.19.13,2.14-1.23,2.14-1.23Z" style="opacity:0.15"></path><path d="M394.78,436.24s0-.05,0-.07,0,.1-.22.15a3.14,3.14,0,0,1-.44.08l0,.13S394.73,436.4,394.78,436.24Z" style="opacity:0.15"></path><path d="M391.32,432.56l-.25,2.54s.72-.06.67.1-.75.29-.75.29-.46,1.85-.69,1.86.31-1.7.31-1.7-1.94,1.35-2.13,1.22,1.72-1.47,1.72-1.47a7.88,7.88,0,0,1-1.95.21,14.41,14.41,0,0,1,2.4-.64s-.11-2.62-.11-2.62Z" style="fill:#455a64"></path><path d="M390.63,434.55l.49,0,.2-2-.78-.21Z" style="opacity:0.15"></path><path d="M390.2,435.4l.19-.13-1.52.28c-.39.07-.56.07-.59,0l0,0A7.88,7.88,0,0,0,390.2,435.4Z" style="opacity:0.15"></path><path d="M390.68,435.43s-.54.39-1.14.8-.92.63-1.07.62,0,0,0,0c.19.13,2.13-1.22,2.13-1.22Z" style="opacity:0.15"></path><path d="M391.74,435.2s0-.06-.05-.07,0,.1-.22.15l-.44.08,0,.13S391.69,435.36,391.74,435.2Z" style="opacity:0.15"></path><path d="M396.15,432.07c-.47.61-1.39,1.78-2.11,1.88s-1.79-.83-1.79-.83a1.66,1.66,0,0,1-1.32.67c-.78-.07-1.61-1.44-1.61-1.44a8.25,8.25,0,0,1,3.3-.79A15,15,0,0,1,396.15,432.07Z" style="fill:#f0997a"></path><path d="M384.75,425.73c-.47-1.62,0-3.42,1.82-4,2.53-.85,3.58,1,4.73,1.82a4.14,4.14,0,0,0,4.27.11c1.69-1,2.15-2.73,3.11-2.33s.26,2.33.26,2.33a1.64,1.64,0,0,1,.91,1.49,3.91,3.91,0,0,1-1.17,2.07,4.07,4.07,0,0,1-.22,2.23,6.46,6.46,0,0,1-5,3.63c-3.17.38-5.1-.83-5.92-2.88-.73-1.81-1-2.61-1.56-3.12C385.22,426.38,385,426.48,384.75,425.73Z" style="fill:#ffbda7"></path><path d="M386,427.05a1.23,1.23,0,0,0-.45-1c-.52-.42-.78-.29-.78-.29a2.66,2.66,0,0,0-.63,1.68A4.79,4.79,0,0,0,386,427.05Z" style="fill:#436917"></path><path d="M387.27,424.81a.39.39,0,0,0,.77,0,.39.39,0,1,0-.77,0Z" style="fill:#455a64"></path><path d="M390.74,428.74c1,1.7,3.74,1.23,3.93.57s-.29-.84-.29-.84a3.34,3.34,0,0,0,2.15-1c.57-.84-.15-1.33-.4-1.33a.92.92,0,0,1,.82,1.45,3.53,3.53,0,0,1-1.86,1.07,1.08,1.08,0,0,1-.29,1.11A2.63,2.63,0,0,1,390.74,428.74Z" style="fill:#f0997a"></path></g><g id="freepik--chicken--inject-102"><path d="M360.91,416.62l.25,2.53s-.72-.06-.67.1.75.3.75.3.46,1.85.68,1.86-.3-1.71-.3-1.71,1.94,1.36,2.13,1.23-1.72-1.47-1.72-1.47,1.91.37,2,.2a15.45,15.45,0,0,0-2.4-.64s.11-2.61.11-2.61Z" style="fill:#455a64"></path><path d="M361.64,417.52a2,2,0,0,1-.53-.09l-.13-.06-.07-.75.78-.21S361.67,416.94,361.64,417.52Z" style="opacity:0.15"></path><path d="M362,419.46l-.19-.14,1.52.28c.39.07.56.08.59,0s0,0,0,0C363.94,419.83,362,419.46,362,419.46Z" style="opacity:0.15"></path><path d="M361.55,419.48s.54.39,1.14.8.91.64,1.07.63v0c-.19.13-2.13-1.23-2.13-1.23Z" style="opacity:0.15"></path><path d="M360.49,419.25s0-.05.05-.07,0,.1.22.15a3.14,3.14,0,0,0,.44.08l0,.14S360.54,419.42,360.49,419.25Z" style="opacity:0.15"></path><path d="M364,415.58l.25,2.53s-.72-.06-.67.1.75.29.75.29.47,1.86.69,1.87-.31-1.71-.31-1.71,1.95,1.36,2.13,1.23-1.72-1.47-1.72-1.47,1.91.37,1.95.2a15.16,15.16,0,0,0-2.4-.64s.12-2.62.12-2.62Z" style="fill:#455a64"></path><path d="M364.64,417.56l-.49,0-.2-2,.79-.22S364.67,416.82,364.64,417.56Z" style="opacity:0.15"></path><path d="M365.07,418.42l-.18-.14,1.52.28c.39.07.55.08.59,0l0,0C367,418.79,365.07,418.42,365.07,418.42Z" style="opacity:0.15"></path><path d="M364.6,418.44s.53.39,1.13.8.92.64,1.07.62a0,0,0,0,1,0,0c-.18.13-2.13-1.23-2.13-1.23Z" style="opacity:0.15"></path><path d="M363.53,418.21s0-.06.06-.07,0,.1.21.15a3.14,3.14,0,0,0,.44.08l0,.13S363.58,418.37,363.53,418.21Z" style="opacity:0.15"></path><path d="M359.13,415.08c.46.61,1.38,1.78,2.11,1.88s1.78-.82,1.78-.82a1.66,1.66,0,0,0,1.32.66c.79-.07,1.61-1.44,1.61-1.44a8.23,8.23,0,0,0-3.29-.79A14.87,14.87,0,0,0,359.13,415.08Z" style="fill:#f0997a"></path><path d="M370.52,408.75c.47-1.62,0-3.43-1.82-4-2.53-.85-3.58,1-4.72,1.82a4.13,4.13,0,0,1-4.28.11c-1.69-1-2.15-2.73-3.11-2.33s-.26,2.33-.26,2.33a1.62,1.62,0,0,0-.9,1.49,3.9,3.9,0,0,0,1.16,2.08,4,4,0,0,0,.22,2.22,6.42,6.42,0,0,0,5,3.63c3.16.38,5.09-.83,5.91-2.87.73-1.82,1-2.61,1.56-3.12C370.05,409.39,370.31,409.49,370.52,408.75Z" style="fill:#ffbda7"></path><path d="M369.29,410.07a1.28,1.28,0,0,1,.45-1c.52-.42.78-.28.78-.28a2.66,2.66,0,0,1,.64,1.67A4.94,4.94,0,0,1,369.29,410.07Z" style="fill:#436917"></path><path d="M368,407.82a.38.38,0,1,1-.38-.38A.38.38,0,0,1,368,407.82Z" style="fill:#455a64"></path><path d="M364.53,411.75c-1,1.7-3.73,1.23-3.93.57s.3-.84.3-.84-1.59-.13-2.16-1,.15-1.33.4-1.33a.92.92,0,0,0-.82,1.46,3.56,3.56,0,0,0,1.86,1.06,1.09,1.09,0,0,0,.3,1.11A2.61,2.61,0,0,0,364.53,411.75Z" style="fill:#f0997a"></path></g><g id="freepik--chicken--inject-102"><path d="M242.86,455.29l.25,2.53s-.72-.06-.67.1.75.29.75.29.47,1.86.69,1.87-.31-1.71-.31-1.71,2,1.36,2.13,1.23-1.71-1.47-1.71-1.47,1.91.37,1.94.2a15.33,15.33,0,0,0-2.39-.64s.11-2.62.11-2.62Z" style="fill:#455a64"></path><path d="M243.6,456.19a2.08,2.08,0,0,1-.54-.1l-.12,0-.08-.75.79-.22S243.63,455.61,243.6,456.19Z" style="opacity:0.15"></path><path d="M244,458.13l-.19-.14,1.52.28c.39.07.55.08.59,0s0,0,0,0C245.9,458.5,244,458.13,244,458.13Z" style="opacity:0.15"></path><path d="M243.51,458.15s.53.39,1.13.8.92.64,1.08.62l0,0c-.18.13-2.13-1.23-2.13-1.23Z" style="opacity:0.15"></path><path d="M242.44,457.92s0-.06.06-.07,0,.1.22.15a3.14,3.14,0,0,0,.44.08l0,.13S242.49,458.08,242.44,457.92Z" style="opacity:0.15"></path><path d="M245.91,454.24l.25,2.54s-.72-.06-.67.1.75.29.75.29.46,1.85.68,1.86-.3-1.7-.3-1.7,1.94,1.35,2.13,1.22-1.72-1.47-1.72-1.47a7.88,7.88,0,0,0,1.95.21,13.5,13.5,0,0,0-2.4-.64s.11-2.62.11-2.62Z" style="fill:#455a64"></path><path d="M246.6,456.23l-.49,0-.2-2,.78-.21Z" style="opacity:0.15"></path><path d="M247,457.08l-.19-.13,1.52.27c.39.07.56.08.59,0s0,0,0,0A7.88,7.88,0,0,1,247,457.08Z" style="opacity:0.15"></path><path d="M246.55,457.11l1.14.8c.59.41.91.63,1.07.62,0,0,0,0,0,0-.19.13-2.13-1.22-2.13-1.22Z" style="opacity:0.15"></path><path d="M245.49,456.88s0-.06,0-.07,0,.09.22.15l.44.08,0,.13S245.54,457,245.49,456.88Z" style="opacity:0.15"></path><path d="M241.08,453.75c.47.61,1.39,1.78,2.11,1.88s1.79-.83,1.79-.83a1.66,1.66,0,0,0,1.32.67c.78-.07,1.61-1.44,1.61-1.44a8.25,8.25,0,0,0-3.3-.79A14.87,14.87,0,0,0,241.08,453.75Z" style="fill:#f0997a"></path><path d="M252.48,447.41c.47-1.62,0-3.42-1.82-4-2.54-.84-3.59,1.05-4.73,1.83a4.14,4.14,0,0,1-4.27.11c-1.69-1-2.16-2.74-3.11-2.33s-.26,2.33-.26,2.33a1.62,1.62,0,0,0-.91,1.49,3.91,3.91,0,0,0,1.17,2.07,4.08,4.08,0,0,0,.21,2.22,6.48,6.48,0,0,0,5,3.64c3.17.38,5.09-.83,5.92-2.88.73-1.81,1-2.61,1.55-3.12C252,448.06,252.26,448.16,252.48,447.41Z" style="fill:#ffbda7"></path><path d="M251.24,448.73a1.26,1.26,0,0,1,.46-1c.52-.42.78-.29.78-.29a2.63,2.63,0,0,1,.63,1.68A4.85,4.85,0,0,1,251.24,448.73Z" style="fill:#436917"></path><circle cx="249.57" cy="446.49" r="0.38" style="fill:#455a64"></circle><path d="M246.48,450.42c-1,1.7-3.73,1.23-3.93.56s.3-.84.3-.84-1.58-.12-2.15-1,.15-1.33.4-1.33a.91.91,0,0,0-.82,1.45,3.52,3.52,0,0,0,1.85,1.07,1.09,1.09,0,0,0,.3,1.11A2.62,2.62,0,0,0,246.48,450.42Z" style="fill:#f0997a"></path></g><g id="freepik--chicken--inject-102"><path d="M292.38,440.39l-.25,2.53s.72-.06.67.1-.75.3-.75.3-.47,1.85-.69,1.86.31-1.71.31-1.71-1.95,1.36-2.13,1.23,1.72-1.47,1.72-1.47-1.91.37-1.95.2a15.16,15.16,0,0,1,2.4-.64s-.12-2.61-.12-2.61Z" style="fill:#455a64"></path><path d="M291.64,441.29a2,2,0,0,0,.54-.09l.13-.06.07-.75-.79-.21S291.62,440.71,291.64,441.29Z" style="opacity:0.15"></path><path d="M291.26,443.23l.18-.13-1.52.27c-.39.07-.55.08-.59,0l0,0C289.35,443.6,291.26,443.23,291.26,443.23Z" style="opacity:0.15"></path><path d="M291.73,443.25s-.53.39-1.13.8-.92.64-1.07.63v0c.18.13,2.13-1.23,2.13-1.23Z" style="opacity:0.15"></path><path d="M292.8,443s0,0-.06-.07,0,.1-.21.16a4.22,4.22,0,0,1-.44.07l0,.14S292.75,443.19,292.8,443Z" style="opacity:0.15"></path><path d="M289.34,439.35l-.26,2.53s.72-.06.67.1-.74.29-.74.29-.47,1.86-.69,1.87.3-1.71.3-1.71-1.94,1.36-2.13,1.23,1.72-1.47,1.72-1.47-1.91.37-1.94.2a15,15,0,0,1,2.39-.64s-.11-2.62-.11-2.62Z" style="fill:#455a64"></path><path d="M288.64,441.33l.5,0,.2-2-.79-.22Z" style="opacity:0.15"></path><path d="M288.21,442.19l.19-.14-1.52.28c-.39.07-.55.08-.59,0s0,0,0,0C286.3,442.56,288.21,442.19,288.21,442.19Z" style="opacity:0.15"></path><path d="M288.69,442.21l-1.13.8c-.6.41-.92.64-1.08.62,0,0,0,0,0,0,.19.13,2.13-1.23,2.13-1.23Z" style="opacity:0.15"></path><path d="M289.75,442s0-.05-.05-.07,0,.1-.22.15a3.14,3.14,0,0,1-.44.08l0,.13S289.7,442.14,289.75,442Z" style="opacity:0.15"></path><path d="M294.16,438.85c-.47.62-1.39,1.78-2.11,1.89s-1.78-.83-1.78-.83a1.67,1.67,0,0,1-1.33.66c-.78-.07-1.61-1.44-1.61-1.44a8.25,8.25,0,0,1,3.3-.79A14.87,14.87,0,0,1,294.16,438.85Z" style="fill:#f0997a"></path><path d="M282.76,432.52c-.47-1.62,0-3.43,1.82-4,2.54-.85,3.59,1,4.73,1.82a4.13,4.13,0,0,0,4.28.11c1.68-1,2.15-2.73,3.1-2.33s.26,2.33.26,2.33a1.62,1.62,0,0,1,.91,1.49,3.89,3.89,0,0,1-1.17,2.08,4.08,4.08,0,0,1-.21,2.22,6.44,6.44,0,0,1-5,3.63c-3.17.39-5.09-.83-5.92-2.87-.73-1.81-1-2.61-1.55-3.12C283.24,433.16,283,433.27,282.76,432.52Z" style="fill:#ffbda7"></path><path d="M284,433.84a1.27,1.27,0,0,0-.46-1c-.52-.42-.78-.28-.78-.28a2.62,2.62,0,0,0-.63,1.67A4.94,4.94,0,0,0,284,433.84Z" style="fill:#436917"></path><path d="M285.28,431.59a.39.39,0,0,0,.39.38.38.38,0,0,0,0-.76A.39.39,0,0,0,285.28,431.59Z" style="fill:#455a64"></path><path d="M288.76,435.52c1,1.71,3.73,1.24,3.93.57s-.3-.84-.3-.84a3.34,3.34,0,0,0,2.15-1c.57-.84-.15-1.33-.39-1.33a.92.92,0,0,1,.81,1.46,3.55,3.55,0,0,1-1.85,1.06,1.09,1.09,0,0,1-.3,1.11A2.61,2.61,0,0,1,288.76,435.52Z" style="fill:#f0997a"></path></g></g></svg>
