<svg width="436" height="433" viewBox="0 0 436 433" fill="none" xmlns="http://www.w3.org/2000/svg">
<path d="M220.43 13.3903H14.4927V147.919H220.43V13.3903Z" fill="#F5F5F5"/>
<path d="M46.7491 45.5327C46.7491 45.5327 43.8934 43.9509 42.039 45.8914C41.39 46.5811 41.2231 48.8435 43.7636 49.2942C43.7636 49.2942 49.2618 48.9999 51.7652 48.5492C54.2686 48.0986 59.9615 45.6063 59.9615 45.6063L62.9192 39.0675C62.9192 39.0675 63.2993 35.9774 63.6795 35.9038C64.0596 35.8302 65.2186 39.0675 65.2186 39.0675L71.5977 40.9068L72.2745 42.1851L67.073 44.282C67.073 44.282 67.8333 52.4118 67.1472 53.8373C66.4342 55.022 65.5395 56.0894 64.4954 57.001L64.7921 68.8187C64.7921 68.8187 65.9326 68.368 66.0067 69.1957H62.9841C62.9841 69.1957 61.7695 61.8384 60.0264 61.2866L60.4807 58.2057L48.5293 57.2033C48.5293 57.2033 49.3638 59.9623 45.9517 62.2431C44.1458 63.3954 42.5 64.7774 41.0562 66.354V68.6072C41.0562 68.6072 42.0483 68.9842 42.1224 69.8119H38.4786C38.4786 69.8119 38.9329 63.5674 38.4786 62.5098C38.4786 62.5098 42.9476 57.985 42.345 52.3934C42.345 52.3934 37.264 51.1151 38.4786 46.2225C39.6932 41.3299 45.3861 41.2471 46.7491 45.5327Z" fill="#E0E0E0"/>
<path d="M47.5095 83.2022C47.5095 83.2022 45.72 82.2273 44.5796 83.4321C44.4355 83.6296 44.3487 83.8625 44.3287 84.1055C44.3087 84.3485 44.3563 84.5923 44.4662 84.8104C44.5761 85.0284 44.7442 85.2124 44.9522 85.3424C45.1602 85.4723 45.4001 85.5432 45.6459 85.5473C45.6459 85.5473 49.0672 85.3542 50.6156 85.0783C52.3596 84.5932 54.0643 83.9783 55.7151 83.239L57.5695 79.174C57.5695 79.174 57.8013 77.2611 58.0423 77.2059C58.2834 77.1508 58.9695 79.174 58.9695 79.174L62.9379 80.296L63.3644 81.0685L60.1656 82.3837C60.1656 82.3837 60.6292 87.4326 60.1656 88.3247C59.7199 89.0577 59.1633 89.7184 58.5152 90.2836L58.7006 97.6409C58.7006 97.6409 59.4053 97.3558 59.4516 97.8708H57.5973C57.5973 97.8708 56.8463 93.2725 55.7429 92.9598L56.0211 91.0469L48.6036 90.4307C48.6036 90.4307 49.1228 92.1689 46.9996 93.5668C45.871 94.2752 44.8395 95.1252 43.9306 96.0959V97.4938C43.9306 97.4938 44.5425 97.7329 44.5981 98.2479H42.3729C42.3729 98.2479 42.6511 94.3669 42.3729 93.7048C42.3729 93.7048 45.1545 90.8906 44.7743 87.4418C44.7743 87.4418 41.6126 86.6509 42.3729 83.6068C43.1332 80.5627 46.675 80.5351 47.5095 83.2022Z" fill="#E0E0E0"/>
<path d="M46.2115 114.471C46.2115 114.471 44.8578 113.735 44.0048 114.646C43.896 114.794 43.8305 114.97 43.8155 115.153C43.8006 115.337 43.8367 115.52 43.92 115.685C44.0033 115.849 44.1305 115.987 44.2877 116.085C44.4449 116.182 44.6261 116.235 44.8115 116.237C44.8115 116.237 47.3798 116.09 48.5202 115.878C49.8297 115.518 51.1098 115.06 52.3495 114.508L53.7403 111.445C53.7403 111.445 53.9164 110.001 54.0926 109.965C54.2688 109.928 54.8065 111.445 54.8065 111.445L57.8013 112.337L58.1166 112.935L55.7059 113.919C55.7059 113.919 56.0582 117.727 55.7059 118.398C55.3719 118.95 54.9527 119.446 54.4635 119.869L54.6118 125.387C54.6118 125.387 55.1403 125.176 55.1774 125.562H53.8144C53.8144 125.562 53.2396 122.113 52.4237 121.883L52.6369 120.44L47.0738 119.98C47.1562 120.45 47.0834 120.934 46.8662 121.36C46.6491 121.786 46.2991 122.13 45.8685 122.343C45.0191 122.872 44.243 123.509 43.5598 124.238V125.213C43.5598 125.213 44.0141 125.397 44.0512 125.783H42.3359C42.4438 124.645 42.4438 123.499 42.3359 122.362C42.9423 121.735 43.4183 120.995 43.7364 120.186C44.0546 119.376 44.2088 118.512 44.1903 117.644C43.8748 117.58 43.5755 117.453 43.3102 117.272C43.0449 117.091 42.819 116.859 42.646 116.59C42.473 116.32 42.3564 116.019 42.3031 115.704C42.2498 115.389 42.261 115.067 42.3359 114.756C42.9108 112.503 45.5718 112.466 46.2115 114.471Z" fill="#E0E0E0"/>
<path d="M189.304 50.8209C189.304 50.9497 167.895 51.06 141.48 51.06C115.064 51.06 93.6558 50.9497 93.6558 50.8209C93.6558 50.6921 115.064 50.5818 141.48 50.5818C167.895 50.5818 189.304 50.7197 189.304 50.8209Z" fill="#E0E0E0"/>
<path d="M189.304 54.4811C189.304 54.6098 167.895 54.7202 141.48 54.7202C115.064 54.7202 93.6558 54.6098 93.6558 54.4811C93.6558 54.3523 115.064 54.2419 141.48 54.2419C167.895 54.2419 189.304 54.3431 189.304 54.4811Z" fill="#E0E0E0"/>
<path d="M189.304 58.1322C189.304 58.2701 167.895 58.3713 141.48 58.3713C115.064 58.3713 93.6558 58.2701 93.6558 58.1322C93.6558 57.9942 115.064 57.8931 141.48 57.8931C167.895 57.8931 189.304 58.0034 189.304 58.1322Z" fill="#E0E0E0"/>
<path d="M189.304 61.7557C189.304 61.8937 167.895 61.9948 141.48 61.9948C115.064 61.9948 93.6558 61.8937 93.6558 61.7557C93.6558 61.6178 115.064 61.5166 141.48 61.5166C167.895 61.5166 189.304 61.6638 189.304 61.7557Z" fill="#E0E0E0"/>
<path d="M189.304 82.5216C189.304 82.6595 167.895 82.7607 141.48 82.7607C115.064 82.7607 93.6558 82.6595 93.6558 82.5216C93.6558 82.3836 115.064 82.2825 141.48 82.2825C167.895 82.2825 189.304 82.3928 189.304 82.5216Z" fill="#E0E0E0"/>
<path d="M189.304 86.182C189.304 86.3199 167.895 86.4211 141.48 86.4211C115.064 86.4211 93.6558 86.3199 93.6558 86.182C93.6558 86.044 115.064 85.9429 141.48 85.9429C167.895 85.9429 189.304 86.0532 189.304 86.182Z" fill="#E0E0E0"/>
<path d="M189.304 89.8421C189.304 89.9709 167.895 90.0813 141.48 90.0813C115.064 90.0813 93.6558 89.9709 93.6558 89.8421C93.6558 89.7134 115.064 89.603 141.48 89.603C167.895 89.603 189.304 89.7134 189.304 89.8421Z" fill="#E0E0E0"/>
<path d="M189.304 93.5025C189.304 93.6313 167.895 93.7417 141.48 93.7417C115.064 93.7417 93.6558 93.6313 93.6558 93.5025C93.6558 93.3738 115.064 93.2634 141.48 93.2634C167.895 93.2634 189.304 93.3646 189.304 93.5025Z" fill="#E0E0E0"/>
<path d="M189.304 114.232C189.304 114.361 167.895 114.471 141.48 114.471C115.064 114.471 93.6558 114.361 93.6558 114.232C93.6558 114.103 115.064 113.993 141.48 113.993C167.895 113.993 189.304 114.103 189.304 114.232Z" fill="#E0E0E0"/>
<path d="M189.304 117.855C189.304 117.984 167.895 118.094 141.48 118.094C115.064 118.094 93.6558 117.984 93.6558 117.855C93.6558 117.727 115.064 117.616 141.48 117.616C167.895 117.616 189.304 117.754 189.304 117.855Z" fill="#E0E0E0"/>
<path d="M189.304 121.534C189.304 121.663 167.895 121.773 141.48 121.773C115.064 121.773 93.6558 121.663 93.6558 121.534C93.6558 121.405 115.064 121.295 141.48 121.295C167.895 121.295 189.304 121.414 189.304 121.534Z" fill="#E0E0E0"/>
<path d="M189.304 125.212C189.304 125.35 167.895 125.452 141.48 125.452C115.064 125.452 93.6558 125.35 93.6558 125.212C93.6558 125.075 115.064 124.973 141.48 124.973C167.895 124.973 189.304 125.075 189.304 125.212Z" fill="#E0E0E0"/>
<path d="M180.829 32.5562C180.829 33.8805 159.578 34.9565 133.376 34.9565C107.174 34.9565 85.9136 33.8805 85.9136 32.5562C85.9136 31.2319 107.155 30.165 133.376 30.165C159.597 30.165 180.829 31.2319 180.829 32.5562Z" fill="#E0E0E0"/>
<path d="M337.375 10.3554H334.77V5.46282C334.801 4.746 334.549 4.04546 334.068 3.50978C333.587 2.9741 332.914 2.64542 332.192 2.59346H312.36C311.64 2.64769 310.97 2.97735 310.491 3.51278C310.011 4.04821 309.761 4.74748 309.792 5.46282V10.3554H307.214V5.46282C307.174 4.05905 307.696 2.6966 308.665 1.67305C309.634 0.649505 310.973 0.0480318 312.388 0H332.22C333.637 0.0456544 334.978 0.64609 335.949 1.6699C336.92 2.69371 337.443 4.05751 337.403 5.46282L337.375 10.3554Z" fill="#EBEBEB"/>
<path d="M364.931 10.3555H279.231C274.556 10.3555 270.766 14.1147 270.766 18.752V70.0234C270.766 74.6607 274.556 78.42 279.231 78.42H364.931C369.606 78.42 373.396 74.6607 373.396 70.0234V18.752C373.396 14.1147 369.606 10.3555 364.931 10.3555Z" fill="#EBEBEB"/>
<path d="M325.359 30.6432H319.203V58.0033H325.359V30.6432Z" fill="#F5F5F5"/>
<path d="M308.484 41.2745V47.3811H336.068V41.2745H308.484Z" fill="#F5F5F5"/>
<path d="M345.228 44.3923C345.228 44.3923 345.228 44.2636 345.228 44.0245C345.228 43.7854 345.182 43.3991 345.145 42.9393C345.145 42.7001 345.145 42.4334 345.099 42.1483C345.052 41.8633 344.997 41.5414 344.941 41.2287C344.838 40.4363 344.677 39.6525 344.459 38.8835C343.92 36.7553 343.057 34.721 341.9 32.8505C338.866 27.8864 334.034 24.2593 328.394 22.7106C322.753 21.1619 316.729 21.8085 311.553 24.5183C310.586 25.0461 309.657 25.6392 308.772 26.2933C307.866 26.9636 307.005 27.6917 306.194 28.4729C305.393 29.2923 304.65 30.165 303.969 31.0848C302.556 32.971 301.457 35.07 300.714 37.3017C299.144 41.9226 299.144 46.9265 300.714 51.5473C301.452 53.7794 302.547 55.8788 303.959 57.7643C304.646 58.685 305.393 59.5605 306.194 60.3853C307.005 61.1662 307.866 61.8942 308.772 62.5649C309.657 63.2191 310.586 63.8121 311.553 64.3399C312.511 64.8383 313.503 65.2716 314.52 65.6366C318.35 67.0195 322.482 67.3624 326.49 66.6299C329.669 66.0374 332.685 64.7847 335.341 62.954C337.997 61.1233 340.232 58.7561 341.9 56.0077C343.057 54.1372 343.92 52.1029 344.459 49.9747C344.677 49.2057 344.838 48.4219 344.941 47.6296C344.997 47.2801 345.062 46.9674 345.099 46.7099C345.136 46.4524 345.099 46.1581 345.145 45.919C345.145 45.4591 345.21 45.1005 345.228 44.8338C345.247 44.5671 345.228 44.4659 345.228 44.4659C345.245 44.588 345.245 44.7117 345.228 44.8338C345.228 45.1005 345.228 45.4591 345.228 45.919C345.228 46.1642 345.228 46.4309 345.228 46.7191C345.228 47.0134 345.145 47.3353 345.099 47.6847C345.005 48.4848 344.856 49.2775 344.654 50.0575C344.134 52.2122 343.29 54.277 342.15 56.1825C340.479 58.987 338.226 61.4073 335.541 63.2829C332.855 65.1586 329.799 66.4468 326.574 67.0621C322.499 67.8372 318.29 67.5197 314.381 66.1424C313.341 65.7731 312.328 65.3337 311.349 64.8273C310.357 64.2787 309.402 63.6642 308.493 62.988C307.569 62.3055 306.69 61.5652 305.86 60.7716C305.041 59.9339 304.279 59.0429 303.579 58.1046C302.132 56.1777 301.008 54.0318 300.251 51.7497C299.483 49.4021 299.08 46.9522 299.055 44.4843C299.084 42.0138 299.487 39.5616 300.251 37.2097C301.014 34.9329 302.138 32.7909 303.579 30.864C304.279 29.926 305.041 29.0351 305.86 28.197C306.658 27.3726 307.51 26.6015 308.41 25.8886C309.312 25.2073 310.264 24.5925 311.256 24.0493C312.236 23.5429 313.249 23.1035 314.288 22.7342C318.194 21.3572 322.4 21.0398 326.472 21.8145C329.698 22.4287 332.757 23.7163 335.444 25.592C338.131 27.4677 340.385 29.8886 342.058 32.6942C343.197 34.5996 344.041 36.6644 344.561 38.8192C344.764 39.5989 344.913 40.3918 345.006 41.1919C345.052 41.5414 345.108 41.8541 345.136 42.1116C345.164 42.3691 345.136 42.6726 345.136 42.9209C345.136 43.3715 345.136 43.7394 345.136 44.0061C345.185 44.1299 345.216 44.2599 345.228 44.3923Z" fill="#F5F5F5"/>
<path d="M404.105 15.3676V5.07654H396.808V15.3676H389.465V74.2262H410.929V15.3676H404.105Z" fill="#EBEBEB"/>
<path d="M436 74.2354H258.945V83.1929H436V74.2354Z" fill="#E0E0E0"/>
<path d="M298.703 83.2021H293.547V104.382H298.703V83.2021Z" fill="#E0E0E0"/>
<path d="M401.787 83.2021H396.632V104.382H401.787V83.2021Z" fill="#E0E0E0"/>
<path d="M364.18 31.2043V23.6814H358.84V31.2043H353.471V74.2355H369.159V31.2043H364.18Z" fill="#FAFAFA"/>
<path d="M381.982 31.2043V23.6814H376.651V31.2043H371.283V74.2355H386.952V31.2043H381.982Z" fill="#F5F5F5"/>
<path d="M293.547 46.2776H265.361V74.2354H293.547V46.2776Z" fill="#E0E0E0"/>
<path d="M293.408 53.4786C293.408 53.6626 287.187 53.8097 279.501 53.8097C271.814 53.8097 265.593 53.6626 265.593 53.4786C265.593 53.2947 271.814 53.1567 279.501 53.1567C287.187 53.1567 293.408 53.2855 293.408 53.4786Z" fill="#EBEBEB"/>
<path d="M280.521 57.1573C280.521 57.1573 280.623 57.1573 280.808 57.2033C281.077 57.2767 281.33 57.3949 281.559 57.5527C282.391 58.1802 282.946 59.1031 283.107 60.1278C283.46 61.6315 283.196 63.2124 282.375 64.5238C281.856 65.3043 281.084 65.8852 280.187 66.17C279.229 66.4409 278.214 66.4409 277.257 66.17C276.32 65.9657 275.458 65.5077 274.767 64.847C274.077 64.1862 273.584 63.3486 273.344 62.427C273.174 61.6698 273.207 60.8817 273.44 60.1411C273.673 59.4005 274.097 58.7332 274.67 58.2057C275.435 57.5167 276.419 57.1163 277.452 57.0745C277.827 57.0276 278.207 57.0916 278.546 57.2584C278.546 57.3136 278.147 57.2584 277.479 57.332C276.533 57.4566 275.653 57.8789 274.967 58.5368C274.483 59.0229 274.133 59.6238 273.949 60.2822C273.766 60.9406 273.755 61.6347 273.919 62.2982C274.343 63.4916 275.196 64.4874 276.316 65.0936C277.436 65.6998 278.742 65.8735 279.983 65.5814C280.74 65.3416 281.393 64.8556 281.837 64.2019C282.586 63.0233 282.858 61.6072 282.597 60.2382C282.494 59.2982 282.053 58.4266 281.355 57.7827C280.891 57.3228 280.502 57.2125 280.521 57.1573Z" fill="#EBEBEB"/>
<path d="M30.9871 279.082C25.081 276.065 18.1363 275.67 11.5811 276.746C8.05784 277.325 4.38619 278.365 1.98478 280.986C-0.416631 283.607 -0.861681 288.233 1.89206 290.486C3.5239 291.829 5.81405 292.031 7.9373 292.003C13.0646 291.948 18.7575 291.084 22.865 294.109C25.2015 295.857 26.7592 298.763 29.55 299.627C32.3408 300.492 35.3727 298.864 36.8284 296.418C38.1596 293.865 38.4549 290.903 37.6536 288.141C37.321 286.223 36.5463 284.408 35.3899 282.837C34.2336 281.266 32.7268 279.98 30.9871 279.082Z" fill="#EBEBEB"/>
<path d="M44.5149 253.184C40.9082 258.298 33.8894 256.605 30.6072 253.478C27.3249 250.352 25.9712 245.836 24.7288 241.523C21.8638 231.664 18.9803 221.29 21.1128 211.275C21.6229 208.231 22.9704 205.386 25.007 203.053C27.1302 200.828 30.4032 199.503 33.3516 200.294C36.8935 201.214 39.0909 204.663 40.6764 207.927C45.3587 217.582 47.8134 228.151 47.8621 238.865C47.8621 243.85 47.2872 249.073 44.45 253.193" fill="#EBEBEB"/>
<path d="M54.4355 260.523C50.5136 255.925 49.7996 249.174 51.5149 243.39C53.2302 237.605 57.1986 232.694 61.7139 228.675C67.0671 223.955 73.2965 220.316 80.0537 217.961C82.6651 216.915 85.4738 216.441 88.2871 216.572C91.0686 216.839 93.8965 218.255 95.1946 220.72C97.1231 224.399 95.278 228.795 93.2753 232.4C89.7489 238.761 85.7184 244.835 81.2219 250.563C77.6152 255.161 73.4892 259.76 67.991 261.811C62.4928 263.861 56.7906 263.65 53.8792 259.87" fill="#EBEBEB"/>
<path d="M44.7653 330.298C44.5628 329.538 44.4507 328.757 44.4315 327.971C44.2646 326.288 44.0606 324.164 43.8103 321.635C43.4946 318.51 43.0149 315.403 42.3731 312.328C41.5369 308.582 40.3958 304.91 38.9611 301.347C37.561 297.789 35.6599 294.445 33.3145 291.415C31.4015 288.949 28.9598 286.935 26.1659 285.52C24.2701 284.597 22.2393 283.976 20.1485 283.68C19.3607 283.646 18.5781 283.535 17.812 283.349C18.6004 283.256 19.3972 283.256 20.1856 283.349C22.3596 283.507 24.4866 284.055 26.4626 284.968C29.404 286.344 31.9841 288.378 34.0007 290.909C36.4507 293.973 38.4257 297.383 39.8605 301.025C41.3149 304.642 42.4473 308.378 43.2447 312.19C43.8551 315.301 44.2731 318.446 44.4964 321.607C44.7004 324.302 44.7746 326.482 44.8116 327.99C44.8793 328.759 44.8637 329.533 44.7653 330.298Z" fill="#E0E0E0"/>
<path d="M44.32 325.461C44.2534 325.103 44.2316 324.739 44.2551 324.376C44.2551 323.566 44.2551 322.536 44.2551 321.295C44.2551 318.618 44.2551 314.747 44.1161 309.964C43.875 300.4 43.0498 290.1 41.4458 275.587C39.9252 261.939 37.8854 246.057 35.7343 235.738C35.28 233.384 34.8071 231.269 34.3714 229.42C33.9356 227.571 33.6018 225.971 33.2587 224.675C32.9157 223.378 32.721 222.467 32.5355 221.676C32.4321 221.329 32.3668 220.971 32.3408 220.61C32.5024 220.933 32.6298 221.272 32.721 221.621C32.9528 222.403 33.2587 223.378 33.6482 224.583C34.0376 225.787 34.4641 227.452 34.9277 229.3C35.3913 231.149 35.929 233.246 36.4297 235.591C39.0962 247.802 41.1018 260.147 42.4379 272.571C44.0419 287.12 44.7651 300.363 44.83 309.946C44.8856 314.747 44.7836 318.628 44.6631 321.304C44.5797 322.555 44.524 323.575 44.4684 324.385C44.4625 324.748 44.4127 325.109 44.32 325.461Z" fill="#E0E0E0"/>
<path d="M44.2553 299.949C44.1701 298.878 44.1701 297.802 44.2553 296.73C44.4434 293.803 44.7839 290.886 45.2752 287.994C45.985 283.704 46.9384 279.458 48.1309 275.275C49.5331 270.132 51.3277 265.102 53.4993 260.229C57.9405 249.772 63.9858 241.21 69.2615 235.913C70.4244 234.699 71.6631 233.56 72.9702 232.501C73.5358 232.023 74.0457 231.581 74.5557 231.167L75.9928 230.193C76.8701 229.538 77.8005 228.957 78.7744 228.454C78.9227 228.666 74.8987 231.011 69.8085 236.382C63.3153 243.521 58.0977 251.707 54.3801 260.587C52.2518 265.432 50.4521 270.413 48.9932 275.495C47.7657 279.638 46.7507 283.84 45.952 288.086C45.2752 291.709 44.8858 294.67 44.654 296.721C44.6058 297.806 44.4725 298.885 44.2553 299.949Z" fill="#E0E0E0"/>
<path d="M69.1409 344.967L66.5634 380.034H21.1498L18.5723 344.967H69.1409Z" fill="#E0E0E0"/>
<path d="M73.5355 331.153H13.1572V344.976H73.5355V331.153Z" fill="#E0E0E0"/>
<path d="M73.5263 378.691V382.517H70.6984H14.1494V378.691H73.5263Z" fill="#EBEBEB"/>
<path d="M67.9167 389.258L70.6982 382.517H16.3188L19.564 389.258H67.9167Z" fill="#E0E0E0"/>
<path d="M19.416 356.426C19.4734 356.541 19.545 356.65 19.6293 356.748L20.3061 357.667L22.9486 361.024L23.0691 361.18L23.1804 361.024C24.8493 358.743 27.0653 355.69 29.6707 352.103H29.2998L35.6974 361.088L35.9014 361.374L36.1239 361.107L43.7083 352.149H43.2725L43.6897 352.664L50.4767 361.107L50.6992 361.383L50.9125 361.098C53.2119 357.86 55.3722 354.844 57.3101 352.113H56.9392L64.8295 361.015L64.9686 361.18L65.0706 360.997C66.109 359.268 66.925 357.888 67.5369 356.886L68.1767 355.791C68.2573 355.668 68.3227 355.535 68.3714 355.396C68.2676 355.501 68.1773 355.618 68.1025 355.745C67.9171 356.021 67.6853 356.371 67.4071 356.803L64.811 360.84H65.0613L57.3008 351.818L57.1061 351.588L56.9299 351.837L50.4396 360.785H50.8754C48.7243 358.109 46.4527 355.267 44.107 352.333L43.6897 351.818L43.4765 351.552L43.2539 351.809L35.6788 360.785H36.1053C33.7688 357.548 31.5992 354.54 29.615 351.846L29.4296 351.579L29.2442 351.846L22.8837 360.859H23.1155L20.3339 357.585C20.0372 357.244 19.7962 356.959 19.5922 356.738C19.3882 356.518 19.4253 356.417 19.416 356.426Z" fill="#F5F5F5"/>
<path d="M17.9321 344.737C17.9321 344.893 29.3087 345.022 43.3463 345.022C57.3838 345.022 68.7604 344.893 68.7604 344.737C68.7604 344.581 57.3838 344.461 43.3463 344.461C29.3087 344.461 17.9321 344.581 17.9321 344.737Z" fill="#F5F5F5"/>
<path d="M15.6514 382.894C15.6514 383.05 28.0107 383.179 43.2629 383.179C58.5151 383.179 70.8838 383.05 70.8838 382.894C70.8838 382.737 58.5244 382.618 43.2629 382.618C28.0015 382.618 15.6514 382.719 15.6514 382.894Z" fill="#F5F5F5"/>
<path d="M414.87 116.09H329.244V204.626H414.87V116.09Z" fill="#E0E0E0"/>
<path d="M409.075 116.09H323.449V204.626H409.075V116.09Z" fill="#EBEBEB"/>
<path d="M397.559 127.99H334.955V192.725H397.559V127.99Z" fill="#FAFAFA"/>
<path d="M334.955 193.148C334.502 193.791 333.979 194.383 333.397 194.914C332.387 195.953 330.978 197.37 329.411 198.906C327.844 200.441 326.388 201.821 325.322 202.796C324.781 203.36 324.181 203.866 323.532 204.304C323.992 203.672 324.514 203.087 325.09 202.557C326.101 201.508 327.51 200.092 329.086 198.556C330.662 197.02 332.118 195.632 333.175 194.657C333.719 194.099 334.315 193.594 334.955 193.148Z" fill="#E0E0E0"/>
<path d="M397.568 192.992C398.205 193.456 398.798 193.976 399.339 194.546C400.387 195.539 401.815 196.937 403.363 198.501C404.912 200.064 406.302 201.499 407.295 202.547C407.861 203.089 408.373 203.683 408.824 204.322C408.18 203.871 407.587 203.353 407.053 202.777C406.006 201.784 404.578 200.386 403.02 198.813C401.463 197.241 400.072 195.815 399.089 194.758C398.523 194.222 398.013 193.631 397.568 192.992Z" fill="#E0E0E0"/>
<path d="M397.392 128.165C397.857 127.529 398.382 126.938 398.959 126.399C399.97 125.36 401.37 123.943 402.946 122.408C404.522 120.872 405.969 119.492 407.035 118.517C407.575 117.95 408.175 117.441 408.824 117C408.359 117.631 407.838 118.219 407.267 118.757C406.256 119.796 404.847 121.212 403.27 122.757C401.694 124.302 400.239 125.672 399.182 126.647C398.639 127.212 398.039 127.721 397.392 128.165Z" fill="#E0E0E0"/>
<path d="M334.788 128.321C334.149 127.861 333.555 127.341 333.017 126.767C331.96 125.774 330.542 124.376 328.984 122.812C327.426 121.249 326.054 119.814 325.062 118.766C324.496 118.224 323.983 117.63 323.532 116.991C324.176 117.442 324.77 117.96 325.303 118.536C326.351 119.529 327.779 120.927 329.336 122.5C330.894 124.072 332.276 125.498 333.268 126.555C333.834 127.091 334.344 127.682 334.788 128.321Z" fill="#E0E0E0"/>
<path d="M397.392 192.725C397.392 192.725 397.392 192.615 397.392 192.413C397.392 192.21 397.392 191.898 397.392 191.493C397.392 190.684 397.392 189.516 397.392 187.998C397.392 184.936 397.392 180.475 397.392 174.81C397.392 163.471 397.327 147.321 397.281 127.972L397.485 128.174H335.058L335.299 127.944C335.299 151.699 335.299 173.927 335.299 192.679L335.095 192.477L380.313 192.578L393.016 192.633H396.372H397.235H397.531H396.409H393.099H380.443L335.095 192.734H334.9V192.541C334.9 173.789 334.9 151.561 334.9 127.806V127.567H335.141H397.568H397.782V127.972C397.782 147.367 397.707 163.572 397.68 174.939C397.68 180.586 397.68 185.055 397.624 188.081C397.624 189.58 397.624 190.739 397.624 191.539C397.624 191.916 397.624 192.201 397.624 192.459C397.624 192.716 397.392 192.725 397.392 192.725Z" fill="#E0E0E0"/>
<path d="M351.487 155.028C351.487 155.028 350.143 171.058 367.639 171.058C367.639 162.505 360.527 155.755 351.487 155.028Z" fill="#EBEBEB"/>
<path d="M383.503 155.047C383.503 155.047 367.342 153.713 367.342 171.067C375.965 171.067 382.77 164.013 383.503 155.047Z" fill="#EBEBEB"/>
<path d="M366.869 146.273C366.869 146.273 353.666 158.026 367.592 171.058C374.064 164.252 373.517 153.584 366.869 146.273Z" fill="#E0E0E0"/>
<path d="M156.36 233.683C156.36 233.683 142.141 231.391 140.956 231.434C139.77 231.478 128.494 233.749 128.494 233.749C128.494 233.749 112.54 236.651 110.931 237.84C109.322 239.03 110.508 242.766 110.508 242.766C112.279 243.492 117.86 242.353 117.86 242.353C117.922 243.621 118.254 244.859 118.834 245.98C119.836 248.055 122.574 247.533 122.574 247.533L120.457 248.664C120.636 249.979 120.958 251.269 121.417 252.509C122.193 254.686 127.28 254.374 127.28 254.374C127.28 254.374 128.621 257.479 130.731 258.001C132.841 258.524 143.82 255.876 147.08 255.513C150.34 255.15 156.592 251.16 156.592 251.16C159.107 252.079 161.668 252.861 164.263 253.503L165.864 232.203C164.665 232.124 156.36 233.683 156.36 233.683Z" fill="#455A64"/>
<path d="M99.3661 301.239C93.3047 299.672 88.7181 294.224 86.6648 288.181C84.6114 282.137 84.6608 275.507 85.2535 269.115C85.4837 267.934 85.3884 266.711 84.9783 265.582C84.1668 263.87 81.937 263.275 80.1659 263.841C78.3948 264.407 77.0329 265.843 75.9321 267.345C72.8029 271.503 70.9145 276.505 70.4963 281.745C70.078 286.985 71.1477 292.237 73.5757 296.864C76.0037 301.49 79.6855 305.293 84.1746 307.811C88.6636 310.329 93.7668 311.453 98.8651 311.047" fill="#FF725E"/>
<path d="M145.317 241.098C145.317 241.098 159.521 266.395 163.113 276.566C166.704 286.737 171.277 314.704 171.277 314.704C171.277 314.704 192.601 320.348 179.392 343.926C174.509 352.632 174.946 356.68 169.47 356.941C165.237 357.137 130.858 356.868 130.858 356.868L131.479 360.329C131.479 360.329 128.6 370.326 122.786 367.504C116.972 364.682 110.085 356.868 110.085 356.868L100.086 356.73L76.2849 356.905L69.3203 356.767V356.571C69.5576 354.626 70.3375 352.792 71.5658 351.293C72.7941 349.793 74.4184 348.691 76.2425 348.119L81.3513 346.523C81.3513 346.523 74.7113 317.852 80.4622 310.975C86.2131 304.098 95.5698 304.569 95.5698 304.569L91.2725 275.064C90.4186 268.147 91.0964 261.121 93.2553 254.512L96.48 244.652L145.317 241.098Z" fill="#FF725E"/>
<path d="M95.958 305.556C105.837 311.309 112.456 320.95 115.765 331.963C115.765 332.079 115.97 332.028 115.934 331.92C113.373 323.381 108.822 315.473 102.111 309.698C100.219 308.083 98.1901 306.643 96.0497 305.396C95.9509 305.338 95.8592 305.498 95.958 305.556Z" fill="#263238"/>
<path d="M96.1696 245.661C96.1696 245.661 91.5336 258.393 91.1455 264.755C90.5034 275.311 95.591 304.555 95.591 304.555C95.591 304.555 93.8481 333.218 92.338 337.469C90.828 341.72 91.456 345.638 84.5761 347.082C82.7203 347.473 79.4814 353.662 79.4814 356.731H98.724C98.724 356.731 103.932 350.68 104.179 345.021C104.425 339.363 113.585 308.617 113.585 308.617" fill="#FF725E"/>
<path d="M113.584 308.617C113.584 308.617 113.584 308.697 113.528 308.849C113.471 309.002 113.422 309.241 113.337 309.531C113.168 310.134 112.921 311.019 112.597 312.158C111.94 314.479 110.995 317.853 109.774 322.133C108.553 326.413 107.156 331.637 105.717 337.643C105.357 339.145 105.011 340.698 104.7 342.308C104.63 342.71 104.559 343.116 104.489 343.527C104.418 343.933 104.39 344.347 104.341 344.76L104.214 346.037C104.143 346.465 104.072 346.893 103.967 347.321C102.94 350.837 101.187 354.083 98.8297 356.839L98.7873 356.897H98.7097H79.4672H79.2837V356.716C79.4556 354.795 80.0156 352.932 80.9278 351.246C81.3578 350.37 81.8557 349.53 82.4167 348.736C82.7056 348.334 83.0266 347.958 83.3763 347.611C83.7343 347.233 84.1894 346.966 84.6888 346.842C86.5235 346.429 88.4357 345.725 89.6282 344.187C90.8207 342.649 91.1665 340.56 91.7451 338.601C91.8439 338.231 91.9709 337.876 92.0909 337.506C92.2108 337.136 92.2814 336.78 92.3802 336.432C92.5213 335.706 92.6766 334.981 92.7753 334.255C93.0011 332.804 93.1776 331.296 93.3398 329.823C93.6715 326.877 93.9255 323.968 94.1725 321.117C94.6523 315.386 95.0475 309.851 95.3862 304.569V304.613C93.9255 295.951 92.7612 287.927 91.9356 280.672C91.5264 277.045 91.23 273.657 91.0465 270.516C90.8079 267.61 90.9288 264.684 91.4064 261.81C91.8933 259.205 92.5213 256.913 93.0858 254.925C93.6503 252.937 94.2007 251.262 94.6523 249.898C95.1039 248.534 95.4779 247.504 95.7249 246.8L96.0212 246.009C96.0918 245.828 96.1341 245.741 96.1341 245.741L96.0495 246.016C95.986 246.212 95.8942 246.473 95.7813 246.822C95.5485 247.547 95.2027 248.585 94.7582 249.934C94.3136 251.283 93.8056 252.988 93.2481 254.976C92.6907 256.964 92.0838 259.256 91.6111 261.853C91.1494 264.73 91.0451 267.655 91.3006 270.559C91.4699 273.722 91.8016 277.088 92.225 280.716C93.0647 287.927 94.2501 295.951 95.7531 304.656V304.7C95.4215 309.988 95.0475 315.524 94.5606 321.255C94.3207 324.121 94.0596 327.059 93.735 329.961C93.5656 331.412 93.3892 332.921 93.1634 334.408C93.0647 335.133 92.9094 335.895 92.7683 336.642C92.6624 337.012 92.5707 337.368 92.4649 337.759C92.359 338.151 92.225 338.485 92.1262 338.833C91.8439 339.813 91.6181 340.806 91.3147 341.793C91.032 342.789 90.5701 343.722 89.9528 344.543C89.3034 345.335 88.4913 345.969 87.5748 346.4C86.6724 346.823 85.7252 347.137 84.7523 347.336C84.3154 347.441 83.9181 347.676 83.6092 348.01C83.2741 348.341 82.9672 348.7 82.6919 349.084C82.1436 349.86 81.6575 350.68 81.2383 351.536C80.3487 353.17 79.7985 354.976 79.6224 356.839L79.446 356.658H98.6885L98.5686 356.709C100.898 353.995 102.633 350.799 103.656 347.336C103.755 346.922 103.833 346.501 103.903 346.088L104.03 344.833C104.08 344.412 104.115 343.984 104.178 343.57C104.242 343.157 104.327 342.751 104.404 342.344C104.715 340.734 105.074 339.174 105.434 337.672C106.895 331.658 108.363 326.464 109.569 322.169C110.776 317.874 111.778 314.523 112.462 312.223C112.808 311.091 113.069 310.213 113.253 309.604L113.464 308.937C113.495 308.827 113.535 308.72 113.584 308.617Z" fill="#263238"/>
<path d="M147.278 258.894C147.278 258.894 147.349 259.046 147.469 259.358L147.977 260.751C148.422 261.984 149.064 263.79 149.896 266.112C151.54 270.777 153.918 277.524 156.677 285.932C157.383 288.036 158.089 290.241 158.759 292.563C159.112 293.716 159.465 294.906 159.768 296.125C160.056 297.378 160.27 298.647 160.41 299.926C161.024 305.113 161.313 310.685 161.638 316.539C161.963 322.394 162.231 328.546 162.647 334.908C162.866 338.086 163.092 341.329 163.529 344.579C163.642 345.391 163.769 346.211 163.945 347.009C164.032 347.413 164.145 347.811 164.284 348.199C164.347 348.379 164.433 348.549 164.538 348.707C164.588 348.765 164.644 348.837 164.693 348.852C164.778 348.891 164.866 348.925 164.955 348.954C165.758 349.194 166.518 349.566 167.205 350.056C167.551 350.305 167.872 350.586 168.165 350.898C168.452 351.22 168.706 351.573 168.92 351.95C169.741 353.5 169.992 355.303 169.626 357.028V357.173H169.478H147.963H147.779V356.992C147.864 355.144 148.136 353.311 148.591 351.522C149 349.759 149.466 348.039 150.002 346.356V346.429C148.704 337.723 147.476 329.663 146.326 322.488C145.74 318.905 145.197 315.531 144.59 312.426C144.505 312.042 144.442 311.65 144.343 311.28L144.202 310.728C144.142 310.553 144.069 310.384 143.983 310.221C143.634 309.576 143.23 308.965 142.777 308.392C141.916 307.246 141.02 306.216 140.173 305.208C136.736 301.261 133.871 298.279 131.924 296.226L129.68 293.883L129.108 293.281C128.974 293.143 128.918 293.071 128.918 293.071L129.123 293.259L129.722 293.84C130.245 294.376 131.004 295.145 132.002 296.146C133.97 298.178 136.863 301.138 140.328 305.063C141.182 306.056 142.085 307.094 142.96 308.255C143.428 308.835 143.841 309.459 144.195 310.119C144.29 310.29 144.371 310.47 144.435 310.656L144.576 311.222C144.682 311.599 144.745 311.984 144.83 312.375C145.458 315.488 146.008 318.854 146.601 322.445C147.779 329.62 149.028 337.68 150.334 346.385V346.465C149.833 348.141 149.367 349.853 148.965 351.609C148.522 353.373 148.255 355.179 148.168 356.999L147.991 356.818L169.506 356.774L169.322 356.919C169.653 355.29 169.402 353.593 168.617 352.138C168.413 351.787 168.176 351.457 167.911 351.152C167.633 350.863 167.331 350.601 167.008 350.368C166.362 349.903 165.647 349.547 164.891 349.316C164.786 349.281 164.682 349.239 164.581 349.193C164.459 349.134 164.356 349.041 164.284 348.925C164.154 348.743 164.052 348.543 163.981 348.33C163.834 347.933 163.716 347.525 163.628 347.111C163.444 346.291 163.317 345.471 163.205 344.651C162.767 341.372 162.541 338.122 162.323 334.945C161.913 328.575 161.617 322.423 161.335 316.569C161.052 310.714 160.742 305.15 160.149 299.977C160.011 298.71 159.801 297.453 159.521 296.212C159.206 294.998 158.874 293.813 158.526 292.657C157.821 290.343 157.115 288.137 156.466 286.033C153.742 277.618 151.399 270.857 149.798 266.177C148.993 263.849 148.386 262.035 147.942 260.787C147.737 260.185 147.575 259.713 147.469 259.387C147.363 259.06 147.278 258.894 147.278 258.894Z" fill="#263238"/>
<path d="M128.488 325.709C128.347 325.618 128.215 325.514 128.092 325.397L127.013 324.454C126.095 323.613 124.797 322.35 123.294 320.696C119.408 316.354 115.808 311.749 112.519 306.912C109.182 302.117 106.164 297.095 103.487 291.881C102.478 289.864 101.758 288.188 101.3 287.013C101.102 286.447 100.94 285.997 100.813 285.649C100.75 285.492 100.7 285.329 100.665 285.163C100.753 285.307 100.826 285.46 100.883 285.62L101.434 286.955C101.935 288.108 102.683 289.762 103.72 291.757C106.458 296.921 109.497 301.91 112.823 306.695C116.105 311.504 119.666 316.107 123.485 320.479C124.959 322.155 126.222 323.439 127.112 324.309L128.142 325.303C128.269 325.428 128.384 325.564 128.488 325.709Z" fill="#263238"/>
<path d="M116.654 322.931C117.958 327.217 118.822 331.633 119.229 336.105C119.242 336.582 119.432 337.036 119.76 337.373C120.088 337.711 120.53 337.906 120.994 337.919C121.461 337.917 121.908 337.725 122.239 337.386C122.569 337.046 122.756 336.586 122.758 336.105C122.342 331.308 121.436 326.568 120.055 321.966C119.931 321.502 119.632 321.108 119.225 320.871C118.818 320.633 118.336 320.572 117.885 320.7C117.434 320.828 117.051 321.135 116.82 321.553C116.589 321.971 116.529 322.467 116.654 322.931Z" fill="#FF725E"/>
<path d="M96.2824 248.577C95.6826 233.059 94.5959 214.944 96.24 209.039C97.8841 203.134 109.435 191.468 116.075 188.726C122.715 185.984 133.716 189.625 137.033 192.651L157.933 187.485C157.933 187.485 162.033 197.257 156.981 205.093C151.928 212.928 137.025 212.841 137.025 212.841C137.025 212.841 135.692 221.365 142.064 222.112C148.435 222.859 156.917 221.836 157.729 228.961L144.639 230.165L145.345 242.034L120.436 255.643L97.115 248.722" fill="#FF725E"/>
<path d="M114.184 198.179C114.259 198.386 114.304 198.604 114.318 198.824L114.579 200.696C114.791 202.415 115.073 204.744 115.426 207.581C115.779 210.417 116.132 213.987 116.59 217.81C116.855 219.831 117.011 221.865 117.056 223.904C117.133 226.131 116.776 228.351 116.005 230.433C115.169 232.549 113.572 234.251 111.545 235.185C109.651 235.989 107.563 236.179 105.561 235.729C103.759 235.347 102.082 234.495 100.692 233.255C99.5183 232.159 98.5601 230.842 97.8699 229.374C96.8665 227.262 96.3292 224.948 96.2964 222.598C96.2781 221.966 96.2993 221.334 96.3599 220.705C96.3662 220.482 96.4043 220.262 96.4728 220.052C96.5292 220.052 96.4375 220.958 96.5363 222.584C96.666 224.876 97.2546 227.116 98.2651 229.164C98.9708 230.564 99.9286 231.815 101.088 232.849C102.423 234.008 104.023 234.8 105.738 235.149C107.629 235.562 109.599 235.373 111.383 234.605C113.263 233.733 114.742 232.147 115.511 230.179C116.246 228.179 116.591 226.049 116.527 223.911C116.486 221.895 116.345 219.883 116.103 217.882C115.715 214.045 115.362 210.577 115.066 207.632C114.77 204.686 114.586 202.444 114.424 200.718C114.368 199.992 114.318 199.339 114.276 198.839C114.22 198.623 114.189 198.402 114.184 198.179Z" fill="#263238"/>
<path d="M151.702 189.125C151.676 190.284 152.085 191.409 152.845 192.266C153.598 193.025 154.529 193.57 155.548 193.848C156.824 194.382 158.243 194.428 159.549 193.978C159.547 192.255 159.285 190.541 158.773 188.9C158.721 188.64 158.618 188.394 158.47 188.177C158.322 187.959 158.132 187.776 157.912 187.638C157.636 187.536 157.341 187.506 157.051 187.551C155.179 187.693 153.357 188.237 151.702 189.147" fill="#263238"/>
<g opacity="0.3">
<path d="M96.5009 223.955C97.0654 227.793 98.0957 231.993 100.643 234.837C103.19 237.681 107.205 239.378 110.846 238.377C115.327 237.144 118.093 232.247 118.453 227.495C118.813 222.743 117.268 218.064 115.743 213.581C116.449 217.868 117.204 222.286 116.223 226.523C115.242 230.76 112.109 234.772 107.911 235.287C106.442 235.418 104.964 235.187 103.6 234.611C102.237 234.036 101.027 233.133 100.071 231.979C98.0531 229.78 96.7936 226.961 96.4868 223.955" fill="black"/>
</g>
<path d="M159.619 195.676C159.676 196.048 159.676 196.428 159.619 196.8C159.54 197.82 159.382 198.831 159.147 199.826C158.8 201.306 158.294 202.741 157.637 204.106C156.842 205.812 155.693 207.317 154.271 208.517C152.82 209.655 151.203 210.549 149.48 211.165C148.091 211.682 146.663 212.077 145.211 212.347C144.236 212.539 143.251 212.667 142.261 212.732C141.901 212.793 141.534 212.793 141.174 212.732C141.174 212.63 142.706 212.499 145.119 211.919C146.532 211.591 147.921 211.159 149.275 210.628C150.927 210.001 152.48 209.126 153.883 208.031C155.233 206.887 156.336 205.466 157.122 203.859C157.784 202.541 158.318 201.158 158.716 199.731C159.401 197.257 159.507 195.669 159.619 195.676Z" fill="#263238"/>
<path d="M129.165 198.926C128.7 199.123 128.328 199.499 128.13 199.974C127.933 200.45 127.924 200.986 128.107 201.467C128.289 201.949 128.648 202.338 129.107 202.55C129.565 202.762 130.087 202.781 130.558 202.602C131.03 202.424 131.415 202.062 131.63 201.594C131.845 201.127 131.873 200.592 131.708 200.103C131.543 199.615 131.198 199.213 130.748 198.983C130.297 198.753 129.777 198.715 129.299 198.875" fill="#263238"/>
<path d="M121.946 201.226C121.713 201.32 121.325 201.008 121.036 200.326C120.684 199.42 120.611 198.425 120.824 197.475C121.007 196.519 121.472 195.645 122.158 194.972C122.694 194.472 123.174 194.348 123.35 194.53C123.71 194.936 122.983 196.22 122.645 197.881C122.306 199.543 122.468 201.008 121.946 201.226Z" fill="#263238"/>
<path d="M147.956 328.14C147.956 328.183 147.25 328.14 145.931 328.205C145.142 328.242 144.357 328.337 143.581 328.488C142.557 328.678 141.572 329.044 140.667 329.569C138.641 330.722 136.673 332.79 134.415 334.93C132.157 337.07 130.117 339.936 127.182 342.105C125.755 343.179 124.105 343.899 122.362 344.209C120.676 344.492 119.046 344.455 117.515 344.579C116.073 344.627 114.658 344.994 113.366 345.652C112.261 346.268 111.313 347.143 110.6 348.206C109.539 349.747 108.981 351.593 109.005 353.48C109.044 354.17 109.131 354.856 109.266 355.533C109.019 354.88 108.883 354.188 108.864 353.488C108.779 351.554 109.314 349.644 110.388 348.054C111.109 346.944 112.076 346.026 113.21 345.377C114.536 344.684 115.993 344.295 117.48 344.238C119.032 344.1 120.655 344.122 122.292 343.846C123.98 343.538 125.577 342.838 126.963 341.8C129.835 339.675 131.903 336.86 134.175 334.683C136.447 332.507 138.409 330.497 140.525 329.329C141.464 328.811 142.48 328.455 143.531 328.277C144.317 328.141 145.112 328.068 145.909 328.06C146.566 328.06 147.074 328.06 147.419 328.096C147.599 328.096 147.778 328.111 147.956 328.14Z" fill="#263238"/>
<path d="M121.678 350.245C121.89 350.191 122.109 350.171 122.327 350.187C122.918 350.195 123.507 350.268 124.084 350.404C126.022 350.84 127.776 351.893 129.099 353.413C130.421 354.933 131.244 356.842 131.451 358.871C131.514 359.476 131.514 360.086 131.451 360.691C131.444 360.915 131.401 361.136 131.324 361.344C131.253 361.344 131.401 360.394 131.183 358.9C130.915 356.95 130.09 355.127 128.812 353.661C127.534 352.195 125.862 351.152 124.006 350.665C122.602 350.274 121.671 350.317 121.678 350.245Z" fill="#263238"/>
<path d="M128.642 359.806C128.583 360.389 128.405 360.953 128.12 361.46C127.494 362.731 126.539 363.798 125.359 364.544C124.18 365.291 122.823 365.687 121.438 365.69C120.868 365.73 120.297 365.639 119.766 365.422C119.766 365.363 120.408 365.487 121.424 365.422C122.748 365.351 124.034 364.939 125.164 364.224C126.293 363.509 127.23 362.514 127.887 361.33C128.403 360.423 128.579 359.806 128.642 359.806Z" fill="#263238"/>
<path d="M122.553 355.127C122.553 355.185 121.988 355.301 121.142 355.671C120.026 356.144 119.023 356.861 118.203 357.772C117.383 358.682 116.766 359.765 116.393 360.945C116.096 361.852 116.033 362.447 115.969 362.44C115.922 361.908 115.982 361.372 116.146 360.866C116.471 359.611 117.092 358.457 117.953 357.507C118.815 356.557 119.89 355.839 121.085 355.417C121.548 355.213 122.049 355.114 122.553 355.127Z" fill="#263238"/>
<path d="M162.738 357.405C162.752 356.918 162.801 356.433 162.886 355.954C163.034 354.792 162.93 353.61 162.583 352.494C162.196 351.401 161.415 350.502 160.403 349.984C159.965 349.809 159.511 349.682 159.048 349.606C159.534 349.47 160.052 349.516 160.509 349.737C161.067 349.979 161.57 350.337 161.987 350.789C162.403 351.241 162.724 351.777 162.929 352.363C163.304 353.533 163.377 354.783 163.141 355.99C163.087 356.482 162.951 356.961 162.738 357.405Z" fill="#263238"/>
<path d="M93.0648 349.091C93.0648 349.157 92.4086 349.091 91.3925 349.229C90.0679 349.428 88.8172 349.981 87.7656 350.833C86.728 351.706 85.9282 352.841 85.444 354.126C85.0771 355.113 85.0136 355.78 84.9501 355.773C84.9049 355.18 84.9918 354.585 85.2041 354.032C85.6285 352.656 86.439 351.44 87.5339 350.536C88.6287 349.633 89.9589 349.082 91.3572 348.954C91.9292 348.864 92.5134 348.912 93.0648 349.091Z" fill="#263238"/>
<path d="M180.915 342.475C180.915 342.475 181.254 342.018 181.79 341.147C182.542 339.923 183.13 338.6 183.54 337.215C184.138 335.155 184.401 333.008 184.317 330.86C184.225 328.233 183.626 325.651 182.552 323.264C181.49 320.873 179.83 318.815 177.74 317.301C176.05 316.06 174.128 315.193 172.095 314.755C170.716 314.466 169.292 314.493 167.925 314.834C167.555 314.942 167.192 315.073 166.838 315.226C166.718 315.291 166.59 315.337 166.457 315.364C166.565 315.279 166.684 315.208 166.81 315.154C167.153 314.967 167.512 314.814 167.882 314.697C169.259 314.288 170.709 314.219 172.116 314.494C174.213 314.892 176.201 315.75 177.945 317.011C178.983 317.741 179.921 318.612 180.732 319.601C181.593 320.671 182.321 321.848 182.898 323.105C183.995 325.537 184.597 328.173 184.669 330.853C184.741 333.036 184.447 335.215 183.801 337.295C183.363 338.694 182.73 340.02 181.924 341.234C181.628 341.655 181.388 341.96 181.219 342.177C181.129 342.288 181.027 342.387 180.915 342.475Z" fill="#263238"/>
<path d="M95.5413 305.396C92.2561 304.624 88.8111 305.074 85.8178 306.666C83.9186 307.643 82.2479 309.031 80.9207 310.736C80.2351 311.605 79.6961 312.585 79.326 313.637C78.9999 314.631 78.7637 315.654 78.6203 316.692C78.3842 318.468 78.2827 320.261 78.3169 322.053C78.3169 323.584 78.3734 324.824 78.3945 325.68C78.3945 326.072 78.3945 326.406 78.3945 326.667C78.4125 326.782 78.4125 326.9 78.3945 327.015C78.3619 326.905 78.3452 326.79 78.3451 326.674C78.3451 326.399 78.2957 326.079 78.2675 325.688C78.204 324.824 78.1193 323.584 78.0699 322.06C78.0024 320.253 78.0803 318.443 78.3028 316.648C78.4397 315.585 78.676 314.538 79.0084 313.521C79.3856 312.424 79.9416 311.401 80.6525 310.496C82.0132 308.749 83.734 307.334 85.6908 306.354C87.2795 305.548 88.9951 305.04 90.7572 304.852C91.9351 304.729 93.1243 304.787 94.2853 305.026C94.6033 305.086 94.9169 305.168 95.2238 305.273C95.3343 305.3 95.441 305.341 95.5413 305.396Z" fill="#263238"/>
<path d="M66.434 289.661C66.3376 289.407 66.2758 289.141 66.2505 288.87C66.1246 288.15 66.0397 287.423 65.9965 286.694C65.6749 281.785 66.6837 276.88 68.9108 272.525C69.2368 271.851 69.6045 271.199 70.0115 270.574C70.1415 270.336 70.3004 270.117 70.4843 269.921C70.5408 269.957 69.9269 270.929 69.1366 272.598C67.0728 276.964 66.0842 281.784 66.2576 286.636C66.3211 288.514 66.4975 289.653 66.434 289.661Z" fill="#263238"/>
<path d="M64.169 290.792C64.0703 290.538 64.0016 290.273 63.9644 290.002C63.8445 289.494 63.7245 288.739 63.6045 287.825C63.0243 282.944 63.4916 277.991 64.9735 273.316C65.2628 272.424 65.5239 271.713 65.7355 271.234C65.823 270.979 65.939 270.735 66.0813 270.508C66.1448 270.508 65.7285 271.618 65.2204 273.41C63.8881 278.089 63.4284 282.985 63.8656 287.84C64.0279 289.639 64.2326 290.785 64.169 290.792Z" fill="#263238"/>
<g opacity="0.3">
<path d="M110.197 319.557C113.135 322.877 115.234 326.888 116.308 331.237C116.62 332.176 116.632 333.193 116.343 334.139C115.532 336.098 112.914 336.185 111.129 337.244C109.626 338.129 108.702 339.74 107.841 341.285L99.0908 356.926C101.793 356.694 102.795 356.984 105.498 356.76L109.845 356.854C109.682 356.926 108.998 354.728 108.941 353.698C108.765 350.549 110.833 346.741 113.584 345.341C117.035 343.578 121.008 345.05 124.515 343.396C127.866 341.808 129.863 339.384 132.044 337.165C134.782 334.371 137.498 330.635 141.005 329.018C142.593 328.292 146.382 328.205 146.382 328.205C144.583 326.029 141.28 326.137 138.62 326.877C135.96 327.617 133.18 328.829 130.463 328.198C128.184 327.675 126.37 325.942 124.684 324.28C120.359 320.029 115.885 315.575 113.951 309.72L110.346 319.303" fill="black"/>
</g>
<g opacity="0.3">
<path d="M169.47 356.941C170.882 353.415 167.678 349.251 166.394 345.682C165.11 342.112 165.378 338.079 165.385 334.226C165.405 326.087 164.127 318 161.603 310.286C161.32 320.863 162.499 332.094 163.113 342.649C163.24 344.891 163.07 347.481 164.672 349.004C165.491 349.788 165.977 349.447 166.895 350.1C167.812 350.753 169.611 352.276 169.47 356.919" fill="black"/>
</g>
<path d="M127.916 252.749C126.611 252.273 125.412 251.535 124.387 250.579C123.362 249.622 122.533 248.466 121.946 247.177C122.78 248.272 123.677 249.314 124.635 250.297C125.675 251.187 126.771 252.006 127.916 252.749Z" fill="#263238"/>
<path d="M130.562 251.261C128.3 250.561 126.319 249.125 124.917 247.17C125.002 247.097 126.067 248.251 127.627 249.346C129.186 250.442 130.604 251.153 130.562 251.261Z" fill="#263238"/>
<path d="M134.048 251.131C132.937 250.929 131.889 250.456 130.992 249.752C130.027 249.155 129.213 248.332 128.614 247.351C128.699 247.271 129.694 248.403 131.197 249.441C132.7 250.478 134.083 251.022 134.048 251.131Z" fill="#263238"/>
<path d="M110.049 282.29C108.765 281.72 107.636 280.836 106.761 279.714C105.799 278.675 105.103 277.406 104.736 276.022C105.428 277.223 106.199 278.375 107.043 279.468C107.983 280.476 108.988 281.419 110.049 282.29Z" fill="#263238"/>
<path d="M112.653 282.326C110.657 281.059 109.123 279.152 108.285 276.9C108.384 276.849 109.111 278.249 110.317 279.743C111.524 281.238 112.717 282.239 112.653 282.326Z" fill="#263238"/>
<path d="M117.19 283.233C116.275 282.498 115.438 281.667 114.692 280.752C113.856 279.922 113.109 279.003 112.462 278.01C113.377 278.748 114.214 279.582 114.96 280.498C115.795 281.326 116.543 282.243 117.19 283.233Z" fill="#263238"/>
<path d="M103.191 222.859C103.191 222.859 102.873 222.729 102.485 222.337C102.028 221.811 101.686 221.19 101.483 220.516C101.258 219.848 101.174 219.138 101.236 218.434C101.292 217.897 101.419 217.585 101.462 217.592C101.465 218.538 101.589 219.48 101.829 220.393C102.171 221.275 102.629 222.105 103.191 222.859Z" fill="#263238"/>
<path d="M104.432 222.301C103.9 221.78 103.529 221.108 103.367 220.371C103.096 219.668 103.03 218.899 103.176 218.158C103.289 218.158 103.374 219.13 103.72 220.255C104.066 221.379 104.517 222.243 104.432 222.301Z" fill="#263238"/>
<path d="M107.234 224.143C105.899 222.57 105.045 220.627 104.778 218.557C104.884 218.557 105.258 219.848 105.936 221.379C106.613 222.91 107.319 224.042 107.234 224.143Z" fill="#263238"/>
<path d="M190.336 90.1851C184.867 93.631 183.011 101.952 182.778 108.539C182.546 115.127 184.288 121.598 185.707 128.033C187.125 134.468 188.219 141.207 186.681 147.621C185.269 153.555 181.656 159.809 184.246 165.308C186.201 169.457 191.204 171.612 192.587 176.001C194.195 181.123 190.124 186.158 186.384 189.894C187.282 191.293 188.653 192.3 190.232 192.719C191.81 193.139 193.484 192.941 194.929 192.165C194.882 192.945 194.678 193.706 194.331 194.402C193.984 195.097 193.5 195.711 192.911 196.205C195.049 196.733 197.289 196.618 199.365 195.873C201.44 195.129 203.264 193.786 204.618 192.005C204.103 193.833 203.58 195.632 203.065 197.489C207.36 196.447 211.091 193.725 213.466 189.901L215.266 193.369C222.146 188.508 226.93 180.862 229.279 172.62C231.629 164.379 231.65 155.579 230.303 147.106C228.3 135.116 223.658 123.755 216.731 113.892C209.804 104.029 200.776 95.9254 190.336 90.1996" fill="#263238"/>
<path d="M270.368 150.602C267.92 147.577 264.9 144.574 264.561 140.649C264.413 138.922 264.815 137.145 264.434 135.447C263.446 131.094 257.914 129.346 256.249 125.196C254.132 119.987 258.916 113.096 255.388 108.779C253.694 106.711 250.78 106.305 248.557 104.861C242.912 101.183 244.281 91.0775 230.74 83.7212L231.749 105.935C236.313 124.722 239.937 143.738 242.609 162.906L273.17 161.354C274.913 157.857 272.824 153.628 270.368 150.602Z" fill="#263238"/>
<path d="M183.865 98.2814C184.027 95.5099 184.724 92.7994 185.916 90.3081C187.108 87.8168 188.772 85.5949 190.809 83.772C195.289 79.7964 201.337 78.0263 207.25 77.9682C213.163 77.9102 219.013 79.3539 224.644 81.2256C227.805 82.2775 230.994 83.4963 233.556 85.6655C238.241 89.6193 240.104 96.0107 241.734 102.01C243.046 106.864 244.373 111.964 243.286 116.875C242.769 119.133 241.764 121.243 240.348 123.048C238.931 124.854 237.138 126.309 235.101 127.308" fill="#263238"/>
<path d="M185.502 94.1029C182.291 99.7032 181.026 106.259 181.915 112.695C182.803 119.132 185.793 125.067 190.392 129.528C190.549 115.522 191.893 101.557 194.407 87.7913" fill="#263238"/>
<path d="M184.26 113.371C182.849 103.556 186.638 90.3012 196.256 89.271L219.154 90.1633C226.499 90.4535 232.405 95.4738 234.459 102.728C234.558 103.091 234.501 102.634 234.551 102.917L245.191 161.753C246.02 166.387 245.035 171.169 242.45 175.06C239.865 178.95 235.889 181.632 231.389 182.523C226.931 183.405 222.314 182.455 218.528 179.879C214.743 177.302 212.09 173.303 211.138 168.739C210.143 164.031 208.979 158.474 208.979 158.503C208.979 158.532 196.517 159.076 190.682 143.478C187.781 135.716 185.827 124.275 184.26 113.371Z" fill="#9D6054"/>
<path d="M204.78 103.548C202.011 105.168 198.95 106.188 195.783 106.545C195.783 106.429 197.83 105.964 200.306 105.137C202.783 104.31 204.731 103.447 204.78 103.548Z" fill="#724A44"/>
<path d="M201.153 103.751C199.435 104.768 197.491 105.311 195.508 105.326C196.429 104.987 197.372 104.718 198.331 104.52C199.252 104.193 200.195 103.936 201.153 103.751Z" fill="#724A44"/>
<path d="M214.383 134.257C214.285 134.294 214.009 133.67 213.29 133.394C212.57 133.118 211.963 133.394 211.914 133.256C211.864 133.118 212.012 133.068 212.295 132.966C212.667 132.843 213.07 132.861 213.431 133.017C213.797 133.159 214.104 133.429 214.299 133.779C214.426 134.054 214.419 134.25 214.383 134.257Z" fill="#724A44"/>
<path d="M190.392 125.247C190.5 125.788 190.809 126.264 191.253 126.575C191.697 126.885 192.242 127.005 192.77 126.909C193.031 126.874 193.283 126.786 193.51 126.65C193.737 126.513 193.935 126.332 194.092 126.115C194.249 125.898 194.363 125.652 194.425 125.389C194.488 125.127 194.499 124.854 194.457 124.587C194.351 124.047 194.043 123.57 193.6 123.26C193.157 122.95 192.614 122.83 192.086 122.926C191.825 122.961 191.574 123.05 191.347 123.186C191.121 123.323 190.923 123.504 190.765 123.721C190.607 123.937 190.493 124.183 190.429 124.445C190.365 124.707 190.353 124.98 190.392 125.247Z" fill="#263238"/>
<path d="M188.459 119.61C188.762 119.828 190.047 118.333 192.22 117.862C194.393 117.39 196.207 118.159 196.383 117.862C196.475 117.717 196.122 117.282 195.318 116.912C194.242 116.452 193.055 116.343 191.917 116.6C190.79 116.844 189.768 117.448 188.995 118.326C188.438 118.95 188.311 119.516 188.459 119.61Z" fill="#263238"/>
<path d="M209.861 120.873C209.96 121.427 210.269 121.917 210.72 122.237C211.172 122.557 211.728 122.679 212.267 122.577C212.527 122.542 212.778 122.453 213.004 122.317C213.231 122.18 213.429 121.998 213.586 121.782C213.743 121.566 213.856 121.319 213.919 121.057C213.983 120.795 213.994 120.523 213.953 120.256C213.847 119.715 213.54 119.238 213.097 118.927C212.655 118.615 212.111 118.493 211.582 118.587C211.322 118.619 211.071 118.703 210.843 118.835C210.615 118.968 210.415 119.145 210.255 119.358C210.094 119.571 209.977 119.815 209.909 120.075C209.842 120.335 209.825 120.606 209.861 120.873Z" fill="#263238"/>
<path d="M209.847 115.366C210.157 115.584 211.441 114.089 213.608 113.618C215.774 113.146 217.594 113.923 217.778 113.618C217.863 113.473 217.51 113.037 216.712 112.675C215.636 112.208 214.445 112.097 213.304 112.356C212.176 112.6 211.153 113.207 210.383 114.089C209.825 114.735 209.698 115.272 209.847 115.366Z" fill="#263238"/>
<path d="M205.401 133.612C205.401 133.481 203.99 133.539 201.746 133.728C201.182 133.793 200.631 133.793 200.462 133.423C200.284 132.85 200.284 132.234 200.462 131.66C200.695 130.166 200.942 128.606 201.203 126.967C202.198 120.3 202.79 114.866 202.529 114.83C202.268 114.793 201.252 120.162 200.25 126.829C200.015 128.468 199.794 130.035 199.587 131.53C199.38 132.294 199.443 133.108 199.763 133.83C199.884 134.012 200.045 134.164 200.232 134.274C200.419 134.383 200.628 134.447 200.843 134.461C201.167 134.477 201.491 134.453 201.81 134.388C204.053 134.033 205.422 133.743 205.401 133.612Z" fill="#263238"/>
<path d="M228.602 148.157C228.602 148.157 225.78 160.367 209.776 162.297L208.979 158.503C216.325 156.989 223.119 153.407 228.602 148.157Z" fill="#724A44"/>
<path d="M207.426 138.784C207.729 138.16 208.181 137.625 208.74 137.231C209.3 136.836 209.947 136.594 210.623 136.528C211.11 136.467 211.605 136.509 212.077 136.65C212.548 136.79 212.988 137.028 213.368 137.348C213.731 137.658 213.994 138.076 214.12 138.544C214.246 139.012 214.23 139.509 214.073 139.967C213.808 140.443 213.41 140.827 212.931 141.068C212.452 141.31 211.913 141.399 211.385 141.324C210.282 141.177 209.219 140.805 208.259 140.228C207.978 140.103 207.722 139.926 207.504 139.706C207.4 139.6 207.329 139.465 207.299 139.318C207.269 139.171 207.281 139.019 207.335 138.879" fill="#724A44"/>
<path d="M212.097 133.757C211.744 133.815 212.238 136.238 210.58 138.393C208.922 140.547 206.346 140.83 206.41 141.171C206.41 141.331 207.066 141.519 208.132 141.316C209.521 141.042 210.771 140.271 211.66 139.14C212.506 138.054 212.909 136.673 212.782 135.288C212.641 134.25 212.267 133.713 212.097 133.757Z" fill="#263238"/>
<path d="M207.962 108.96C208.301 109.519 210.404 108.757 213.015 108.518C215.625 108.278 217.827 108.518 218.053 107.923C218.144 107.633 217.672 107.139 216.719 106.733C215.464 106.257 214.12 106.081 212.788 106.218C211.457 106.355 210.173 106.802 209.035 107.524C208.181 108.112 207.814 108.692 207.962 108.96Z" fill="#263238"/>
<path d="M187.922 112.987C188.409 113.407 189.792 112.559 191.584 112.138C193.377 111.717 194.964 111.753 195.211 111.151C195.31 110.861 194.964 110.426 194.202 110.07C193.194 109.69 192.098 109.625 191.054 109.883C190.009 110.141 189.062 110.711 188.332 111.521C187.802 112.21 187.704 112.776 187.922 112.987Z" fill="#263238"/>
<path d="M185.453 97.6866C185.904 95.0459 188.191 93.0146 190.71 92.3181C193.229 91.6217 195.924 92.0642 198.408 92.8913C208.915 96.3808 216.479 106.247 226.916 109.954C229.484 110.868 232.222 111.405 234.543 112.856C236.865 114.307 238.777 117.02 238.199 119.755C239.17 117.774 239.857 115.657 240.238 113.473C240.424 112.379 240.379 111.257 240.108 110.182C239.836 109.107 239.344 108.104 238.664 107.241C237.571 105.993 235.933 105.217 235.207 103.708C234.572 102.38 234.804 100.806 234.445 99.3552C233.98 97.9193 233.192 96.6167 232.144 95.5537C227.155 89.75 220.932 84.9256 213.748 82.6403C209.046 81.0757 204.017 80.8625 199.205 82.0237C194.375 83.2075 190.118 86.1345 187.21 90.2723C185.559 92.7026 183.809 95.2345 185.446 97.6866" fill="#263238"/>
<path d="M244.168 122.193C243.759 122.084 243.717 120.981 243.406 119.24C243.257 118.271 242.945 117.335 242.482 116.476C242.357 116.269 242.215 116.072 242.059 115.889C241.984 115.801 241.904 115.719 241.819 115.642L241.48 115.323C240.973 114.86 240.433 114.438 239.864 114.06C239.396 113.726 238.865 113.496 238.305 113.386C238.121 113.386 238.093 113.429 238.178 113.437L237.648 113.669L237.084 113.944C236.353 114.313 235.666 114.768 235.038 115.301C234.706 115.577 234.381 115.881 234.05 116.208L233.803 116.462L233.379 116.868C233.094 117.127 232.795 117.369 232.483 117.593C231.217 118.493 229.77 119.089 228.249 119.335C227.323 119.482 226.377 119.45 225.462 119.24L225.081 119.139L224.778 119.03C224.58 118.957 224.368 118.892 224.178 118.805C223.785 118.634 223.403 118.438 223.035 118.217C221.7 117.38 220.522 116.304 219.556 115.04C218.618 113.872 217.912 112.733 217.206 111.695C214.688 107.926 211.609 104.587 208.082 101.8C205.172 99.4974 202.002 97.5634 198.641 96.0397C196.44 94.9478 194.1 94.1809 191.691 93.7617C190.004 93.5078 188.946 93.5731 188.798 93.1524C188.649 92.7316 189.503 91.9045 191.55 91.3895C193.596 90.8744 196.651 91.0122 200.017 91.9698C204.025 93.0712 207.826 94.8512 211.265 97.2368C215.524 100.163 219.2 103.898 222.096 108.242C222.802 109.359 223.508 110.368 224.129 111.209C224.654 111.932 225.29 112.561 226.013 113.074C226.155 113.169 226.303 113.254 226.457 113.328C226.53 113.366 226.606 113.4 226.683 113.429L226.789 113.473H226.838C227.066 113.545 227.307 113.564 227.544 113.531C228.257 113.44 228.943 113.192 229.555 112.805C229.71 112.711 229.851 112.617 229.985 112.522L230.176 112.377L230.522 112.073C230.994 111.666 231.488 111.282 231.996 110.926C232.999 110.226 234.082 109.656 235.221 109.229C235.489 109.134 235.75 109.04 236.011 108.96L236.392 108.837L236.837 108.714C237.695 108.477 238.601 108.498 239.448 108.772C240.571 109.148 241.6 109.775 242.461 110.607C243.142 111.232 243.762 111.924 244.31 112.675C244.444 112.856 244.549 112.994 244.691 113.219C244.834 113.427 244.964 113.645 245.079 113.872C245.29 114.28 245.462 114.707 245.594 115.149C245.959 116.476 246.012 117.873 245.749 119.226C245.297 121.373 244.542 122.302 244.168 122.193Z" fill="#263238"/>
<path d="M235.376 115.323C235.447 114.822 243.004 109.976 244.98 118.899C246.906 127.605 238.015 127.743 237.923 127.503C237.832 127.264 235.376 115.323 235.376 115.323Z" fill="#9D6054"/>
<path d="M239.829 123.6C239.864 123.6 239.998 123.673 240.273 123.731C240.658 123.802 241.054 123.719 241.381 123.499C242.192 122.955 242.63 121.322 242.326 119.755C242.189 119.006 241.887 118.299 241.444 117.688C241.306 117.434 241.11 117.219 240.873 117.061C240.636 116.903 240.364 116.807 240.083 116.781C239.904 116.776 239.729 116.835 239.588 116.947C239.446 117.06 239.347 117.219 239.306 117.398C239.243 117.666 239.306 117.826 239.306 117.847C239.306 117.869 239.088 117.746 239.081 117.376C239.08 117.149 239.155 116.929 239.292 116.752C239.485 116.519 239.758 116.373 240.054 116.346C240.417 116.335 240.776 116.42 241.097 116.593C241.418 116.765 241.691 117.02 241.889 117.332C242.413 118 242.769 118.79 242.926 119.632C243.251 121.395 242.743 123.259 241.6 123.876C241.386 123.998 241.147 124.069 240.903 124.083C240.658 124.097 240.414 124.053 240.188 123.956C239.892 123.803 239.786 123.622 239.829 123.6Z" fill="#724A44"/>
<path d="M206.982 178.381C205.28 179.13 203.742 180.223 202.457 181.593C201.172 182.964 200.168 184.585 199.502 186.361C197.166 192.44 187.019 229.447 187.019 229.447L165.85 232.24L164.249 252.35C170.371 253.99 176.616 255.097 182.92 255.658C190.724 256.383 203.34 255.186 206.629 253.293C209.917 251.399 206.304 179.244 206.304 179.244L206.982 178.381Z" fill="#E0E0E0"/>
<path d="M211.272 172.889C217.975 180.717 235.588 164.843 243.428 152.228L218.208 273.998L213.904 272.917L211.272 172.889Z" fill="#455A64"/>
<path d="M210.75 167.557L209.127 175.464L203.094 181.079C203.016 191.41 208.449 212.043 207.095 216.178C205.168 222.09 204.399 228.213 206.706 236.832C207.885 241.243 215.019 272.917 215.019 272.917C215.019 272.917 212.972 355.802 213.198 356.905H229.597L213.586 246.633L212.972 177.561L210.75 167.557Z" fill="#E0E0E0"/>
<path d="M315.952 304.352C310.871 291.293 292.08 257.878 292.08 257.878C292.08 257.878 290.556 246.133 289.258 220.284C287.96 194.435 277.1 165.46 274.814 161.028C272.527 156.595 247.125 152.235 247.125 152.235L242.679 145.582C242.679 145.582 233.21 171.184 232.73 171.91C232.25 172.635 222.082 203.366 221.066 211.985C220.05 220.603 217.206 267.019 217.206 267.019L229.597 356.905H321.978C321.978 356.905 321.033 317.403 315.952 304.352Z" fill="#E0E0E0"/>
<path d="M230.38 301.101L276.331 295.769H276.493V295.936C277.799 310.395 279.316 327.559 281.009 345.907C281.193 347.931 281.369 349.933 281.553 351.928V352.124H281.419L244.479 352.994H244.352L244.317 352.864C240.224 337.455 236.787 324.505 234.367 315.401C233.139 310.866 232.173 307.29 231.502 304.838L230.719 302.052L230.5 301.326C230.444 301.167 230.409 301.094 230.416 301.094C230.46 301.165 230.498 301.241 230.529 301.319C230.585 301.479 230.67 301.711 230.768 302.045C230.973 302.669 231.248 303.597 231.601 304.816C232.307 307.246 233.309 310.816 234.558 315.357C237.049 324.433 240.534 337.368 244.634 352.784L244.472 352.661L281.412 351.747L281.235 351.957C281.061 349.964 280.88 347.957 280.692 345.936C279.055 327.581 277.524 310.388 276.232 295.958L276.402 296.103L230.38 301.101Z" fill="#263238"/>
<path d="M277.411 307.754C277.411 307.855 267.532 308.683 255.381 309.597C243.23 310.511 233.33 311.171 233.323 311.048C233.316 310.924 243.202 310.119 255.353 309.205C267.503 308.291 277.403 307.645 277.411 307.754Z" fill="#263238"/>
<path d="M291.742 257.74C291.577 257.885 291.395 258.007 291.199 258.103C290.839 258.313 290.296 258.596 289.618 258.915C287.84 259.742 285.974 260.351 284.058 260.729C282.142 261.086 280.197 261.252 278.25 261.222C277.502 261.222 276.903 261.186 276.486 261.15C276.269 261.152 276.053 261.123 275.844 261.063C276.641 260.979 277.442 260.943 278.243 260.954C280.172 260.906 282.095 260.707 283.994 260.359C285.884 259.979 287.735 259.413 289.519 258.669C290.244 258.321 290.986 258.011 291.742 257.74Z" fill="#263238"/>
<path d="M292.081 257.878C291.61 258.483 291.085 259.041 290.514 259.547C289.505 260.533 288.073 261.854 286.464 263.275L282.35 266.903C281.803 267.424 281.223 267.909 280.614 268.354C281.08 267.745 281.605 267.186 282.181 266.685C283.19 265.699 284.622 264.378 286.224 262.949L290.338 259.322C290.885 258.798 291.467 258.316 292.081 257.878Z" fill="#263238"/>
<path d="M260.687 328.132C258.916 327.472 256.983 327.211 255.346 328.176C254.709 328.605 254.204 329.211 253.889 329.924C253.574 330.637 253.463 331.427 253.567 332.202C253.807 333.761 254.553 335.191 255.684 336.258C256.372 337.063 257.324 337.58 258.359 337.709C259.528 337.659 260.631 337.138 261.428 336.258C262.326 335.476 263.024 334.479 263.46 333.356C263.671 332.788 263.753 332.178 263.697 331.573C263.642 330.968 263.453 330.384 263.143 329.866C262.381 328.705 260.984 328.198 259.678 327.762" fill="#FF725E"/>
<path d="M254.654 327.16C254.805 326.39 254.724 325.59 254.421 324.868C254.266 324.514 254.037 324.2 253.748 323.948C253.46 323.697 253.121 323.516 252.756 323.417C252.386 323.321 251.998 323.338 251.638 323.467C251.278 323.596 250.962 323.831 250.731 324.142C250.436 324.621 250.323 325.194 250.413 325.753C250.465 326.251 250.645 326.725 250.935 327.127C251.226 327.529 251.616 327.844 252.065 328.038C252.526 328.23 253.039 328.249 253.512 328.091C253.986 327.933 254.39 327.609 254.654 327.175" fill="#FF725E"/>
<path d="M262.543 327.537C263.304 327.521 264.042 327.268 264.66 326.812C264.969 326.585 265.224 326.29 265.409 325.949C265.593 325.607 265.701 325.228 265.725 324.839C265.741 324.447 265.645 324.06 265.449 323.724C265.254 323.387 264.967 323.117 264.625 322.945C264.106 322.745 263.534 322.745 263.016 322.945C262.553 323.098 262.139 323.375 261.815 323.747C261.491 324.12 261.27 324.574 261.174 325.064C261.083 325.568 261.169 326.089 261.415 326.535C261.662 326.981 262.054 327.323 262.522 327.501" fill="#FF725E"/>
<path d="M266.395 330.062C266.923 330.059 267.437 329.892 267.87 329.583C268.078 329.423 268.249 329.218 268.371 328.982C268.493 328.746 268.563 328.486 268.576 328.219C268.588 327.949 268.522 327.681 268.386 327.449C268.251 327.216 268.052 327.03 267.814 326.914C267.457 326.776 267.063 326.776 266.706 326.914C266.389 327.019 266.104 327.209 265.881 327.463C265.658 327.718 265.504 328.029 265.436 328.365C265.377 328.713 265.438 329.071 265.608 329.378C265.778 329.685 266.046 329.922 266.367 330.048" fill="#FF725E"/>
<path d="M258.218 326.21C259.054 325.86 259.767 325.258 260.264 324.483C260.507 324.095 260.663 323.656 260.72 323.198C260.777 322.74 260.735 322.274 260.596 321.835C260.445 321.401 260.175 321.02 259.818 320.741C259.461 320.461 259.032 320.295 258.585 320.261C257.932 320.272 257.306 320.53 256.828 320.986C256.385 321.363 256.048 321.854 255.851 322.408C255.654 322.963 255.604 323.561 255.706 324.142C255.828 324.732 256.145 325.26 256.603 325.637C257.061 326.014 257.631 326.216 258.218 326.21Z" fill="#FF725E"/>
<path d="M221.038 235.751C221.044 235.679 221.06 235.608 221.087 235.541C221.129 235.381 221.193 235.178 221.263 234.917C221.44 234.351 221.68 233.553 221.969 232.544C222.618 230.455 223.55 227.466 224.707 223.803L233.88 194.834C233.951 194.327 234.028 193.783 234.099 193.231C234.804 188.32 235.425 183.597 236.032 179.208V179.164H236.068L244.479 169.486L244.443 169.566L246.32 156.95C246.546 155.499 246.73 154.31 246.857 153.49C246.92 153.105 246.97 152.808 247.005 152.583C247.021 152.48 247.045 152.378 247.075 152.278C247.086 152.382 247.086 152.487 247.075 152.59C247.075 152.815 247.012 153.12 246.97 153.497C246.864 154.324 246.708 155.492 246.511 156.979C246.087 160.012 245.488 164.336 244.761 169.61V169.653L236.392 179.375L236.434 179.28C235.835 183.669 235.193 188.392 234.522 193.304C234.445 193.855 234.374 194.406 234.303 194.914C230.648 206.253 227.367 216.453 224.989 223.846C223.79 227.473 222.823 230.477 222.167 232.552C221.828 233.553 221.567 234.344 221.376 234.902C221.292 235.159 221.221 235.362 221.165 235.512C221.073 235.657 221.045 235.751 221.038 235.751Z" fill="#263238"/>
<path d="M213.163 244.754C213.154 244.706 213.154 244.657 213.163 244.609C213.163 244.493 213.114 244.355 213.086 244.181C213.02 243.775 212.935 243.223 212.831 242.527C212.613 241.076 212.309 238.965 211.928 236.375C211.187 231.108 210.164 223.802 209 215.488V215.438C209.254 213.356 209.522 211.194 209.79 208.981C210.263 205.201 210.715 201.567 211.131 198.164L211.18 198.309L205.916 192.694L205.86 192.629V192.549L208.068 180.136C208.344 178.685 208.562 177.496 208.711 176.668C208.788 176.291 208.852 175.987 208.894 175.754C208.908 175.65 208.934 175.548 208.972 175.45C208.983 175.553 208.983 175.658 208.972 175.762C208.936 176.001 208.894 176.306 208.838 176.683C208.704 177.517 208.513 178.693 208.28 180.165C207.772 183.198 207.052 187.471 206.163 192.607L206.128 192.469L211.392 198.063L211.448 198.121V198.208C211.032 201.61 210.581 205.252 210.122 209.032C209.847 211.208 209.579 213.385 209.324 215.481V215.438L212.147 236.346C212.486 238.943 212.754 241.04 212.944 242.519C213.022 243.245 213.093 243.775 213.135 244.181L213.184 244.609C213.175 244.706 213.168 244.754 213.163 244.754Z" fill="#263238"/>
<path d="M229.583 356.788C229.484 356.788 226.986 339.326 224.002 317.751C221.017 296.175 218.681 278.662 218.78 278.648C218.879 278.633 221.384 296.117 224.361 317.7C227.339 339.283 229.682 356.774 229.583 356.788Z" fill="#263238"/>
<path d="M171.34 261.628L185.615 257.406L194.492 278.648L174.607 278.01L171.34 262.492" fill="#9D6054"/>
<path d="M185.615 257.406L197.223 285.192C197.223 285.192 255.254 268.165 259.403 263.384C263.552 258.603 272.33 215.503 273.826 207.124C275.322 198.745 276.973 164.807 270.009 159.373C263.044 153.94 256.249 155.129 249.616 162.631C244.246 168.703 235.503 203.468 232.363 216.453C231.595 219.65 231.389 222.962 231.756 226.233L232.37 231.667C232.37 231.667 226.902 236.781 226.57 241.555L185.615 257.406Z" fill="#E0E0E0"/>
<path d="M241.903 181.167C241.903 181.167 241.833 181.471 241.685 182.059C241.536 182.646 241.296 183.51 240.979 184.671C240.365 186.963 239.469 190.336 238.312 194.668L234.078 210.439C233.662 211.97 233.238 213.559 232.794 215.198C232.303 216.868 231.975 218.584 231.813 220.32C231.629 222.156 231.629 224.006 231.813 225.841C232.034 227.737 232.255 229.672 232.476 231.645V231.717L232.427 231.768C231.079 233.08 229.874 234.54 228.835 236.121C227.685 237.732 226.943 239.612 226.676 241.591V241.685L226.591 241.722L185.665 257.602L185.763 257.363L197.378 285.141L197.159 285.039C201.943 283.589 207.038 282.094 212.126 280.513C222.089 277.437 231.799 274.346 241.092 271.081C245.735 269.449 250.265 267.817 254.619 265.902C255.698 265.43 256.736 264.915 257.773 264.342C258.278 264.066 258.752 263.733 259.184 263.348C259.377 263.142 259.547 262.916 259.692 262.673C259.833 262.419 259.982 262.173 260.109 261.911C261.069 259.798 261.88 257.616 262.536 255.382C263.891 250.964 265.02 246.597 266.064 242.324C267.108 238.051 268.075 233.923 268.971 229.904C270.757 221.865 272.337 214.357 273.628 207.479C274.715 201.273 275.493 195.014 275.957 188.726C276.35 183.982 276.404 179.215 276.119 174.463C275.823 170.56 275.16 167.557 274.264 165.707C273.855 164.743 273.24 163.888 272.464 163.204L273.05 163.726C273.226 163.922 273.424 164.183 273.664 164.488C273.914 164.866 274.138 165.261 274.334 165.67C275.251 167.52 275.943 170.546 276.26 174.449C276.574 179.208 276.541 183.986 276.162 188.74C275.719 195.038 274.958 201.307 273.882 207.523C272.605 214.415 271.06 221.931 269.268 230.012C268.379 234.032 267.426 238.181 266.382 242.447C265.337 246.713 264.201 251.08 262.853 255.506C262.197 257.763 261.384 259.97 260.419 262.107C260.285 262.376 260.13 262.637 259.989 262.898C259.827 263.158 259.64 263.401 259.431 263.624C258.984 264.035 258.491 264.39 257.963 264.683C256.933 265.263 255.847 265.785 254.781 266.264C250.427 268.187 245.876 269.826 241.233 271.466C231.933 274.709 222.223 277.807 212.253 280.897C207.13 282.479 202.063 284.009 197.279 285.417L197.124 285.467L197.061 285.315L185.453 257.515L185.382 257.341L185.559 257.276L226.485 241.446L226.387 241.584C226.658 239.554 227.42 237.626 228.602 235.976C229.661 234.395 230.882 232.936 232.243 231.623L232.201 231.746C231.985 229.759 231.768 227.824 231.552 225.943C231.368 224.09 231.368 222.223 231.552 220.371C231.722 218.619 232.06 216.889 232.561 215.206L233.852 210.454C235.524 204.324 236.964 199.028 238.142 194.697L240.88 184.721C241.191 183.582 241.438 182.719 241.586 182.124C241.734 181.529 241.903 181.167 241.903 181.167Z" fill="#263238"/>
<path d="M234.141 247.917C233.246 246.459 232.148 245.144 230.881 244.014C229.536 242.98 228.047 242.161 226.464 241.584C226.969 241.598 227.466 241.709 227.932 241.91C230.256 242.733 232.229 244.362 233.513 246.517C233.802 246.942 234.015 247.416 234.141 247.917Z" fill="#263238"/>
<path d="M247.125 236.643C247.069 236.687 246.539 235.838 245.41 234.735C243.945 233.291 242.167 232.226 240.222 231.629C238.277 231.032 236.221 230.921 234.226 231.304C232.695 231.594 231.799 232.029 231.771 231.942C231.958 231.802 232.165 231.692 232.384 231.616C232.965 231.374 233.565 231.182 234.177 231.043C236.212 230.578 238.329 230.655 240.327 231.267C242.325 231.879 244.138 233.005 245.594 234.539C246.034 235 246.433 235.5 246.786 236.034C246.926 236.22 247.04 236.425 247.125 236.643Z" fill="#263238"/>
<path d="M184.5 287.557C176.611 287.557 165.681 284.749 151.999 279.207C141.873 275.1 133.921 270.936 133.836 270.9L135.12 268.31C135.431 268.477 166.464 284.655 184.514 284.655C191.641 284.655 197.159 281.115 200.906 274.136C202.69 270.74 203.909 267.062 204.512 263.254C204.702 262.093 208.957 235.998 210.418 229.033C211.18 225.406 213.241 219.442 215.188 213.682C216.994 208.408 218.857 202.96 219.231 200.624C220 195.886 219.443 185.534 219.443 185.432L222.266 185.265C222.266 185.708 222.844 196.046 222.026 201.095C221.609 203.671 219.789 208.996 217.862 214.625C215.936 220.255 213.911 226.175 213.184 229.628C211.773 236.527 207.356 263.391 207.313 263.667C207.271 263.943 204.11 287.557 184.5 287.557Z" fill="#FF725E"/>
<g opacity="0.4">
<path d="M184.5 287.557C176.611 287.557 165.681 284.749 151.999 279.207C141.873 275.1 133.921 270.936 133.836 270.9L135.12 268.31C135.431 268.477 166.464 284.655 184.514 284.655C191.641 284.655 197.159 281.115 200.906 274.136C202.69 270.74 203.909 267.062 204.512 263.254C204.702 262.093 208.957 235.998 210.418 229.033C211.18 225.406 213.241 219.442 215.188 213.682C216.994 208.408 218.857 202.96 219.231 200.624C220 195.886 219.443 185.534 219.443 185.432L222.266 185.265C222.266 185.708 222.844 196.046 222.026 201.095C221.609 203.671 219.789 208.996 217.862 214.625C215.936 220.255 213.911 226.175 213.184 229.628C211.773 236.527 207.356 263.391 207.313 263.667C207.271 263.943 204.11 287.557 184.5 287.557Z" fill="black"/>
</g>
<path d="M218.956 186.339C217.197 186.363 215.499 185.675 214.229 184.424C209.367 179.469 204.187 158.887 203.969 158.017L205.331 157.654C205.387 157.864 210.637 178.693 215.209 183.394C215.828 183.989 216.573 184.427 217.385 184.673C218.198 184.918 219.055 184.965 219.888 184.808C222.188 184.438 224.242 182.77 225.533 180.231C229.287 172.794 239.518 122.019 239.645 121.504L241.057 121.801C240.633 123.898 230.684 173.31 226.838 180.898C225.349 183.851 222.915 185.802 220.17 186.245C219.769 186.311 219.363 186.343 218.956 186.339Z" fill="#E0E0E0"/>
<path d="M239.081 125.682C239.179 123.644 238.699 121.99 238.375 119.98C238.234 119.131 238.495 117.688 239.186 117.194C239.878 116.701 240.936 117.303 241.233 118.138C241.479 119.113 241.525 120.131 241.367 121.126C241.049 123.535 240.386 124.239 240.005 125.682" fill="#E0E0E0"/>
<path d="M219.654 186.745H219.217C217.665 186.681 216.157 186.189 214.853 185.321C213.548 184.453 212.494 183.242 211.801 181.812C210.016 178.185 207.687 173.295 206.734 170.618L209.38 169.624C210.086 171.605 211.843 175.471 214.32 180.506C214.789 181.477 215.504 182.3 216.389 182.89C217.274 183.48 218.297 183.814 219.351 183.858C220.387 183.92 221.42 183.694 222.341 183.204C223.262 182.714 224.038 181.977 224.587 181.072L224.664 180.941C224.721 180.833 224.968 180.216 225.836 177.662L225.935 177.372C226.443 175.921 227.508 172.628 228.934 167.216L231.657 167.941C230.211 173.476 229.117 176.843 228.588 178.352L228.496 178.627C227.423 181.761 227.233 182.197 227.085 182.436L226.972 182.625C226.193 183.894 225.113 184.939 223.833 185.66C222.552 186.381 221.114 186.754 219.654 186.745Z" fill="#FF725E"/>
<g opacity="0.4">
<path d="M219.654 186.745H219.217C217.665 186.681 216.157 186.189 214.853 185.321C213.548 184.453 212.494 183.242 211.801 181.812C210.016 178.185 207.687 173.295 206.734 170.618L209.38 169.624C210.086 171.605 211.843 175.471 214.32 180.506C214.789 181.477 215.504 182.3 216.389 182.89C217.274 183.48 218.297 183.814 219.351 183.858C220.387 183.92 221.42 183.694 222.341 183.204C223.262 182.714 224.038 181.977 224.587 181.072L224.664 180.941C224.721 180.833 224.968 180.216 225.836 177.662L225.935 177.372C226.443 175.921 227.508 172.628 228.934 167.216L231.657 167.941C230.211 173.476 229.117 176.843 228.588 178.352L228.496 178.627C227.423 181.761 227.233 182.197 227.085 182.436L226.972 182.625C226.193 183.894 225.113 184.939 223.833 185.66C222.552 186.381 221.114 186.754 219.654 186.745Z" fill="black"/>
</g>
<path d="M129.397 273.998C133.17 273.998 136.228 270.854 136.228 266.975C136.228 263.097 133.17 259.953 129.397 259.953C125.625 259.953 122.567 263.097 122.567 266.975C122.567 270.854 125.625 273.998 129.397 273.998Z" fill="#E0E0E0"/>
<path d="M129.779 271.379C131.926 271.379 133.667 269.589 133.667 267.381C133.667 265.174 131.926 263.384 129.779 263.384C127.631 263.384 125.891 265.174 125.891 267.381C125.891 269.589 127.631 271.379 129.779 271.379Z" fill="#263238"/>
<path d="M125.093 273.998C125.093 273.998 123.597 270.37 125.093 269.05C126.589 267.73 142.24 263.384 142.24 263.384C142.24 263.384 153.276 260.105 154.454 259.953C155.633 259.8 169.978 260.787 169.978 260.787C169.978 260.787 178.121 258.48 179.3 258.48C180.478 258.48 178.763 266.185 178.552 268.724C178.34 271.263 176.731 272.779 178.227 273.998C179.723 275.217 183.703 278.648 183.703 278.648C183.703 278.648 179.511 279.845 176.646 279.519C174.945 279.333 173.28 278.885 171.707 278.191C171.707 278.191 165.815 282.711 162.597 283.371C159.38 284.031 148.675 287.666 146.53 287.339C144.385 287.013 142.783 284.031 142.783 284.031C142.783 284.031 137.745 284.8 136.778 282.711C136.22 281.514 135.789 280.259 135.494 278.967L137.533 277.64C137.533 277.64 134.852 278.416 133.674 276.428C133 275.369 132.562 274.17 132.389 272.917C132.389 272.917 126.885 274.542 125.093 273.998Z" fill="#455A64"/>
<path d="M205.514 207.74C205.512 207.883 205.49 208.025 205.451 208.161C205.389 208.471 205.305 208.87 205.197 209.358C205.084 209.873 204.942 210.505 204.815 211.244C204.688 211.984 204.505 212.826 204.392 213.769C204.279 214.712 204.103 215.728 204.004 216.838C203.905 217.948 203.806 219.13 203.722 220.378C203.449 225.807 203.855 231.248 204.928 236.571C205.197 237.797 205.436 238.957 205.733 240.031C206.029 241.105 206.297 242.099 206.572 243.006C206.848 243.912 207.13 244.718 207.37 245.429C207.61 246.14 207.828 246.742 208.026 247.235C208.224 247.728 208.344 248.077 208.449 248.374C208.512 248.505 208.555 248.644 208.576 248.788C208.503 248.665 208.439 248.536 208.386 248.403L207.892 247.293C207.68 246.807 207.426 246.212 207.186 245.501C206.946 244.79 206.615 244 206.34 243.085C206.064 242.171 205.726 241.192 205.451 240.111C205.175 239.03 204.893 237.869 204.618 236.643C204.07 233.972 203.686 231.268 203.468 228.547C203.28 225.823 203.256 223.09 203.397 220.364C203.489 219.109 203.559 217.912 203.715 216.802C203.87 215.692 203.99 214.661 204.145 213.726C204.3 212.79 204.484 211.941 204.632 211.201C204.78 210.461 204.935 209.837 205.077 209.322L205.394 208.139C205.417 208.002 205.457 207.867 205.514 207.74Z" fill="#263238"/>
<path d="M418.626 431.783C418.626 431.921 330.701 432.022 222.266 432.022C113.832 432.022 25.8794 431.921 25.8794 431.783C25.8794 431.645 113.786 431.543 222.266 431.543C330.747 431.543 418.626 431.654 418.626 431.783Z" fill="#263238"/>
</svg>
