<svg width="118" height="70" viewBox="0 0 118 70" fill="none" xmlns="http://www.w3.org/2000/svg">
<path d="M5.28967 30.1389V53.6666H23.6H41.9104V52.7104V51.7537H24.6173H7.32416V30.1389V8.52391H59H110.676V30.1389V51.7537H94.4H78.1242V52.7104V53.6666H95.4173H112.71V30.1389V6.61108H59H5.28967V30.1389Z" fill="black" stroke="black" stroke-width="2"/>
<path d="M31.4125 21.672L26.6664 35H23.4438L18.7173 21.672H21.7055L24.3227 29.6054C24.3748 29.7422 24.4464 29.9974 24.5375 30.3707C24.6417 30.7316 24.7459 31.1174 24.85 31.528C24.9542 31.9262 25.0258 32.2622 25.0649 32.536C25.1039 32.2622 25.169 31.9262 25.2602 31.528C25.3643 31.1174 25.4685 30.7316 25.5727 30.3707C25.6768 29.9974 25.7485 29.7422 25.7875 29.6054L28.4242 21.672H31.4125ZM36.9565 24.6214C37.9461 24.6214 38.7925 24.8018 39.4956 25.1627C40.2117 25.5236 40.765 26.0462 41.1556 26.7307C41.5462 27.4151 41.7415 28.2551 41.7415 29.2507V30.5947H34.8667C34.8928 31.3787 35.1336 31.9947 35.5894 32.4427C36.0581 32.8907 36.7026 33.1147 37.5229 33.1147C38.213 33.1147 38.838 33.0525 39.3979 32.928C39.9578 32.7911 40.5372 32.5858 41.1361 32.312V34.4587C40.6154 34.7076 40.062 34.888 39.476 35C38.9031 35.1245 38.2065 35.1867 37.3862 35.1867C36.3185 35.1867 35.3745 35 34.5542 34.6267C33.7339 34.2409 33.0894 33.6622 32.6207 32.8907C32.1519 32.1191 31.9175 31.1485 31.9175 29.9787C31.9175 28.784 32.1259 27.7947 32.5425 27.0107C32.9722 26.2142 33.5647 25.6169 34.3199 25.2187C35.0751 24.8205 35.954 24.6214 36.9565 24.6214ZM36.9761 26.6C36.4162 26.6 35.9474 26.7742 35.5698 27.1227C35.2053 27.4711 34.9904 28.0125 34.9253 28.7467H39.0073C39.0073 28.336 38.9292 27.9689 38.7729 27.6454C38.6297 27.3218 38.4084 27.0667 38.1089 26.88C37.8094 26.6934 37.4318 26.6 36.9761 26.6ZM48.5937 32.9654C48.9192 32.9654 49.2317 32.9342 49.5312 32.872C49.8306 32.8098 50.1301 32.7351 50.4296 32.648V34.72C50.1171 34.8445 49.7265 34.9502 49.2577 35.0374C48.802 35.1369 48.3007 35.1867 47.7538 35.1867C47.1158 35.1867 46.5429 35.0871 46.0351 34.888C45.5403 34.6889 45.1432 34.3467 44.8437 33.8614C44.5572 33.3636 44.414 32.6791 44.414 31.808V26.8987H43.0273V25.7227L44.6289 24.7894L45.4687 22.6427H47.3241V24.808H50.3124V26.8987H47.3241V31.808C47.3241 32.1938 47.4413 32.4862 47.6757 32.6854C47.9101 32.872 48.2161 32.9654 48.5937 32.9654ZM58.7221 23.8374C58.1622 23.8374 57.6609 23.9431 57.2182 24.1547C56.7886 24.3662 56.424 24.6711 56.1245 25.0694C55.825 25.4551 55.5972 25.928 55.4409 26.488C55.2977 27.048 55.2261 27.6765 55.2261 28.3734C55.2261 29.3191 55.3433 30.128 55.5776 30.8C55.825 31.4596 56.2091 31.9636 56.73 32.312C57.2508 32.6605 57.9148 32.8347 58.7221 32.8347C59.295 32.8347 59.8614 32.7725 60.4213 32.648C60.9942 32.5236 61.6127 32.3494 62.2768 32.1254V34.496C61.6648 34.7325 61.0593 34.9067 60.4604 35.0187C59.8614 35.1307 59.1909 35.1867 58.4487 35.1867C57.0164 35.1867 55.8315 34.9067 54.894 34.3467C53.9696 33.7742 53.286 32.9778 52.8433 31.9574C52.4006 30.9245 52.1792 29.7236 52.1792 28.3547C52.1792 27.3467 52.3225 26.4258 52.6089 25.592C52.8954 24.7458 53.312 24.0178 53.8589 23.408C54.4188 22.7982 55.1024 22.3254 55.9097 21.9894C56.73 21.6534 57.6675 21.4854 58.7221 21.4854C59.4122 21.4854 60.1023 21.5725 60.7924 21.7467C61.4955 21.9085 62.1661 22.1325 62.8041 22.4187L61.8471 24.7147C61.3263 24.4782 60.7989 24.2729 60.2651 24.0987C59.7443 23.9245 59.2299 23.8374 58.7221 23.8374ZM69.3808 24.6027C70.8131 24.6027 71.9068 24.9014 72.662 25.4987C73.4302 26.0836 73.8143 26.9858 73.8143 28.2054V35H71.7831L71.2167 33.6187H71.1386C70.8391 33.9796 70.5266 34.2782 70.2011 34.5147C69.8886 34.7511 69.524 34.9191 69.1073 35.0187C68.7037 35.1307 68.2024 35.1867 67.6035 35.1867C66.9785 35.1867 66.4121 35.0747 65.9043 34.8507C65.4095 34.6142 65.0189 34.2596 64.7324 33.7867C64.4459 33.3014 64.3027 32.6916 64.3027 31.9574C64.3027 30.8747 64.6999 30.0782 65.4941 29.568C66.2884 29.0454 67.4798 28.7591 69.0683 28.7094L70.9237 28.6534V28.2054C70.9237 27.6702 70.774 27.2782 70.4745 27.0294C70.1881 26.7805 69.7844 26.656 69.2636 26.656C68.7428 26.656 68.235 26.7307 67.7402 26.88C67.2454 27.0169 66.7506 27.1911 66.2558 27.4027L65.2988 25.5174C65.8717 25.2311 66.5032 25.0071 67.1933 24.8454C67.8964 24.6836 68.6256 24.6027 69.3808 24.6027ZM69.7909 30.3147C68.8535 30.3396 68.2024 30.5014 67.8378 30.8C67.4733 31.0987 67.291 31.4907 67.291 31.976C67.291 32.3991 67.4212 32.704 67.6816 32.8907C67.942 33.0649 68.2805 33.152 68.6972 33.152C69.3222 33.152 69.8495 32.9778 70.2792 32.6294C70.7089 32.2685 70.9237 31.7645 70.9237 31.1174V30.2774L69.7909 30.3147ZM82.7498 24.6214C82.893 24.6214 83.0623 24.6276 83.2576 24.64C83.4529 24.6525 83.6091 24.6711 83.7263 24.696L83.5115 27.3094C83.4203 27.2845 83.2836 27.2658 83.1013 27.2534C82.9321 27.2285 82.7823 27.216 82.6521 27.216C82.2745 27.216 81.9099 27.2658 81.5584 27.3654C81.2068 27.4525 80.8878 27.5956 80.6014 27.7947C80.3279 27.9938 80.1066 28.2614 79.9373 28.5974C79.7811 28.9209 79.7029 29.3254 79.7029 29.8107V35H76.7928V24.808H78.9998L79.4295 26.5254H79.5662C79.7746 26.1769 80.035 25.8596 80.3475 25.5734C80.66 25.2871 81.018 25.0569 81.4217 24.8827C81.8383 24.7085 82.281 24.6214 82.7498 24.6214ZM88.6595 35.1867C87.4747 35.1867 86.5046 34.7449 85.7494 33.8614C85.0072 32.9654 84.6361 31.6525 84.6361 29.9227C84.6361 28.1805 85.0137 26.8614 85.769 25.9654C86.5241 25.0694 87.5137 24.6214 88.7377 24.6214C89.2455 24.6214 89.6947 24.6898 90.0853 24.8267C90.4759 24.9511 90.808 25.1254 91.0814 25.3494C91.3678 25.5734 91.6087 25.8285 91.804 26.1147H91.9017C91.8626 25.9156 91.8171 25.6294 91.765 25.256C91.7129 24.8702 91.6869 24.4782 91.6869 24.08V20.8134H94.597V35H92.3704L91.804 33.6747H91.6869C91.5046 33.9485 91.2702 34.2036 90.9837 34.44C90.7103 34.664 90.3848 34.8445 90.0072 34.9814C89.6296 35.1182 89.1804 35.1867 88.6595 35.1867ZM89.6752 32.9654C90.4824 32.9654 91.0488 32.7414 91.3744 32.2934C91.6999 31.8329 91.8691 31.1485 91.8822 30.24V29.9414C91.8822 28.9458 91.7194 28.1867 91.3939 27.664C91.0814 27.1414 90.4955 26.88 89.6361 26.88C88.9981 26.88 88.4968 27.1476 88.1322 27.6827C87.7676 28.2054 87.5853 28.9645 87.5853 29.96C87.5853 30.9556 87.7676 31.7085 88.1322 32.2187C88.4968 32.7165 89.0111 32.9654 89.6752 32.9654Z" fill="black"/>
<path d="M69.2478 57.7359C68.9963 58.3912 68.5182 58.91 67.9673 59.2841C66.7572 60.1054 65.152 60.2477 63.7519 59.6574C62.7924 59.2534 61.8761 58.5164 60.8759 58.5417C59.8753 58.5164 58.9594 59.2534 57.9996 59.6574C56.5994 60.2477 54.9942 60.1054 53.7841 59.2841C53.2332 58.91 52.7555 58.3912 52.5036 57.7359C52.2521 57.081 52.2493 56.2811 52.5838 55.6277C52.8763 55.0561 53.3894 54.6477 53.9192 54.337C54.449 54.0263 55.0199 53.8 55.526 53.448C57.4425 52.1149 57.9682 49.6462 60.8759 49.6462C63.7832 49.6462 64.3089 52.1149 66.2254 53.448C66.7316 53.8 67.3024 54.0263 67.8322 54.337C68.362 54.6477 68.8751 55.0561 69.1676 55.6277C69.5021 56.2811 69.4993 57.081 69.2478 57.7359Z" fill="#518B86"/>
<path d="M59.9942 45.7658C60.0231 47.1371 59.0051 48.3348 57.4308 48.4523C55.8565 48.5701 54.41 47.2001 54.2204 45.5636C54.0198 43.8346 55.6156 41.2738 57.198 41.2928C58.9945 41.3142 59.9576 44.0454 59.9942 45.7658Z" fill="#518B86"/>
<path d="M57.4975 40.1261C57.5089 40.2475 57.5122 40.3735 57.4585 40.4875C57.4043 40.601 57.2802 40.7014 57.1289 40.7111C56.973 40.7212 56.8266 40.6329 56.7549 40.5213C56.6829 40.4097 56.6719 40.2798 56.6744 40.154C56.6817 39.767 56.8066 39.3827 57.0304 39.0399C57.067 38.9834 57.1704 38.9878 57.1985 39.0475C57.3616 39.3931 57.4629 39.7575 57.4975 40.1261Z" fill="#518B86"/>
<path d="M54.2362 49.3134C54.5247 50.5104 53.8627 51.6848 52.5065 51.9819C51.1507 52.279 49.622 51.2582 49.1423 49.8489C48.6353 48.3594 49.5419 45.9203 50.931 45.7418C52.5085 45.5392 53.8745 47.8115 54.2362 49.3134Z" fill="#518B86"/>
<path d="M50.9697 44.6833C51.0031 44.7883 51.03 44.8979 51.0047 45.0045C50.9791 45.1107 50.8896 45.2137 50.759 45.2409C50.6247 45.2693 50.4794 45.2094 50.3952 45.1208C50.3106 45.0321 50.2764 44.9197 50.2544 44.8093C50.1865 44.4694 50.2223 44.1174 50.3525 43.7896C50.374 43.7356 50.4652 43.727 50.5014 43.7756C50.7101 44.0583 50.8688 44.3648 50.9697 44.6833Z" fill="#518B86"/>
<path d="M61.7573 45.7658C61.7284 47.1371 62.7469 48.3348 64.3212 48.4523C65.8955 48.5701 67.3416 47.2001 67.5312 45.5636C67.7318 43.8346 66.1359 41.2738 64.5535 41.2928C62.7571 41.3142 61.7943 44.0454 61.7573 45.7658Z" fill="#518B86"/>
<path d="M64.254 40.1261C64.2426 40.2475 64.2393 40.3735 64.293 40.4875C64.3471 40.601 64.4712 40.7014 64.6226 40.7111C64.7784 40.7212 64.9249 40.6329 64.9969 40.5213C65.0686 40.4097 65.0795 40.2798 65.0771 40.154C65.0698 39.767 64.9449 39.3827 64.7211 39.0399C64.6844 38.9834 64.5811 38.9878 64.553 39.0475C64.3899 39.3931 64.2885 39.7575 64.254 40.1261Z" fill="#518B86"/>
<path d="M67.5153 49.3134C67.2268 50.5104 67.8889 51.6848 69.245 51.9819C70.6008 52.279 72.1295 51.2582 72.6093 49.8489C73.1163 48.3594 72.2097 45.9203 70.8205 45.7418C69.2434 45.5392 67.8771 47.8115 67.5153 49.3134Z" fill="#518B86"/>
<path d="M70.7819 44.6833C70.749 44.7883 70.7217 44.8979 70.7469 45.0045C70.7726 45.1107 70.8621 45.2137 70.9927 45.2409C71.1274 45.2693 71.2722 45.2094 71.3565 45.1208C71.4411 45.0321 71.4753 44.9197 71.4973 44.8093C71.5652 44.4694 71.5294 44.1174 71.3992 43.7896C71.3776 43.7356 71.2865 43.727 71.2507 43.7756C71.0415 44.0583 70.8828 44.3648 70.7819 44.6833Z" fill="#518B86"/>
</svg>
